<svg xmlns="http://www.w3.org/2000/svg" xmlns:xlink="http://www.w3.org/1999/xlink" width="225" zoomAndPan="magnify" viewBox="0 0 168.75 68.249996" height="91" preserveAspectRatio="xMidYMid meet" version="1.0"><defs><g/><clipPath id="b817204930"><path d="M 14 9 L 154 9 L 154 58 L 14 58 Z M 14 9 " clip-rule="nonzero"/></clipPath><clipPath id="8088d2f145"><path d="M 11.5625 20.15625 L 150.773438 1.707031 L 156.734375 46.675781 L 17.519531 65.121094 Z M 11.5625 20.15625 " clip-rule="nonzero"/></clipPath><clipPath id="578f608a79"><path d="M 11.5625 20.15625 L 150.773438 1.707031 L 156.734375 46.675781 L 17.519531 65.121094 Z M 11.5625 20.15625 " clip-rule="nonzero"/></clipPath><clipPath id="b779a4284f"><path d="M 103 14 L 167.710938 14 L 167.710938 57 L 103 57 Z M 103 14 " clip-rule="nonzero"/></clipPath><clipPath id="b7f5d40934"><path d="M 13 5.160156 L 25.835938 5.160156 L 25.835938 17.496094 L 13 17.496094 Z M 13 5.160156 " clip-rule="nonzero"/></clipPath><clipPath id="ae724ecb5b"><path d="M 9.492188 17.054688 L 16 17.054688 L 16 23.226562 L 9.492188 23.226562 Z M 9.492188 17.054688 " clip-rule="nonzero"/></clipPath><clipPath id="e5080fcfd0"><path d="M 124 0 L 134.777344 0 L 134.777344 10.160156 L 124 10.160156 Z M 124 0 " clip-rule="nonzero"/></clipPath><clipPath id="77f59a8580"><path d="M 136.796875 45.464844 L 143.328125 45.464844 L 143.328125 51.636719 L 136.796875 51.636719 Z M 136.796875 45.464844 " clip-rule="nonzero"/></clipPath></defs><g clip-path="url(#b817204930)"><g clip-path="url(#8088d2f145)"><g clip-path="url(#578f608a79)"><path fill="#f285c1" d="M 81.070312 10.945312 C 42.722656 16.027344 12.96875 30.1875 14.609375 42.554688 C 16.246094 54.921875 48.664062 60.84375 87.007812 55.761719 C 125.355469 50.679688 155.109375 36.519531 153.472656 24.152344 C 151.832031 11.785156 119.417969 5.863281 81.070312 10.945312 Z M 86.917969 55.074219 C 54.921875 59.3125 27.691406 53.027344 26.105469 41.042969 C 24.515625 29.058594 49.164062 15.886719 81.164062 11.644531 C 113.160156 7.40625 140.390625 13.691406 141.976562 25.675781 C 143.566406 37.660156 118.914062 50.820312 86.917969 55.058594 Z M 86.917969 55.074219 " fill-opacity="1" fill-rule="nonzero"/></g></g></g><path stroke-linecap="butt" transform="matrix(1.270403, 0, 0, 1.270403, 10.864262, 12.86242)" fill="none" stroke-linejoin="miter" d="M 15.834508 6.626897 C 17.313492 5.805922 18.743279 5.396972 20.11772 5.396972 C 20.671186 5.396972 21.187754 5.464618 21.66435 5.606059 C 22.144021 5.744426 22.55912 5.935064 22.912724 6.174899 C 23.269402 6.41166 23.54921 6.697617 23.749072 7.029697 C 23.948935 7.361777 24.047329 7.712305 24.047329 8.084357 C 24.047329 8.810013 23.761372 9.381928 23.189457 9.809327 C 22.620617 10.230576 21.851914 10.439663 20.880273 10.439663 C 20.52667 10.439663 20.197665 10.427364 19.896334 10.396616 C 19.595002 10.365868 19.278296 10.310521 18.946217 10.227501 C 18.617212 10.141406 18.251309 10.024563 17.857734 9.876972 C 17.464158 9.729382 17.006011 9.547968 16.483293 9.332731 C 16.3603 9.532594 16.268056 9.701708 16.212709 9.84315 C 16.160438 9.981516 16.132764 10.135257 16.132764 10.304371 C 16.132764 10.430439 16.148138 10.547281 16.178886 10.6549 C 16.212709 10.762518 16.268056 10.913184 16.341851 11.113047 C 16.870719 11.023877 17.295043 10.962381 17.620973 10.931633 C 17.943828 10.89781 18.291282 10.882436 18.660259 10.882436 C 20.234563 10.882436 21.021715 11.282161 21.021715 12.084687 C 21.021715 12.502862 20.821852 12.825717 20.428276 13.050178 C 20.0347 13.274639 19.468935 13.385332 18.727905 13.385332 C 18.586464 13.385332 18.454247 13.382258 18.331254 13.373033 C 18.211337 13.360734 18.076045 13.348435 17.931529 13.333061 C 17.783938 13.317687 17.599449 13.293088 17.381138 13.253116 C 17.168976 13.216218 16.892243 13.157796 16.550939 13.080926 C 16.292654 13.203919 16.058969 13.320761 15.856031 13.42838 C 15.656168 13.535998 15.480904 13.634392 15.327164 13.729711 C 15.170348 13.821956 15.028907 13.92035 14.89669 14.021818 C 14.764473 14.120212 14.632256 14.230906 14.496965 14.356973 C 14.186409 14.661379 13.928124 15.027282 13.715962 15.451606 C 13.50995 15.879005 13.405406 16.275655 13.405406 16.644633 C 13.405406 17.093555 13.568371 17.468682 13.891227 17.770014 C 14.214082 18.06827 14.616882 18.218936 15.093478 18.218936 C 15.527026 18.218936 15.889854 18.102093 16.178886 17.865333 C 16.474068 17.622423 16.618584 17.324166 16.618584 16.967488 C 16.618584 16.487817 16.36645 16.247982 15.856031 16.247982 C 15.766862 16.247982 15.696141 16.257206 15.646944 16.275655 C 15.573149 16.291029 15.505503 16.303329 15.450156 16.309478 C 15.397884 16.318703 15.354837 16.321777 15.327164 16.321777 C 15.231844 16.321777 15.14575 16.281805 15.071954 16.198785 C 14.995084 16.11269 14.958186 16.005072 14.958186 15.882079 C 14.958186 15.666843 15.068879 15.448531 15.293341 15.227145 C 15.514727 14.999608 15.79761 14.793596 16.145063 14.609107 C 16.495592 14.421544 16.886093 14.270878 17.313492 14.15711 C 17.74704 14.040267 18.174439 13.981846 18.592613 13.981846 C 19.564254 13.981846 20.332957 14.270878 20.901797 14.842793 C 21.473712 15.411633 21.759669 16.180336 21.759669 17.151977 C 21.759669 17.954502 21.559807 18.701682 21.157006 19.390439 C 20.757281 20.076122 20.209964 20.672636 19.511982 21.17998 C 18.82015 21.690398 17.999175 22.087049 17.049058 22.373006 C 16.098941 22.658964 15.068879 22.80348 13.958873 22.80348 C 12.971858 22.80348 12.074013 22.686637 11.265338 22.452952 C 10.453587 22.222341 9.761755 21.890261 9.18984 21.456713 C 8.621 21.023164 8.184376 20.503521 7.873821 19.897783 C 7.566339 19.288971 7.412599 18.612512 7.412599 17.871482 C 7.412599 16.822972 7.704706 15.832882 8.291995 14.89814 C 8.879284 13.963397 9.666436 13.228517 10.65345 12.690425 C 10.884061 12.564358 11.105447 12.453665 11.320684 12.355271 C 11.538996 12.253802 11.766532 12.155408 12.003292 12.063163 C 12.246203 11.967844 12.504487 11.8756 12.778145 11.78643 C 13.057953 11.691111 13.371584 11.598867 13.728262 11.509697 C 13.59297 11.091523 13.494576 10.765593 13.439229 10.538057 C 13.386958 10.304371 13.359284 10.07991 13.359284 9.864673 C 13.359284 9.600239 13.405406 9.366554 13.494576 9.157467 C 13.589895 8.951454 13.75286 8.69317 13.980396 8.385689 C 13.691364 8.29037 13.454603 8.228874 13.276264 8.198125 C 13.097925 8.167377 12.901137 8.152003 12.688975 8.152003 C 12.147809 8.152003 11.701961 8.27807 11.342208 8.52713 C 10.988605 8.77004 10.81334 9.071372 10.81334 9.424975 C 10.81334 9.717082 10.920959 9.935394 11.13927 10.07376 C 11.231515 10.150631 11.31146 10.190603 11.38833 10.196753 C 11.468275 10.205977 11.692736 10.209052 12.064789 10.209052 C 12.341522 10.209052 12.479888 10.341269 12.479888 10.605703 C 12.479888 10.82094 12.356896 11.039251 12.11706 11.266787 C 11.8803 11.488174 11.566669 11.688036 11.179243 11.866376 C 10.794891 12.04164 10.364418 12.186156 9.884747 12.293774 C 9.411226 12.404468 8.934631 12.456739 8.45496 12.456739 C 7.883045 12.456739 7.357252 12.373719 6.880656 12.204605 C 6.400986 12.03549 5.992036 11.795655 5.653807 11.485099 C 5.315577 11.177618 5.054218 10.805566 4.86973 10.372017 C 4.685241 9.941544 4.592997 9.468023 4.592997 8.960679 C 4.592997 8.311893 4.728288 7.70923 5.005021 7.14654 C 5.281754 6.583849 5.663031 6.088805 6.139627 5.667556 C 6.619297 5.243232 7.185063 4.911152 7.839998 4.674391 C 8.494932 4.431481 9.192915 4.311564 9.937019 4.311564 C 10.582729 4.311564 11.249964 4.409958 11.935647 4.60982 C 12.62133 4.809683 13.288564 5.089491 13.937349 5.446169 C 14.060341 5.523039 14.180259 5.596835 14.297102 5.667556 C 14.413945 5.735201 14.540012 5.812072 14.675304 5.898166 C 14.816745 5.981186 14.976635 6.082655 15.161124 6.199498 C 15.351762 6.310191 15.573149 6.454707 15.834508 6.626897 Z M 18.106793 7.989038 C 18.365077 8.115105 18.583389 8.216574 18.761728 8.293445 C 18.936992 8.370315 19.096883 8.428736 19.235249 8.474858 C 19.373616 8.520981 19.496608 8.551729 19.601152 8.570178 C 19.711845 8.585552 19.828688 8.594776 19.95168 8.594776 C 20.169992 8.594776 20.342181 8.551729 20.462099 8.468709 C 20.585091 8.382614 20.646588 8.262696 20.646588 8.108956 C 20.646588 7.733829 20.323732 7.54934 19.674947 7.54934 C 19.367466 7.54934 19.090733 7.583163 18.850898 7.656959 C 18.614137 7.724604 18.365077 7.835298 18.106793 7.989038 Z M 23.343197 13.981846 C 23.373945 13.858853 23.395469 13.729711 23.410843 13.59442 C 23.426217 13.452978 23.435442 13.336135 23.435442 13.243891 C 23.435442 12.979457 23.398544 12.794969 23.327823 12.690425 C 23.260177 12.579732 23.124886 12.478263 22.925023 12.386019 C 23.420068 11.955545 23.930486 11.62654 24.462429 11.395929 C 24.997446 11.162244 25.50479 11.045401 25.981386 11.045401 C 26.860782 11.045401 27.322003 11.491249 27.365051 12.386019 C 27.690981 12.12466 27.989237 11.906348 28.259821 11.728009 C 28.530404 11.552745 28.788688 11.408229 29.031599 11.30061 C 29.280658 11.189917 29.517419 11.113047 29.738805 11.066925 C 29.966341 11.023877 30.209251 10.999279 30.467536 10.999279 C 31.577542 10.999279 32.2663 11.4605 32.530734 12.386019 C 33.114948 11.906348 33.662265 11.558894 34.178833 11.343658 C 34.698476 11.131496 35.242718 11.023877 35.811558 11.023877 C 36.414221 11.023877 36.91234 11.192992 37.302842 11.531221 C 37.699492 11.86945 37.89628 12.309148 37.89628 12.84724 C 37.89628 13.065552 37.874756 13.274639 37.828634 13.474502 L 37.201373 16.435545 C 37.170625 16.558538 37.149101 16.672306 37.133727 16.773775 C 37.118353 16.872169 37.112203 16.952114 37.112203 17.016685 C 37.112203 17.231922 37.170625 17.404111 37.293617 17.536328 C 37.41661 17.668545 37.579575 17.733116 37.782512 17.733116 C 37.844008 17.733116 37.911654 17.726966 37.988524 17.711592 C 38.065395 17.693143 38.142265 17.668545 38.219135 17.637797 C 38.526616 17.533253 38.70803 17.480981 38.754153 17.480981 C 38.861771 17.480981 38.947866 17.517879 39.015512 17.594749 C 39.086232 17.668545 39.12313 17.770014 39.12313 17.893006 C 39.12313 18.172814 38.904818 18.511043 38.474345 18.910769 C 38.028497 19.328943 37.527303 19.654873 36.970762 19.885484 C 36.417296 20.116095 35.854605 20.232938 35.28269 20.232938 C 34.633905 20.232938 34.108112 20.054599 33.705312 19.700995 C 33.305587 19.347392 33.105724 18.89232 33.105724 18.332704 C 33.105724 18.178964 33.127247 18.015999 33.17337 17.846884 L 33.732985 15.442381 C 33.779108 15.285566 33.800631 15.131825 33.800631 14.978085 C 33.800631 14.513788 33.591544 14.283177 33.17337 14.283177 C 32.868963 14.283177 32.622978 14.40002 32.43234 14.633706 C 32.247851 14.864317 32.094111 15.248668 31.971118 15.789835 L 31.417652 18.40035 C 31.187041 19.46731 30.615126 19.999252 29.704982 19.999252 L 28.733342 19.999252 C 28.425861 19.999252 28.173726 20.03615 27.983088 20.11302 C 27.789375 20.192965 27.540315 20.36208 27.229759 20.626514 L 28.367439 15.442381 C 28.410487 15.242519 28.435085 15.042656 28.435085 14.842793 C 28.435085 14.439993 28.241372 14.237055 27.850871 14.237055 C 27.269732 14.237055 26.860782 14.756698 26.627096 15.789835 L 26.049031 18.40035 C 25.926039 18.987639 25.723101 19.402739 25.446368 19.642574 C 25.169635 19.882409 24.754536 19.999252 24.197995 19.999252 L 23.435442 19.999252 C 23.081838 19.999252 22.805105 20.03615 22.608317 20.11302 C 22.417679 20.192965 22.168619 20.36208 21.864213 20.626514 Z M 43.440165 11.921722 C 43.93521 11.598867 44.353384 11.374406 44.700838 11.254488 C 45.048292 11.131496 45.435718 11.066925 45.869266 11.066925 C 46.717914 11.066925 47.406672 11.340583 47.938615 11.88175 C 48.473632 12.419842 48.74114 13.127048 48.74114 14.006444 C 48.74114 14.839718 48.568951 15.63302 48.230722 16.389423 C 47.892492 17.145827 47.440495 17.813061 46.87473 18.384976 C 46.315114 18.953816 45.65403 19.405813 44.897626 19.747117 C 44.141222 20.085347 43.347921 20.254461 42.514647 20.254461 C 41.976555 20.254461 41.478436 20.174516 41.023363 20.011551 C 40.568291 19.848586 40.17779 19.624125 39.85186 19.338167 C 39.529005 19.05221 39.273796 18.713981 39.089307 18.32348 C 38.904818 17.929904 38.812574 17.496355 38.812574 17.016685 C 38.812574 16.829121 38.827948 16.616959 38.858696 16.380199 C 38.889444 16.137289 38.926342 15.888229 38.972464 15.62687 L 40.50372 8.36109 C 40.519094 8.268846 40.528319 8.176602 40.537543 8.084357 C 40.543693 7.992113 40.546768 7.88142 40.546768 7.758427 C 40.546768 7.512442 40.512945 7.331029 40.442224 7.214186 C 40.371503 7.097343 40.233137 6.995874 40.0179 6.90363 C 40.460673 6.485455 40.974166 6.150301 41.552231 5.898166 C 42.13337 5.642957 42.653014 5.513815 43.114235 5.513815 C 43.501662 5.513815 43.824517 5.621433 44.085876 5.830521 C 44.347235 6.039608 44.479452 6.294817 44.479452 6.599223 C 44.479452 6.73759 44.457928 6.900555 44.411806 7.085044 Z M 44.061277 13.452978 C 43.723048 13.452978 43.424791 13.619018 43.169582 13.948023 C 42.917447 14.280103 42.79138 14.664454 42.79138 15.094928 C 42.79138 15.310164 42.862101 15.494653 43.000467 15.651468 C 43.138834 15.805209 43.317173 15.882079 43.53241 15.882079 C 43.870639 15.882079 44.175045 15.722189 44.445629 15.408558 C 44.716212 15.091853 44.851504 14.741324 44.851504 14.356973 C 44.851504 13.75431 44.590145 13.452978 44.061277 13.452978 Z M 49.629761 13.892676 C 49.663584 13.785058 49.685107 13.662065 49.694332 13.532923 C 49.700482 13.400706 49.703556 13.274639 49.703556 13.151647 C 49.703556 12.964083 49.669733 12.822642 49.595938 12.724248 C 49.528292 12.622779 49.402225 12.509011 49.217736 12.386019 C 49.417599 12.20153 49.64821 12.026266 49.906494 11.866376 C 50.170928 11.703411 50.441511 11.565044 50.721319 11.451276 C 51.001127 11.334433 51.27171 11.242189 51.539219 11.174543 C 51.812877 11.103822 52.065012 11.066925 52.298697 11.066925 C 52.695348 11.066925 53.015128 11.165319 53.251889 11.355957 C 53.491724 11.54967 53.614717 11.814104 53.614717 12.152333 C 53.614717 12.232278 53.605492 12.333747 53.590118 12.456739 C 53.574744 12.579732 53.55322 12.754996 53.522472 12.988682 C 53.753083 12.773445 53.934497 12.60433 54.066714 12.481338 C 54.195856 12.355271 54.309624 12.253802 54.398794 12.170782 C 54.494113 12.084687 54.574058 12.017041 54.641704 11.970919 C 54.712424 11.921722 54.795444 11.860226 54.884614 11.78643 C 55.149048 11.586568 55.453454 11.426677 55.800908 11.309835 C 56.145286 11.192992 56.474291 11.13457 56.781772 11.13457 C 57.292191 11.13457 57.707291 11.285236 58.030146 11.586568 C 58.356076 11.887899 58.515966 12.287625 58.515966 12.779595 C 58.515966 13.133198 58.451395 13.474502 58.319178 13.797357 C 58.190036 14.120212 58.014772 14.40617 57.787236 14.65523 C 57.565849 14.901214 57.31064 15.094928 57.024683 15.242519 C 56.738725 15.39011 56.443543 15.463905 56.132987 15.463905 C 55.76401 15.463905 55.441155 15.356287 55.161347 15.14105 C 54.887689 14.922738 54.749322 14.667529 54.749322 14.378497 C 54.749322 14.3293 54.752397 14.273953 54.761621 14.215532 C 54.767771 14.154035 54.78007 14.086389 54.795444 14.006444 C 54.484888 14.175559 54.220454 14.363122 54.002143 14.56606 C 53.789981 14.765923 53.596268 14.993459 53.427153 15.248668 C 53.258038 15.500803 53.107373 15.802134 52.975156 16.146513 C 52.846014 16.493967 52.719946 16.905992 52.596954 17.385662 L 52.387867 18.332704 C 52.123433 19.445786 51.529994 19.999252 50.607551 19.999252 L 49.703556 19.999252 C 49.439123 19.999252 49.186988 20.042299 48.947153 20.125319 C 48.710392 20.211414 48.461332 20.36208 48.199974 20.577317 Z M 62.69771 11.091523 C 63.890737 11.091523 64.831629 11.426677 65.523462 12.096986 C 66.215294 12.767295 66.562748 13.67129 66.562748 14.81512 C 66.562748 15.571523 66.421307 16.281805 66.135349 16.942889 C 65.852466 17.607049 65.458891 18.182038 64.957696 18.670933 C 64.456502 19.156754 63.869213 19.54418 63.195829 19.830137 C 62.52552 20.11302 61.806014 20.254461 61.031162 20.254461 C 59.875033 20.254461 58.955664 19.900858 58.269981 19.193651 C 57.584298 18.480295 57.242994 17.524029 57.242994 16.321777 C 57.242994 15.62687 57.38751 14.962711 57.676543 14.332374 C 57.971724 13.702038 58.368375 13.145497 58.869569 12.665827 C 59.373839 12.189231 59.958053 11.807954 60.619137 11.518922 C 61.283296 11.232964 61.975129 11.091523 62.69771 11.091523 Z M 62.445575 13.385332 C 62.119645 13.385332 61.830613 13.542148 61.575404 13.858853 C 61.323269 14.172484 61.197202 14.529162 61.197202 14.931963 C 61.197202 15.21177 61.270997 15.442381 61.415513 15.62687 C 61.563104 15.811359 61.744518 15.903603 61.959755 15.903603 C 62.297984 15.903603 62.596241 15.746788 62.85145 15.430082 C 63.10666 15.113376 63.235802 14.747474 63.235802 14.3293 C 63.235802 14.052567 63.162006 13.828105 63.014415 13.649766 C 62.869899 13.474502 62.679261 13.385332 62.445575 13.385332 Z M 67.460593 13.938798 C 67.537463 13.585195 67.574361 13.336135 67.574361 13.197769 C 67.574361 12.874914 67.399097 12.613555 67.045493 12.413692 C 68.124752 11.515847 69.151739 11.066925 70.12338 11.066925 C 70.523105 11.066925 70.839811 11.168393 71.076571 11.368256 C 71.319481 11.568119 71.439399 11.844852 71.439399 12.204605 C 71.439399 12.324522 71.439399 12.407542 71.439399 12.456739 C 71.439399 12.502862 71.424025 12.564358 71.393277 12.638153 L 70.6092 16.321777 C 70.578452 16.447845 70.553853 16.564688 70.535404 16.672306 C 70.52003 16.77685 70.513881 16.869094 70.513881 16.942889 C 70.513881 17.176575 70.575377 17.364139 70.698369 17.502505 C 70.824437 17.637797 70.993551 17.705443 71.208788 17.705443 C 71.301032 17.705443 71.387127 17.696218 71.460923 17.67162 C 71.540868 17.650096 71.756104 17.576301 72.112783 17.453308 L 72.201952 17.453308 C 72.435638 17.453308 72.552481 17.58245 72.552481 17.846884 C 72.552481 18.111318 72.426413 18.381901 72.180428 18.661709 C 71.934444 18.935367 71.620813 19.190577 71.242611 19.424262 C 70.864409 19.654873 70.452384 19.845511 70.003462 19.999252 C 69.560689 20.152993 69.136365 20.232938 68.733565 20.232938 C 68.115528 20.232938 67.602034 20.057673 67.190009 19.713295 C 66.784134 19.365841 66.581197 18.919993 66.581197 18.378826 C 66.581197 18.148215 66.60272 17.923754 66.648843 17.705443 Z M 70.513881 6.694543 C 71.055047 6.694543 71.488596 6.839059 71.811451 7.125016 C 72.137381 7.407899 72.297271 7.779951 72.297271 8.244248 C 72.297271 8.520981 72.229625 8.785414 72.088184 9.034474 C 71.949818 9.280459 71.756104 9.492621 71.507045 9.67711 C 71.26106 9.861598 70.981252 10.012264 70.664546 10.129107 C 70.347841 10.24595 70.021911 10.304371 69.683682 10.304371 C 69.188637 10.304371 68.795061 10.166005 68.502954 9.886197 C 68.207772 9.609464 68.060181 9.237412 68.060181 8.773115 C 68.060181 8.499457 68.127827 8.241173 68.260044 7.995188 C 68.389186 7.746128 68.5706 7.524742 68.801211 7.334103 C 69.034896 7.137315 69.296255 6.983575 69.585288 6.869807 C 69.880469 6.752964 70.187951 6.694543 70.513881 6.694543 Z M 79.673744 8.287295 C 79.707567 8.167377 79.732166 8.050534 79.744465 7.933692 C 79.759839 7.816849 79.769063 7.712305 79.769063 7.623136 C 79.769063 7.420198 79.732166 7.269532 79.661445 7.171138 C 79.593799 7.06967 79.443133 6.946677 79.209448 6.808311 C 79.876682 6.316341 80.427073 5.975037 80.863696 5.790548 C 81.306469 5.606059 81.770766 5.513815 82.26581 5.513815 C 82.714733 5.513815 83.056037 5.624508 83.292797 5.84282 C 83.535707 6.058057 83.655625 6.365538 83.655625 6.762188 C 83.655625 6.823685 83.65255 6.882106 83.643326 6.937453 C 83.637176 6.992799 83.624877 7.05737 83.609503 7.137315 L 81.570903 16.343301 C 81.540155 16.469368 81.518631 16.586211 81.503257 16.69383 C 81.487883 16.801448 81.478658 16.890618 81.478658 16.967488 C 81.478658 17.444084 81.70312 17.683919 82.152042 17.683919 C 82.27196 17.683919 82.416476 17.662395 82.588665 17.616273 C 82.92997 17.50558 83.123683 17.453308 83.169805 17.453308 C 83.277423 17.453308 83.366593 17.490206 83.434239 17.570151 C 83.501884 17.647021 83.535707 17.745415 83.535707 17.871482 C 83.535707 18.117467 83.412715 18.381901 83.163655 18.661709 C 82.91767 18.935367 82.604039 19.190577 82.219688 19.424262 C 81.835337 19.654873 81.420237 19.845511 80.971315 19.999252 C 80.522392 20.152993 80.091918 20.232938 79.673744 20.232938 C 79.117203 20.232938 78.655982 20.057673 78.283929 19.713295 C 77.914952 19.365841 77.730463 18.935367 77.730463 18.424948 C 77.730463 18.332704 77.730463 18.249684 77.730463 18.175889 C 77.730463 18.095944 77.736613 18.000624 77.751987 17.893006 C 77.103202 18.744729 76.522062 19.350467 76.005494 19.713295 C 75.488926 20.073047 74.938534 20.254461 74.351245 20.254461 C 73.644039 20.254461 73.078273 19.980803 72.660099 19.436561 C 72.248074 18.88617 72.038987 18.148215 72.038987 17.219622 C 72.038987 16.481668 72.177354 15.734488 72.451012 14.978085 C 72.73082 14.221681 73.124396 13.535998 73.63174 12.921036 C 74.637203 11.700336 75.827155 11.091523 77.198521 11.091523 C 77.601321 11.091523 77.927251 11.13457 78.179386 11.220665 C 78.43767 11.303685 78.68673 11.445126 78.932715 11.644989 Z M 77.684341 13.406856 C 77.346112 13.406856 77.035556 13.572896 76.755748 13.904976 C 76.48209 14.237055 76.343723 14.609107 76.343723 15.024207 C 76.343723 15.285566 76.408294 15.500803 76.537436 15.660693 C 76.669653 15.823658 76.851067 15.903603 77.084753 15.903603 C 77.253867 15.903603 77.419907 15.854406 77.582872 15.756012 C 77.742762 15.654543 77.884204 15.522326 78.007196 15.362436 C 78.130189 15.199471 78.228583 15.018057 78.305453 14.818195 C 78.385398 14.615257 78.422296 14.40617 78.422296 14.190933 C 78.422296 13.978771 78.35465 13.794282 78.216283 13.637467 C 78.074842 13.483726 77.899578 13.406856 77.684341 13.406856 Z M 77.684341 13.406856 " stroke="#793a5d" stroke-width="1.73589" stroke-opacity="1" stroke-miterlimit="4"/><g clip-path="url(#b779a4284f)"><path stroke-linecap="butt" transform="matrix(1.270403, 0, 0, 1.270403, 10.864262, 12.86242)" fill="none" stroke-linejoin="miter" d="M 92.587952 16.300254 C 92.495708 16.699979 92.449586 16.967488 92.449586 17.108929 C 92.449586 17.278044 92.514157 17.42256 92.643299 17.548627 C 92.775516 17.67162 92.941556 17.733116 93.144493 17.733116 C 93.316683 17.733116 93.467349 17.702368 93.60264 17.637797 C 93.92857 17.548627 94.106909 17.502505 94.140732 17.502505 C 94.245276 17.502505 94.334445 17.542478 94.411316 17.622423 C 94.491261 17.696218 94.531233 17.794612 94.531233 17.91453 C 94.531233 18.163589 94.402091 18.424948 94.146882 18.695532 C 93.894747 18.96304 93.571892 19.2121 93.184466 19.445786 C 92.800114 19.676397 92.38194 19.867035 91.926868 20.02385 C 91.474871 20.177591 91.047472 20.254461 90.641597 20.254461 C 90.103505 20.254461 89.657657 20.076122 89.297904 19.722519 C 88.944301 19.368916 88.765962 18.919993 88.765962 18.378826 C 88.765962 18.301956 88.765962 18.225086 88.765962 18.142066 C 88.765962 18.055971 88.775186 17.957577 88.79056 17.846884 C 88.590698 18.095944 88.427732 18.298881 88.30474 18.452622 C 88.184822 18.606362 88.077204 18.738579 87.981885 18.846198 C 87.892715 18.953816 87.803546 19.04606 87.717451 19.122931 C 87.634431 19.199801 87.545262 19.282821 87.449942 19.37199 C 87.157835 19.667172 86.822681 19.894708 86.450629 20.057673 C 86.081651 20.217564 85.734198 20.300583 85.411342 20.300583 C 84.71951 20.300583 84.15067 20.014626 83.710972 19.445786 C 83.274348 18.873871 83.056037 18.142066 83.056037 17.247296 C 83.056037 16.475518 83.200553 15.722189 83.489585 14.984234 C 83.784767 14.24013 84.166044 13.579046 84.63649 13.000981 C 85.110011 12.419842 85.648103 11.95862 86.25999 11.611166 C 86.868803 11.263712 87.499139 11.091523 88.14485 11.091523 C 89.054994 11.091523 89.802173 11.423603 90.389462 12.084687 C 90.666195 11.884824 90.906031 11.724934 91.105893 11.598867 C 91.305756 11.475874 91.484095 11.37748 91.637836 11.309835 C 91.791576 11.242189 91.936092 11.199141 92.065235 11.174543 C 92.197451 11.149944 92.341968 11.13457 92.495708 11.13457 C 92.806264 11.13457 93.055324 11.21759 93.245962 11.37748 C 93.439675 11.540446 93.528845 11.746458 93.513471 11.995518 C 93.513471 12.149258 93.488872 12.302999 93.445825 12.456739 Z M 88.722914 13.496026 C 88.384685 13.496026 88.086428 13.646691 87.831219 13.948023 C 87.57601 14.249354 87.449942 14.593733 87.449942 14.978085 C 87.449942 15.565374 87.705152 15.857481 88.212496 15.857481 C 88.369311 15.857481 88.519977 15.814434 88.664493 15.722189 C 88.812084 15.629945 88.941226 15.503878 89.054994 15.350137 C 89.171837 15.196396 89.264081 15.024207 89.331727 14.830494 C 89.405523 14.633706 89.439345 14.430768 89.439345 14.215532 C 89.439345 13.735861 89.19951 13.496026 88.722914 13.496026 Z M 95.146196 13.892676 C 95.180019 13.785058 95.201542 13.662065 95.207692 13.532923 C 95.213842 13.400706 95.219991 13.274639 95.219991 13.151647 C 95.219991 12.964083 95.183093 12.822642 95.112373 12.724248 C 95.044727 12.622779 94.91866 12.509011 94.734171 12.386019 C 94.934034 12.20153 95.16157 12.026266 95.422929 11.866376 C 95.687362 11.703411 95.957946 11.565044 96.234679 11.451276 C 96.514487 11.334433 96.788145 11.242189 97.055654 11.174543 C 97.326237 11.103822 97.578372 11.066925 97.812057 11.066925 C 98.211783 11.066925 98.528488 11.165319 98.768324 11.355957 C 99.008159 11.54967 99.128077 11.814104 99.128077 12.152333 C 99.128077 12.232278 99.121927 12.333747 99.106553 12.456739 C 99.091179 12.579732 99.069655 12.754996 99.038907 12.988682 C 99.266443 12.773445 99.447857 12.60433 99.580074 12.481338 C 99.712291 12.355271 99.822984 12.253802 99.915228 12.170782 C 100.007473 12.084687 100.087418 12.017041 100.158138 11.970919 C 100.228859 11.921722 100.308804 11.860226 100.401049 11.78643 C 100.662407 11.586568 100.966814 11.426677 101.314268 11.309835 C 101.661721 11.192992 101.987651 11.13457 102.298207 11.13457 C 102.805551 11.13457 103.223725 11.285236 103.546581 11.586568 C 103.869436 11.887899 104.032401 12.287625 104.032401 12.779595 C 104.032401 13.133198 103.964755 13.474502 103.835613 13.797357 C 103.706471 14.120212 103.528132 14.40617 103.303671 14.65523 C 103.082284 14.901214 102.827075 15.094928 102.541117 15.242519 C 102.25516 15.39011 101.956903 15.463905 101.649422 15.463905 C 101.280445 15.463905 100.954515 15.356287 100.677782 15.14105 C 100.401049 14.922738 100.262682 14.667529 100.262682 14.378497 C 100.262682 14.3293 100.268832 14.273953 100.274981 14.215532 C 100.284206 14.154035 100.29343 14.086389 100.308804 14.006444 C 100.001323 14.175559 99.736889 14.363122 99.518578 14.56606 C 99.303341 14.765923 99.112702 14.993459 98.943588 15.248668 C 98.771398 15.500803 98.620733 15.802134 98.491591 16.146513 C 98.362448 16.493967 98.236381 16.905992 98.110314 17.385662 L 97.901227 18.332704 C 97.639868 19.445786 97.046429 19.999252 96.123986 19.999252 L 95.219991 19.999252 C 94.955557 19.999252 94.703423 20.042299 94.463587 20.125319 C 94.223752 20.211414 93.977767 20.36208 93.716408 20.577317 Z M 111.80245 18.959966 C 111.617961 19.839362 111.365826 20.580391 111.049121 21.192279 C 110.732415 21.801092 110.305016 22.369932 109.766924 22.89265 C 109.133513 23.479939 108.435531 23.935011 107.672978 24.260941 C 106.90735 24.583796 106.107899 24.746761 105.2777 24.746761 C 104.306059 24.746761 103.528132 24.525375 102.950067 24.085676 C 102.372003 23.642904 102.08297 23.055615 102.08297 22.31766 C 102.08297 21.822615 102.196738 21.413665 102.418125 21.08466 C 102.642586 20.761805 103.048461 20.435875 103.632675 20.11302 C 103.850987 21.053912 104.438276 21.524358 105.394542 21.524358 C 106.009505 21.524358 106.553746 21.296822 107.033417 20.84175 C 107.513088 20.389753 107.866691 19.762491 108.100377 18.959966 C 107.466965 19.375065 106.928873 19.670247 106.479951 19.848586 C 106.031028 20.02385 105.575956 20.11302 105.11166 20.11302 C 104.465949 20.11302 103.949381 19.931606 103.56503 19.571853 C 103.180678 19.209025 102.986965 18.735504 102.986965 18.148215 C 102.986965 17.886856 103.026938 17.564001 103.100733 17.176575 L 103.841763 13.797357 C 103.887885 13.597494 103.909408 13.397632 103.909408 13.197769 C 103.909408 13.028654 103.87866 12.893363 103.820239 12.791894 C 103.758743 12.690425 103.611152 12.539759 103.377466 12.339896 C 104.026251 11.844852 104.592017 11.500473 105.077837 11.30061 C 105.563657 11.100747 106.064851 10.999279 106.57527 10.999279 C 106.928873 10.999279 107.230205 11.113047 107.473115 11.334433 C 107.722175 11.55582 107.848242 11.829478 107.848242 12.152333 C 107.848242 12.2784 107.823644 12.456739 107.777521 12.690425 L 107.128736 15.694516 C 107.082614 15.879005 107.06109 16.057344 107.06109 16.226458 C 107.06109 16.414022 107.122586 16.570837 107.242504 16.69383 C 107.365497 16.816822 107.513088 16.875243 107.682202 16.875243 C 107.851317 16.875243 108.017357 16.832196 108.180322 16.739952 C 108.343287 16.644633 108.478578 16.515491 108.586197 16.343301 C 108.647693 16.266431 108.69689 16.164962 108.733788 16.045044 C 108.77376 15.922052 108.826032 15.734488 108.887528 15.485429 L 109.281104 13.797357 C 109.311852 13.692814 109.333376 13.579046 109.34875 13.462203 C 109.364124 13.34536 109.373349 13.250041 109.373349 13.176245 C 109.373349 12.973308 109.336451 12.813417 109.26573 12.699649 C 109.198084 12.582807 109.072017 12.462889 108.887528 12.339896 C 109.936039 11.475874 110.923054 11.045401 111.845497 11.045401 C 112.248297 11.045401 112.574227 11.149944 112.817137 11.355957 C 113.066197 11.565044 113.192264 11.838702 113.192264 12.180006 C 113.192264 12.287625 113.192264 12.373719 113.192264 12.447515 C 113.192264 12.515161 113.17689 12.595106 113.146142 12.690425 Z M 111.80245 18.959966 " stroke="#793a5d" stroke-width="1.73589" stroke-opacity="1" stroke-miterlimit="4"/></g><g fill="#f2b3d6" fill-opacity="1"><g transform="translate(13.166867, 38.270482)"><g><path d="M 17.8125 -16.984375 C 19.6875 -18.023438 21.5 -18.546875 23.25 -18.546875 C 23.957031 -18.546875 24.613281 -18.457031 25.21875 -18.28125 C 25.820312 -18.101562 26.347656 -17.863281 26.796875 -17.5625 C 27.253906 -17.257812 27.609375 -16.894531 27.859375 -16.46875 C 28.117188 -16.050781 28.25 -15.609375 28.25 -15.140625 C 28.25 -14.210938 27.882812 -13.476562 27.15625 -12.9375 C 26.425781 -12.40625 25.445312 -12.140625 24.21875 -12.140625 C 23.769531 -12.140625 23.351562 -12.15625 22.96875 -12.1875 C 22.582031 -12.226562 22.175781 -12.300781 21.75 -12.40625 C 21.332031 -12.519531 20.875 -12.671875 20.375 -12.859375 C 19.882812 -13.046875 19.304688 -13.273438 18.640625 -13.546875 C 18.484375 -13.296875 18.367188 -13.082031 18.296875 -12.90625 C 18.222656 -12.726562 18.1875 -12.53125 18.1875 -12.3125 C 18.1875 -12.15625 18.207031 -12.007812 18.25 -11.875 C 18.289062 -11.738281 18.359375 -11.539062 18.453125 -11.28125 C 19.117188 -11.40625 19.65625 -11.484375 20.0625 -11.515625 C 20.476562 -11.554688 20.921875 -11.578125 21.390625 -11.578125 C 23.390625 -11.578125 24.390625 -11.066406 24.390625 -10.046875 C 24.390625 -9.523438 24.140625 -9.117188 23.640625 -8.828125 C 23.140625 -8.546875 22.421875 -8.40625 21.484375 -8.40625 C 21.304688 -8.40625 21.140625 -8.410156 20.984375 -8.421875 C 20.828125 -8.429688 20.65625 -8.445312 20.46875 -8.46875 C 20.28125 -8.488281 20.050781 -8.519531 19.78125 -8.5625 C 19.507812 -8.613281 19.15625 -8.6875 18.71875 -8.78125 C 18.382812 -8.625 18.085938 -8.476562 17.828125 -8.34375 C 17.578125 -8.207031 17.351562 -8.078125 17.15625 -7.953125 C 16.96875 -7.835938 16.789062 -7.71875 16.625 -7.59375 C 16.457031 -7.46875 16.285156 -7.328125 16.109375 -7.171875 C 15.710938 -6.773438 15.378906 -6.304688 15.109375 -5.765625 C 14.847656 -5.234375 14.71875 -4.734375 14.71875 -4.265625 C 14.71875 -3.691406 14.921875 -3.210938 15.328125 -2.828125 C 15.742188 -2.453125 16.257812 -2.265625 16.875 -2.265625 C 17.414062 -2.265625 17.875 -2.414062 18.25 -2.71875 C 18.625 -3.019531 18.8125 -3.394531 18.8125 -3.84375 C 18.8125 -4.457031 18.488281 -4.765625 17.84375 -4.765625 C 17.71875 -4.765625 17.628906 -4.753906 17.578125 -4.734375 C 17.472656 -4.710938 17.382812 -4.695312 17.3125 -4.6875 C 17.25 -4.675781 17.203125 -4.671875 17.171875 -4.671875 C 17.046875 -4.671875 16.929688 -4.722656 16.828125 -4.828125 C 16.734375 -4.941406 16.6875 -5.078125 16.6875 -5.234375 C 16.6875 -5.503906 16.828125 -5.78125 17.109375 -6.0625 C 17.398438 -6.351562 17.765625 -6.613281 18.203125 -6.84375 C 18.648438 -7.082031 19.144531 -7.273438 19.6875 -7.421875 C 20.238281 -7.566406 20.78125 -7.640625 21.3125 -7.640625 C 22.539062 -7.640625 23.515625 -7.273438 24.234375 -6.546875 C 24.960938 -5.828125 25.328125 -4.847656 25.328125 -3.609375 C 25.328125 -2.597656 25.070312 -1.65625 24.5625 -0.78125 C 24.0625 0.09375 23.367188 0.851562 22.484375 1.5 C 21.597656 2.144531 20.550781 2.648438 19.34375 3.015625 C 18.144531 3.378906 16.84375 3.5625 15.4375 3.5625 C 14.175781 3.5625 13.03125 3.410156 12 3.109375 C 10.976562 2.816406 10.101562 2.394531 9.375 1.84375 C 8.644531 1.300781 8.082031 0.644531 7.6875 -0.125 C 7.300781 -0.90625 7.109375 -1.765625 7.109375 -2.703125 C 7.109375 -4.035156 7.476562 -5.296875 8.21875 -6.484375 C 8.96875 -7.671875 9.972656 -8.601562 11.234375 -9.28125 C 11.523438 -9.4375 11.804688 -9.578125 12.078125 -9.703125 C 12.347656 -9.835938 12.632812 -9.960938 12.9375 -10.078125 C 13.25 -10.191406 13.578125 -10.304688 13.921875 -10.421875 C 14.273438 -10.546875 14.679688 -10.664062 15.140625 -10.78125 C 14.960938 -11.3125 14.835938 -11.722656 14.765625 -12.015625 C 14.703125 -12.316406 14.671875 -12.601562 14.671875 -12.875 C 14.671875 -13.207031 14.726562 -13.503906 14.84375 -13.765625 C 14.957031 -14.035156 15.160156 -14.363281 15.453125 -14.75 C 15.085938 -14.875 14.789062 -14.953125 14.5625 -14.984375 C 14.332031 -15.023438 14.082031 -15.046875 13.8125 -15.046875 C 13.125 -15.046875 12.554688 -14.890625 12.109375 -14.578125 C 11.660156 -14.265625 11.4375 -13.882812 11.4375 -13.4375 C 11.4375 -13.0625 11.570312 -12.785156 11.84375 -12.609375 C 11.957031 -12.515625 12.0625 -12.460938 12.15625 -12.453125 C 12.257812 -12.441406 12.546875 -12.4375 13.015625 -12.4375 C 13.367188 -12.4375 13.546875 -12.269531 13.546875 -11.9375 C 13.546875 -11.65625 13.394531 -11.375 13.09375 -11.09375 C 12.789062 -10.8125 12.394531 -10.554688 11.90625 -10.328125 C 11.414062 -10.109375 10.863281 -9.925781 10.25 -9.78125 C 9.644531 -9.644531 9.039062 -9.578125 8.4375 -9.578125 C 7.707031 -9.578125 7.039062 -9.6875 6.4375 -9.90625 C 5.832031 -10.125 5.3125 -10.425781 4.875 -10.8125 C 4.445312 -11.207031 4.113281 -11.675781 3.875 -12.21875 C 3.644531 -12.769531 3.53125 -13.367188 3.53125 -14.015625 C 3.53125 -14.835938 3.703125 -15.609375 4.046875 -16.328125 C 4.398438 -17.046875 4.878906 -17.671875 5.484375 -18.203125 C 6.097656 -18.742188 6.820312 -19.164062 7.65625 -19.46875 C 8.488281 -19.769531 9.375 -19.921875 10.3125 -19.921875 C 11.132812 -19.921875 11.984375 -19.789062 12.859375 -19.53125 C 13.734375 -19.28125 14.582031 -18.929688 15.40625 -18.484375 C 15.5625 -18.390625 15.710938 -18.296875 15.859375 -18.203125 C 16.003906 -18.117188 16.164062 -18.019531 16.34375 -17.90625 C 16.519531 -17.800781 16.722656 -17.675781 16.953125 -17.53125 C 17.191406 -17.382812 17.476562 -17.203125 17.8125 -16.984375 Z M 20.6875 -15.25 C 21.019531 -15.09375 21.296875 -14.960938 21.515625 -14.859375 C 21.742188 -14.765625 21.945312 -14.6875 22.125 -14.625 C 22.300781 -14.570312 22.457031 -14.535156 22.59375 -14.515625 C 22.738281 -14.492188 22.890625 -14.484375 23.046875 -14.484375 C 23.316406 -14.484375 23.53125 -14.535156 23.6875 -14.640625 C 23.84375 -14.753906 23.921875 -14.910156 23.921875 -15.109375 C 23.921875 -15.578125 23.507812 -15.8125 22.6875 -15.8125 C 22.300781 -15.8125 21.953125 -15.765625 21.640625 -15.671875 C 21.335938 -15.585938 21.019531 -15.445312 20.6875 -15.25 Z M 20.6875 -15.25 "/></g></g></g><g fill="#f2b3d6" fill-opacity="1"><g transform="translate(38.166442, 38.270482)"><g><path d="M 2.34375 -7.640625 C 2.382812 -7.796875 2.414062 -7.960938 2.4375 -8.140625 C 2.457031 -8.316406 2.46875 -8.460938 2.46875 -8.578125 C 2.46875 -8.910156 2.421875 -9.144531 2.328125 -9.28125 C 2.242188 -9.425781 2.078125 -9.554688 1.828125 -9.671875 C 2.453125 -10.222656 3.101562 -10.644531 3.78125 -10.9375 C 4.457031 -11.226562 5.097656 -11.375 5.703125 -11.375 C 6.816406 -11.375 7.40625 -10.804688 7.46875 -9.671875 C 7.875 -10.003906 8.25 -10.28125 8.59375 -10.5 C 8.9375 -10.726562 9.265625 -10.910156 9.578125 -11.046875 C 9.890625 -11.179688 10.1875 -11.28125 10.46875 -11.34375 C 10.757812 -11.40625 11.070312 -11.4375 11.40625 -11.4375 C 12.8125 -11.4375 13.679688 -10.847656 14.015625 -9.671875 C 14.765625 -10.273438 15.46875 -10.710938 16.125 -10.984375 C 16.78125 -11.265625 17.46875 -11.40625 18.1875 -11.40625 C 18.957031 -11.40625 19.59375 -11.1875 20.09375 -10.75 C 20.59375 -10.320312 20.84375 -9.765625 20.84375 -9.078125 C 20.84375 -8.804688 20.8125 -8.539062 20.75 -8.28125 L 19.953125 -4.53125 C 19.910156 -4.375 19.878906 -4.226562 19.859375 -4.09375 C 19.847656 -3.96875 19.84375 -3.867188 19.84375 -3.796875 C 19.84375 -3.515625 19.921875 -3.289062 20.078125 -3.125 C 20.234375 -2.957031 20.4375 -2.875 20.6875 -2.875 C 20.769531 -2.875 20.859375 -2.882812 20.953125 -2.90625 C 21.054688 -2.925781 21.15625 -2.957031 21.25 -3 C 21.644531 -3.132812 21.867188 -3.203125 21.921875 -3.203125 C 22.054688 -3.203125 22.164062 -3.148438 22.25 -3.046875 C 22.34375 -2.953125 22.390625 -2.828125 22.390625 -2.671875 C 22.390625 -2.316406 22.117188 -1.882812 21.578125 -1.375 C 21.003906 -0.851562 20.363281 -0.441406 19.65625 -0.140625 C 18.957031 0.148438 18.242188 0.296875 17.515625 0.296875 C 16.691406 0.296875 16.023438 0.0703125 15.515625 -0.375 C 15.003906 -0.832031 14.75 -1.410156 14.75 -2.109375 C 14.75 -2.304688 14.78125 -2.515625 14.84375 -2.734375 L 15.546875 -5.796875 C 15.609375 -5.984375 15.640625 -6.175781 15.640625 -6.375 C 15.640625 -6.96875 15.375 -7.265625 14.84375 -7.265625 C 14.445312 -7.265625 14.128906 -7.113281 13.890625 -6.8125 C 13.660156 -6.519531 13.46875 -6.03125 13.3125 -5.34375 L 12.609375 -2.03125 C 12.316406 -0.675781 11.59375 0 10.4375 0 L 9.203125 0 C 8.804688 0 8.484375 0.046875 8.234375 0.140625 C 7.992188 0.242188 7.675781 0.460938 7.28125 0.796875 L 8.734375 -5.796875 C 8.785156 -6.046875 8.8125 -6.296875 8.8125 -6.546875 C 8.8125 -7.054688 8.566406 -7.3125 8.078125 -7.3125 C 7.335938 -7.3125 6.820312 -6.65625 6.53125 -5.34375 L 5.796875 -2.03125 C 5.640625 -1.28125 5.382812 -0.753906 5.03125 -0.453125 C 4.675781 -0.148438 4.144531 0 3.4375 0 L 2.46875 0 C 2.019531 0 1.671875 0.046875 1.421875 0.140625 C 1.179688 0.242188 0.863281 0.460938 0.46875 0.796875 Z M 2.34375 -7.640625 "/></g></g></g><g fill="#f2b3d6" fill-opacity="1"><g transform="translate(59.08249, 38.270482)"><g><path d="M 6.96875 -10.25 C 7.59375 -10.664062 8.125 -10.953125 8.5625 -11.109375 C 9.007812 -11.265625 9.503906 -11.34375 10.046875 -11.34375 C 11.128906 -11.34375 12.007812 -11 12.6875 -10.3125 C 13.363281 -9.625 13.703125 -8.722656 13.703125 -7.609375 C 13.703125 -6.554688 13.484375 -5.546875 13.046875 -4.578125 C 12.617188 -3.617188 12.046875 -2.773438 11.328125 -2.046875 C 10.609375 -1.328125 9.769531 -0.75 8.8125 -0.3125 C 7.851562 0.113281 6.847656 0.328125 5.796875 0.328125 C 5.109375 0.328125 4.472656 0.222656 3.890625 0.015625 C 3.316406 -0.191406 2.820312 -0.472656 2.40625 -0.828125 C 2 -1.191406 1.675781 -1.625 1.4375 -2.125 C 1.207031 -2.625 1.09375 -3.179688 1.09375 -3.796875 C 1.09375 -4.023438 1.109375 -4.289062 1.140625 -4.59375 C 1.179688 -4.90625 1.234375 -5.226562 1.296875 -5.5625 L 3.234375 -14.78125 C 3.253906 -14.894531 3.269531 -15.007812 3.28125 -15.125 C 3.289062 -15.25 3.296875 -15.390625 3.296875 -15.546875 C 3.296875 -15.859375 3.25 -16.085938 3.15625 -16.234375 C 3.070312 -16.378906 2.890625 -16.515625 2.609375 -16.640625 C 3.179688 -17.160156 3.832031 -17.582031 4.5625 -17.90625 C 5.300781 -18.238281 5.960938 -18.40625 6.546875 -18.40625 C 7.035156 -18.40625 7.445312 -18.269531 7.78125 -18 C 8.113281 -17.738281 8.28125 -17.410156 8.28125 -17.015625 C 8.28125 -16.835938 8.253906 -16.632812 8.203125 -16.40625 Z M 7.765625 -8.3125 C 7.328125 -8.3125 6.945312 -8.097656 6.625 -7.671875 C 6.300781 -7.253906 6.140625 -6.773438 6.140625 -6.234375 C 6.140625 -5.953125 6.226562 -5.710938 6.40625 -5.515625 C 6.582031 -5.328125 6.804688 -5.234375 7.078125 -5.234375 C 7.515625 -5.234375 7.90625 -5.429688 8.25 -5.828125 C 8.59375 -6.234375 8.765625 -6.679688 8.765625 -7.171875 C 8.765625 -7.929688 8.429688 -8.3125 7.765625 -8.3125 Z M 7.765625 -8.3125 "/></g></g></g><g fill="#f2b3d6" fill-opacity="1"><g transform="translate(71.625811, 38.270482)"><g><path d="M 2.296875 -7.765625 C 2.328125 -7.898438 2.347656 -8.050781 2.359375 -8.21875 C 2.367188 -8.382812 2.375 -8.546875 2.375 -8.703125 C 2.375 -8.929688 2.328125 -9.109375 2.234375 -9.234375 C 2.148438 -9.367188 1.992188 -9.515625 1.765625 -9.671875 C 2.015625 -9.898438 2.304688 -10.117188 2.640625 -10.328125 C 2.972656 -10.535156 3.316406 -10.710938 3.671875 -10.859375 C 4.023438 -11.003906 4.375 -11.117188 4.71875 -11.203125 C 5.0625 -11.296875 5.378906 -11.34375 5.671875 -11.34375 C 6.179688 -11.34375 6.585938 -11.21875 6.890625 -10.96875 C 7.191406 -10.726562 7.34375 -10.394531 7.34375 -9.96875 C 7.34375 -9.863281 7.332031 -9.734375 7.3125 -9.578125 C 7.289062 -9.421875 7.265625 -9.195312 7.234375 -8.90625 C 7.523438 -9.175781 7.753906 -9.390625 7.921875 -9.546875 C 8.085938 -9.703125 8.226562 -9.832031 8.34375 -9.9375 C 8.457031 -10.050781 8.554688 -10.132812 8.640625 -10.1875 C 8.734375 -10.25 8.84375 -10.332031 8.96875 -10.4375 C 9.300781 -10.6875 9.6875 -10.882812 10.125 -11.03125 C 10.5625 -11.175781 10.976562 -11.25 11.375 -11.25 C 12.019531 -11.25 12.546875 -11.054688 12.953125 -10.671875 C 13.367188 -10.296875 13.578125 -9.796875 13.578125 -9.171875 C 13.578125 -8.722656 13.492188 -8.289062 13.328125 -7.875 C 13.160156 -7.46875 12.929688 -7.101562 12.640625 -6.78125 C 12.359375 -6.46875 12.035156 -6.21875 11.671875 -6.03125 C 11.316406 -5.851562 10.941406 -5.765625 10.546875 -5.765625 C 10.078125 -5.765625 9.664062 -5.898438 9.3125 -6.171875 C 8.957031 -6.441406 8.78125 -6.765625 8.78125 -7.140625 C 8.78125 -7.203125 8.785156 -7.269531 8.796875 -7.34375 C 8.804688 -7.425781 8.820312 -7.515625 8.84375 -7.609375 C 8.457031 -7.390625 8.125 -7.15625 7.84375 -6.90625 C 7.570312 -6.65625 7.328125 -6.367188 7.109375 -6.046875 C 6.898438 -5.722656 6.710938 -5.335938 6.546875 -4.890625 C 6.378906 -4.453125 6.210938 -3.929688 6.046875 -3.328125 L 5.796875 -2.109375 C 5.460938 -0.703125 4.707031 0 3.53125 0 L 2.375 0 C 2.039062 0 1.722656 0.0507812 1.421875 0.15625 C 1.117188 0.269531 0.800781 0.460938 0.46875 0.734375 Z M 2.296875 -7.765625 "/></g></g></g><g fill="#f2b3d6" fill-opacity="1"><g transform="translate(82.758984, 38.270482)"><g><path d="M 7.765625 -11.3125 C 9.265625 -11.3125 10.457031 -10.882812 11.34375 -10.03125 C 12.226562 -9.1875 12.671875 -8.035156 12.671875 -6.578125 C 12.671875 -5.617188 12.488281 -4.71875 12.125 -3.875 C 11.757812 -3.03125 11.257812 -2.300781 10.625 -1.6875 C 9.988281 -1.070312 9.242188 -0.582031 8.390625 -0.21875 C 7.535156 0.144531 6.617188 0.328125 5.640625 0.328125 C 4.171875 0.328125 3 -0.117188 2.125 -1.015625 C 1.257812 -1.921875 0.828125 -3.140625 0.828125 -4.671875 C 0.828125 -5.554688 1.007812 -6.398438 1.375 -7.203125 C 1.75 -8.003906 2.253906 -8.707031 2.890625 -9.3125 C 3.523438 -9.925781 4.265625 -10.410156 5.109375 -10.765625 C 5.953125 -11.128906 6.835938 -11.3125 7.765625 -11.3125 Z M 7.4375 -8.40625 C 7.019531 -8.40625 6.648438 -8.203125 6.328125 -7.796875 C 6.003906 -7.398438 5.84375 -6.945312 5.84375 -6.4375 C 5.84375 -6.082031 5.9375 -5.785156 6.125 -5.546875 C 6.3125 -5.316406 6.539062 -5.203125 6.8125 -5.203125 C 7.25 -5.203125 7.628906 -5.398438 7.953125 -5.796875 C 8.273438 -6.203125 8.4375 -6.671875 8.4375 -7.203125 C 8.4375 -7.554688 8.34375 -7.84375 8.15625 -8.0625 C 7.96875 -8.289062 7.726562 -8.40625 7.4375 -8.40625 Z M 7.4375 -8.40625 "/></g></g></g><g fill="#f2b3d6" fill-opacity="1"><g transform="translate(94.47971, 38.270482)"><g><path d="M 2.09375 -7.703125 C 2.1875 -8.148438 2.234375 -8.460938 2.234375 -8.640625 C 2.234375 -9.054688 2.007812 -9.390625 1.5625 -9.640625 C 2.925781 -10.773438 4.226562 -11.34375 5.46875 -11.34375 C 5.976562 -11.34375 6.382812 -11.210938 6.6875 -10.953125 C 6.988281 -10.703125 7.140625 -10.351562 7.140625 -9.90625 C 7.140625 -9.75 7.140625 -9.640625 7.140625 -9.578125 C 7.140625 -9.523438 7.117188 -9.445312 7.078125 -9.34375 L 6.078125 -4.671875 C 6.046875 -4.515625 6.019531 -4.367188 6 -4.234375 C 5.976562 -4.097656 5.96875 -3.976562 5.96875 -3.875 C 5.96875 -3.582031 6.046875 -3.347656 6.203125 -3.171875 C 6.359375 -2.992188 6.570312 -2.90625 6.84375 -2.90625 C 6.96875 -2.90625 7.078125 -2.921875 7.171875 -2.953125 C 7.265625 -2.984375 7.539062 -3.078125 8 -3.234375 L 8.109375 -3.234375 C 8.398438 -3.234375 8.546875 -3.066406 8.546875 -2.734375 C 8.546875 -2.398438 8.390625 -2.054688 8.078125 -1.703125 C 7.765625 -1.347656 7.367188 -1.023438 6.890625 -0.734375 C 6.410156 -0.441406 5.882812 -0.195312 5.3125 0 C 4.75 0.195312 4.210938 0.296875 3.703125 0.296875 C 2.921875 0.296875 2.269531 0.078125 1.75 -0.359375 C 1.226562 -0.804688 0.96875 -1.375 0.96875 -2.0625 C 0.96875 -2.351562 1 -2.632812 1.0625 -2.90625 Z M 5.96875 -16.90625 C 6.65625 -16.90625 7.203125 -16.722656 7.609375 -16.359375 C 8.023438 -15.992188 8.234375 -15.519531 8.234375 -14.9375 C 8.234375 -14.582031 8.144531 -14.242188 7.96875 -13.921875 C 7.789062 -13.609375 7.546875 -13.332031 7.234375 -13.09375 C 6.921875 -12.863281 6.5625 -12.675781 6.15625 -12.53125 C 5.757812 -12.382812 5.34375 -12.3125 4.90625 -12.3125 C 4.28125 -12.3125 3.78125 -12.488281 3.40625 -12.84375 C 3.03125 -13.195312 2.84375 -13.664062 2.84375 -14.25 C 2.84375 -14.601562 2.925781 -14.9375 3.09375 -15.25 C 3.257812 -15.5625 3.488281 -15.835938 3.78125 -16.078125 C 4.082031 -16.328125 4.414062 -16.523438 4.78125 -16.671875 C 5.15625 -16.828125 5.550781 -16.90625 5.96875 -16.90625 Z M 5.96875 -16.90625 "/></g></g></g><g fill="#f2b3d6" fill-opacity="1"><g transform="translate(101.558724, 38.270482)"><g><path d="M 10.515625 -14.875 C 10.554688 -15.03125 10.585938 -15.179688 10.609375 -15.328125 C 10.628906 -15.472656 10.640625 -15.601562 10.640625 -15.71875 C 10.640625 -15.976562 10.59375 -16.171875 10.5 -16.296875 C 10.414062 -16.421875 10.226562 -16.570312 9.9375 -16.75 C 10.78125 -17.375 11.476562 -17.804688 12.03125 -18.046875 C 12.59375 -18.285156 13.1875 -18.40625 13.8125 -18.40625 C 14.382812 -18.40625 14.820312 -18.265625 15.125 -17.984375 C 15.425781 -17.710938 15.578125 -17.320312 15.578125 -16.8125 C 15.578125 -16.726562 15.570312 -16.648438 15.5625 -16.578125 C 15.550781 -16.515625 15.535156 -16.4375 15.515625 -16.34375 L 12.9375 -4.640625 C 12.894531 -4.484375 12.863281 -4.335938 12.84375 -4.203125 C 12.820312 -4.066406 12.8125 -3.945312 12.8125 -3.84375 C 12.8125 -3.238281 13.097656 -2.9375 13.671875 -2.9375 C 13.828125 -2.9375 14.007812 -2.96875 14.21875 -3.03125 C 14.65625 -3.164062 14.898438 -3.234375 14.953125 -3.234375 C 15.097656 -3.234375 15.210938 -3.179688 15.296875 -3.078125 C 15.390625 -2.984375 15.4375 -2.859375 15.4375 -2.703125 C 15.4375 -2.390625 15.273438 -2.054688 14.953125 -1.703125 C 14.640625 -1.347656 14.238281 -1.023438 13.75 -0.734375 C 13.257812 -0.441406 12.726562 -0.195312 12.15625 0 C 11.59375 0.195312 11.046875 0.296875 10.515625 0.296875 C 9.816406 0.296875 9.226562 0.078125 8.75 -0.359375 C 8.28125 -0.804688 8.046875 -1.351562 8.046875 -2 C 8.046875 -2.113281 8.046875 -2.21875 8.046875 -2.3125 C 8.046875 -2.414062 8.054688 -2.535156 8.078125 -2.671875 C 7.253906 -1.597656 6.515625 -0.828125 5.859375 -0.359375 C 5.203125 0.0976562 4.503906 0.328125 3.765625 0.328125 C 2.859375 0.328125 2.140625 -0.0195312 1.609375 -0.71875 C 1.085938 -1.414062 0.828125 -2.351562 0.828125 -3.53125 C 0.828125 -4.46875 1 -5.414062 1.34375 -6.375 C 1.695312 -7.332031 2.195312 -8.207031 2.84375 -9 C 4.125 -10.539062 5.632812 -11.3125 7.375 -11.3125 C 7.882812 -11.3125 8.300781 -11.253906 8.625 -11.140625 C 8.945312 -11.035156 9.265625 -10.859375 9.578125 -10.609375 Z M 8 -8.375 C 7.5625 -8.375 7.164062 -8.160156 6.8125 -7.734375 C 6.46875 -7.316406 6.296875 -6.84375 6.296875 -6.3125 C 6.296875 -5.976562 6.378906 -5.707031 6.546875 -5.5 C 6.710938 -5.300781 6.941406 -5.203125 7.234375 -5.203125 C 7.441406 -5.203125 7.648438 -5.265625 7.859375 -5.390625 C 8.066406 -5.515625 8.25 -5.679688 8.40625 -5.890625 C 8.5625 -6.097656 8.6875 -6.328125 8.78125 -6.578125 C 8.882812 -6.835938 8.9375 -7.101562 8.9375 -7.375 C 8.9375 -7.644531 8.847656 -7.878906 8.671875 -8.078125 C 8.492188 -8.273438 8.269531 -8.375 8 -8.375 Z M 8 -8.375 "/></g></g></g><g fill="#f29849" fill-opacity="1"><g transform="translate(115.553415, 38.270482)"><g><path d="M 12.9375 -4.703125 C 12.8125 -4.191406 12.75 -3.847656 12.75 -3.671875 C 12.75 -3.453125 12.832031 -3.265625 13 -3.109375 C 13.164062 -2.953125 13.378906 -2.875 13.640625 -2.875 C 13.847656 -2.875 14.039062 -2.914062 14.21875 -3 C 14.632812 -3.113281 14.863281 -3.171875 14.90625 -3.171875 C 15.039062 -3.171875 15.15625 -3.117188 15.25 -3.015625 C 15.351562 -2.921875 15.40625 -2.796875 15.40625 -2.640625 C 15.40625 -2.328125 15.242188 -2 14.921875 -1.65625 C 14.597656 -1.3125 14.191406 -0.992188 13.703125 -0.703125 C 13.210938 -0.410156 12.675781 -0.164062 12.09375 0.03125 C 11.519531 0.226562 10.976562 0.328125 10.46875 0.328125 C 9.78125 0.328125 9.207031 0.101562 8.75 -0.34375 C 8.300781 -0.800781 8.078125 -1.375 8.078125 -2.0625 C 8.078125 -2.15625 8.078125 -2.253906 8.078125 -2.359375 C 8.078125 -2.472656 8.085938 -2.597656 8.109375 -2.734375 C 7.859375 -2.421875 7.65625 -2.164062 7.5 -1.96875 C 7.34375 -1.769531 7.203125 -1.601562 7.078125 -1.46875 C 6.960938 -1.332031 6.847656 -1.210938 6.734375 -1.109375 C 6.628906 -1.015625 6.519531 -0.910156 6.40625 -0.796875 C 6.03125 -0.421875 5.609375 -0.132812 5.140625 0.0625 C 4.671875 0.269531 4.234375 0.375 3.828125 0.375 C 2.941406 0.375 2.21875 0.015625 1.65625 -0.703125 C 1.101562 -1.429688 0.828125 -2.363281 0.828125 -3.5 C 0.828125 -4.476562 1.007812 -5.4375 1.375 -6.375 C 1.75 -7.3125 2.234375 -8.148438 2.828125 -8.890625 C 3.429688 -9.628906 4.117188 -10.21875 4.890625 -10.65625 C 5.660156 -11.09375 6.457031 -11.3125 7.28125 -11.3125 C 8.4375 -11.3125 9.390625 -10.890625 10.140625 -10.046875 C 10.492188 -10.304688 10.796875 -10.515625 11.046875 -10.671875 C 11.304688 -10.828125 11.53125 -10.945312 11.71875 -11.03125 C 11.914062 -11.125 12.097656 -11.179688 12.265625 -11.203125 C 12.429688 -11.234375 12.613281 -11.25 12.8125 -11.25 C 13.207031 -11.25 13.523438 -11.144531 13.765625 -10.9375 C 14.015625 -10.738281 14.128906 -10.484375 14.109375 -10.171875 C 14.109375 -9.972656 14.078125 -9.773438 14.015625 -9.578125 Z M 8.03125 -8.265625 C 7.59375 -8.265625 7.210938 -8.070312 6.890625 -7.6875 C 6.566406 -7.300781 6.40625 -6.863281 6.40625 -6.375 C 6.40625 -5.632812 6.726562 -5.265625 7.375 -5.265625 C 7.570312 -5.265625 7.765625 -5.320312 7.953125 -5.4375 C 8.140625 -5.550781 8.304688 -5.707031 8.453125 -5.90625 C 8.597656 -6.101562 8.710938 -6.320312 8.796875 -6.5625 C 8.890625 -6.8125 8.9375 -7.070312 8.9375 -7.34375 C 8.9375 -7.957031 8.632812 -8.265625 8.03125 -8.265625 Z M 8.03125 -8.265625 "/></g></g></g><g fill="#f29849" fill-opacity="1"><g transform="translate(129.44813, 38.270482)"><g><path d="M 2.296875 -7.765625 C 2.328125 -7.898438 2.347656 -8.050781 2.359375 -8.21875 C 2.367188 -8.382812 2.375 -8.546875 2.375 -8.703125 C 2.375 -8.929688 2.328125 -9.109375 2.234375 -9.234375 C 2.148438 -9.367188 1.992188 -9.515625 1.765625 -9.671875 C 2.015625 -9.898438 2.304688 -10.117188 2.640625 -10.328125 C 2.972656 -10.535156 3.316406 -10.710938 3.671875 -10.859375 C 4.023438 -11.003906 4.375 -11.117188 4.71875 -11.203125 C 5.0625 -11.296875 5.378906 -11.34375 5.671875 -11.34375 C 6.179688 -11.34375 6.585938 -11.21875 6.890625 -10.96875 C 7.191406 -10.726562 7.34375 -10.394531 7.34375 -9.96875 C 7.34375 -9.863281 7.332031 -9.734375 7.3125 -9.578125 C 7.289062 -9.421875 7.265625 -9.195312 7.234375 -8.90625 C 7.523438 -9.175781 7.753906 -9.390625 7.921875 -9.546875 C 8.085938 -9.703125 8.226562 -9.832031 8.34375 -9.9375 C 8.457031 -10.050781 8.554688 -10.132812 8.640625 -10.1875 C 8.734375 -10.25 8.84375 -10.332031 8.96875 -10.4375 C 9.300781 -10.6875 9.6875 -10.882812 10.125 -11.03125 C 10.5625 -11.175781 10.976562 -11.25 11.375 -11.25 C 12.019531 -11.25 12.546875 -11.054688 12.953125 -10.671875 C 13.367188 -10.296875 13.578125 -9.796875 13.578125 -9.171875 C 13.578125 -8.722656 13.492188 -8.289062 13.328125 -7.875 C 13.160156 -7.46875 12.929688 -7.101562 12.640625 -6.78125 C 12.359375 -6.46875 12.035156 -6.21875 11.671875 -6.03125 C 11.316406 -5.851562 10.941406 -5.765625 10.546875 -5.765625 C 10.078125 -5.765625 9.664062 -5.898438 9.3125 -6.171875 C 8.957031 -6.441406 8.78125 -6.765625 8.78125 -7.140625 C 8.78125 -7.203125 8.785156 -7.269531 8.796875 -7.34375 C 8.804688 -7.425781 8.820312 -7.515625 8.84375 -7.609375 C 8.457031 -7.390625 8.125 -7.15625 7.84375 -6.90625 C 7.570312 -6.65625 7.328125 -6.367188 7.109375 -6.046875 C 6.898438 -5.722656 6.710938 -5.335938 6.546875 -4.890625 C 6.378906 -4.453125 6.210938 -3.929688 6.046875 -3.328125 L 5.796875 -2.109375 C 5.460938 -0.703125 4.707031 0 3.53125 0 L 2.375 0 C 2.039062 0 1.722656 0.0507812 1.421875 0.15625 C 1.117188 0.269531 0.800781 0.460938 0.46875 0.734375 Z M 2.296875 -7.765625 "/></g></g></g><g fill="#f29849" fill-opacity="1"><g transform="translate(140.581304, 38.270482)"><g><path d="M 12.3125 -1.328125 C 12.082031 -0.203125 11.765625 0.742188 11.359375 1.515625 C 10.953125 2.285156 10.410156 3.003906 9.734375 3.671875 C 8.921875 4.421875 8.03125 5 7.0625 5.40625 C 6.09375 5.820312 5.082031 6.03125 4.03125 6.03125 C 2.789062 6.03125 1.800781 5.75 1.0625 5.1875 C 0.332031 4.625 -0.03125 3.875 -0.03125 2.9375 C -0.03125 2.3125 0.109375 1.789062 0.390625 1.375 C 0.679688 0.96875 1.195312 0.554688 1.9375 0.140625 C 2.207031 1.335938 2.953125 1.9375 4.171875 1.9375 C 4.953125 1.9375 5.644531 1.644531 6.25 1.0625 C 6.863281 0.488281 7.316406 -0.304688 7.609375 -1.328125 C 6.804688 -0.796875 6.117188 -0.414062 5.546875 -0.1875 C 4.984375 0.03125 4.410156 0.140625 3.828125 0.140625 C 3.003906 0.140625 2.34375 -0.0859375 1.84375 -0.546875 C 1.351562 -1.003906 1.109375 -1.601562 1.109375 -2.34375 C 1.109375 -2.675781 1.160156 -3.085938 1.265625 -3.578125 L 2.203125 -7.875 C 2.265625 -8.132812 2.296875 -8.390625 2.296875 -8.640625 C 2.296875 -8.859375 2.253906 -9.03125 2.171875 -9.15625 C 2.097656 -9.28125 1.910156 -9.472656 1.609375 -9.734375 C 2.429688 -10.359375 3.148438 -10.796875 3.765625 -11.046875 C 4.390625 -11.304688 5.023438 -11.4375 5.671875 -11.4375 C 6.117188 -11.4375 6.5 -11.289062 6.8125 -11 C 7.125 -10.71875 7.28125 -10.375 7.28125 -9.96875 C 7.28125 -9.8125 7.253906 -9.582031 7.203125 -9.28125 L 6.375 -5.46875 C 6.320312 -5.226562 6.296875 -5.003906 6.296875 -4.796875 C 6.296875 -4.554688 6.375 -4.359375 6.53125 -4.203125 C 6.6875 -4.046875 6.867188 -3.96875 7.078125 -3.96875 C 7.296875 -3.96875 7.507812 -4.023438 7.71875 -4.140625 C 7.925781 -4.265625 8.097656 -4.429688 8.234375 -4.640625 C 8.304688 -4.742188 8.367188 -4.875 8.421875 -5.03125 C 8.472656 -5.1875 8.535156 -5.421875 8.609375 -5.734375 L 9.109375 -7.875 C 9.148438 -8.007812 9.179688 -8.148438 9.203125 -8.296875 C 9.222656 -8.441406 9.234375 -8.566406 9.234375 -8.671875 C 9.234375 -8.921875 9.1875 -9.117188 9.09375 -9.265625 C 9.007812 -9.421875 8.847656 -9.578125 8.609375 -9.734375 C 9.941406 -10.828125 11.195312 -11.375 12.375 -11.375 C 12.882812 -11.375 13.296875 -11.238281 13.609375 -10.96875 C 13.921875 -10.707031 14.078125 -10.363281 14.078125 -9.9375 C 14.078125 -9.800781 14.078125 -9.6875 14.078125 -9.59375 C 14.078125 -9.507812 14.054688 -9.40625 14.015625 -9.28125 Z M 12.3125 -1.328125 "/></g></g></g><path fill="#f285c1" d="M 124.035156 46.902344 C 124.128906 47.226562 124.191406 47.558594 124.21875 47.894531 C 124.25 48.230469 124.246094 48.5625 124.210938 48.898438 C 124.175781 49.234375 124.109375 49.5625 124.007812 49.886719 C 123.910156 50.207031 123.78125 50.515625 123.621094 50.8125 C 123.460938 51.109375 123.273438 51.390625 123.058594 51.648438 C 122.84375 51.910156 122.605469 52.148438 122.347656 52.359375 C 122.085938 52.574219 121.808594 52.761719 121.511719 52.921875 C 121.214844 53.082031 120.902344 53.210938 120.582031 53.308594 C 107.472656 56.921875 94.125 58.96875 80.539062 59.457031 C 80.203125 59.457031 79.867188 59.429688 79.535156 59.363281 C 79.207031 59.300781 78.882812 59.207031 78.570312 59.082031 C 78.257812 58.957031 77.960938 58.800781 77.675781 58.617188 C 77.394531 58.433594 77.132812 58.222656 76.890625 57.988281 C 76.648438 57.753906 76.433594 57.496094 76.242188 57.21875 C 76.050781 56.941406 75.886719 56.648438 75.753906 56.339844 C 75.617188 56.027344 75.515625 55.710938 75.441406 55.378906 C 75.371094 55.050781 75.332031 54.71875 75.324219 54.382812 C 75.316406 54.039062 75.34375 53.695312 75.402344 53.359375 C 75.464844 53.019531 75.558594 52.691406 75.683594 52.371094 C 75.808594 52.050781 75.964844 51.746094 76.152344 51.457031 C 76.339844 51.167969 76.550781 50.898438 76.789062 50.652344 C 77.03125 50.40625 77.292969 50.1875 77.574219 49.992188 C 77.859375 49.796875 78.160156 49.632812 78.476562 49.5 C 78.792969 49.363281 79.117188 49.261719 79.457031 49.191406 C 79.792969 49.121094 80.132812 49.085938 80.476562 49.082031 C 93.046875 48.609375 105.398438 46.714844 117.53125 43.394531 C 117.859375 43.292969 118.195312 43.226562 118.535156 43.191406 C 118.878906 43.15625 119.21875 43.15625 119.5625 43.191406 C 119.90625 43.226562 120.242188 43.292969 120.570312 43.390625 C 120.898438 43.492188 121.214844 43.625 121.515625 43.789062 C 121.820312 43.949219 122.101562 44.140625 122.367188 44.363281 C 122.632812 44.582031 122.871094 44.824219 123.089844 45.09375 C 123.304688 45.359375 123.492188 45.644531 123.652344 45.953125 C 123.808594 46.257812 123.9375 46.574219 124.035156 46.902344 Z M 124.035156 46.902344 " fill-opacity="1" fill-rule="nonzero"/><g fill="#f2dceb" fill-opacity="1"><g transform="translate(78.984025, 55.937142)"><g><path d="M 0.609375 -3.859375 L 2.4375 -3.921875 C 2.53125 -3.921875 2.609375 -3.890625 2.671875 -3.828125 C 2.734375 -3.773438 2.769531 -3.703125 2.78125 -3.609375 C 2.78125 -3.523438 2.75 -3.453125 2.6875 -3.390625 C 2.625 -3.328125 2.546875 -3.296875 2.453125 -3.296875 L 0.921875 -3.234375 L 0.96875 -3.34375 L 1.015625 -2.265625 L 0.96875 -2.296875 L 2.25 -2.359375 C 2.34375 -2.359375 2.421875 -2.328125 2.484375 -2.265625 C 2.546875 -2.210938 2.578125 -2.140625 2.578125 -2.046875 C 2.585938 -1.953125 2.5625 -1.875 2.5 -1.8125 C 2.4375 -1.757812 2.359375 -1.734375 2.265625 -1.734375 L 1 -1.6875 L 1.03125 -1.734375 L 1.078125 -0.625 L 1.03125 -0.65625 L 2.5625 -0.71875 C 2.65625 -0.71875 2.734375 -0.6875 2.796875 -0.625 C 2.859375 -0.570312 2.890625 -0.503906 2.890625 -0.421875 C 2.898438 -0.328125 2.875 -0.25 2.8125 -0.1875 C 2.75 -0.125 2.671875 -0.09375 2.578125 -0.09375 L 0.75 -0.03125 C 0.65625 -0.0195312 0.570312 -0.046875 0.5 -0.109375 C 0.4375 -0.171875 0.398438 -0.25 0.390625 -0.34375 L 0.28125 -3.515625 C 0.269531 -3.609375 0.296875 -3.6875 0.359375 -3.75 C 0.429688 -3.8125 0.515625 -3.847656 0.609375 -3.859375 Z M 0.609375 -3.859375 "/></g></g></g><g fill="#f2dceb" fill-opacity="1"><g transform="translate(81.866375, 55.843837)"><g><path d="M 1.71875 -3.09375 C 2.007812 -3.113281 2.226562 -3.054688 2.375 -2.921875 C 2.519531 -2.785156 2.625 -2.609375 2.6875 -2.390625 L 2.578125 -2.4375 L 2.625 -2.53125 C 2.664062 -2.613281 2.722656 -2.707031 2.796875 -2.8125 C 2.878906 -2.914062 2.984375 -3.003906 3.109375 -3.078125 C 3.242188 -3.148438 3.394531 -3.191406 3.5625 -3.203125 C 3.820312 -3.222656 4.019531 -3.175781 4.15625 -3.0625 C 4.289062 -2.957031 4.390625 -2.8125 4.453125 -2.625 C 4.515625 -2.445312 4.550781 -2.242188 4.5625 -2.015625 L 4.65625 -0.609375 C 4.65625 -0.515625 4.625 -0.429688 4.5625 -0.359375 C 4.507812 -0.296875 4.441406 -0.265625 4.359375 -0.265625 C 4.265625 -0.253906 4.179688 -0.273438 4.109375 -0.328125 C 4.046875 -0.390625 4.015625 -0.46875 4.015625 -0.5625 L 3.921875 -1.96875 C 3.921875 -2.09375 3.898438 -2.203125 3.859375 -2.296875 C 3.828125 -2.390625 3.769531 -2.460938 3.6875 -2.515625 C 3.613281 -2.566406 3.503906 -2.585938 3.359375 -2.578125 C 3.222656 -2.578125 3.109375 -2.539062 3.015625 -2.46875 C 2.921875 -2.40625 2.847656 -2.328125 2.796875 -2.234375 C 2.753906 -2.140625 2.734375 -2.03125 2.734375 -1.90625 L 2.828125 -0.5 C 2.828125 -0.40625 2.796875 -0.320312 2.734375 -0.25 C 2.679688 -0.1875 2.609375 -0.15625 2.515625 -0.15625 C 2.421875 -0.144531 2.335938 -0.164062 2.265625 -0.21875 C 2.203125 -0.28125 2.171875 -0.359375 2.171875 -0.453125 L 2.078125 -1.859375 C 2.078125 -1.984375 2.0625 -2.09375 2.03125 -2.1875 C 2 -2.28125 1.941406 -2.351562 1.859375 -2.40625 C 1.773438 -2.457031 1.660156 -2.476562 1.515625 -2.46875 C 1.378906 -2.46875 1.265625 -2.429688 1.171875 -2.359375 C 1.078125 -2.296875 1.007812 -2.21875 0.96875 -2.125 C 0.925781 -2.03125 0.90625 -1.921875 0.90625 -1.796875 L 1 -0.390625 C 1 -0.296875 0.96875 -0.210938 0.90625 -0.140625 C 0.851562 -0.078125 0.78125 -0.046875 0.6875 -0.046875 C 0.59375 -0.0351562 0.507812 -0.0546875 0.4375 -0.109375 C 0.375 -0.171875 0.34375 -0.25 0.34375 -0.34375 L 0.203125 -2.609375 C 0.203125 -2.703125 0.226562 -2.78125 0.28125 -2.84375 C 0.34375 -2.914062 0.421875 -2.957031 0.515625 -2.96875 C 0.609375 -2.96875 0.6875 -2.9375 0.75 -2.875 C 0.820312 -2.820312 0.859375 -2.75 0.859375 -2.65625 L 0.875 -2.421875 L 0.796875 -2.4375 C 0.828125 -2.5 0.867188 -2.566406 0.921875 -2.640625 C 0.972656 -2.710938 1.035156 -2.78125 1.109375 -2.84375 C 1.191406 -2.90625 1.285156 -2.960938 1.390625 -3.015625 C 1.492188 -3.066406 1.601562 -3.09375 1.71875 -3.09375 Z M 1.71875 -3.09375 "/></g></g></g><g fill="#f2dceb" fill-opacity="1"><g transform="translate(86.655547, 55.551877)"><g><path d="M 1.625 -3.125 C 1.875 -3.144531 2.101562 -3.097656 2.3125 -2.984375 C 2.519531 -2.867188 2.691406 -2.707031 2.828125 -2.5 C 2.972656 -2.289062 3.054688 -2.035156 3.078125 -1.734375 C 3.109375 -1.429688 3.070312 -1.160156 2.96875 -0.921875 C 2.863281 -0.679688 2.71875 -0.488281 2.53125 -0.34375 C 2.34375 -0.195312 2.128906 -0.113281 1.890625 -0.09375 C 1.742188 -0.0820312 1.609375 -0.0976562 1.484375 -0.140625 C 1.359375 -0.179688 1.238281 -0.234375 1.125 -0.296875 C 1.019531 -0.359375 0.9375 -0.421875 0.875 -0.484375 C 0.820312 -0.554688 0.796875 -0.617188 0.796875 -0.671875 L 0.953125 -0.75 L 1 -0.359375 C 1 -0.265625 0.96875 -0.179688 0.90625 -0.109375 C 0.851562 -0.0351562 0.78125 0 0.6875 0 C 0.59375 0.0078125 0.507812 -0.0078125 0.4375 -0.0625 C 0.375 -0.125 0.34375 -0.207031 0.34375 -0.3125 L 0.046875 -3.734375 C 0.046875 -3.828125 0.0703125 -3.90625 0.125 -3.96875 C 0.1875 -4.039062 0.265625 -4.082031 0.359375 -4.09375 C 0.453125 -4.09375 0.53125 -4.0625 0.59375 -4 C 0.664062 -3.945312 0.703125 -3.875 0.703125 -3.78125 L 0.828125 -2.390625 L 0.71875 -2.4375 C 0.71875 -2.476562 0.738281 -2.535156 0.78125 -2.609375 C 0.832031 -2.679688 0.894531 -2.753906 0.96875 -2.828125 C 1.050781 -2.898438 1.144531 -2.960938 1.25 -3.015625 C 1.363281 -3.078125 1.488281 -3.113281 1.625 -3.125 Z M 1.578125 -2.5 C 1.421875 -2.488281 1.285156 -2.441406 1.171875 -2.359375 C 1.066406 -2.273438 0.984375 -2.160156 0.921875 -2.015625 C 0.867188 -1.878906 0.847656 -1.722656 0.859375 -1.546875 C 0.878906 -1.367188 0.925781 -1.210938 1 -1.078125 C 1.082031 -0.941406 1.1875 -0.835938 1.3125 -0.765625 C 1.4375 -0.703125 1.578125 -0.675781 1.734375 -0.6875 C 1.898438 -0.707031 2.035156 -0.757812 2.140625 -0.84375 C 2.253906 -0.9375 2.335938 -1.054688 2.390625 -1.203125 C 2.453125 -1.347656 2.472656 -1.507812 2.453125 -1.6875 C 2.441406 -1.863281 2.394531 -2.015625 2.3125 -2.140625 C 2.238281 -2.273438 2.140625 -2.375 2.015625 -2.4375 C 1.890625 -2.5 1.742188 -2.519531 1.578125 -2.5 Z M 1.578125 -2.5 "/></g></g></g><g fill="#f2dceb" fill-opacity="1"><g transform="translate(89.822838, 55.286454)"><g><path d="M 0.6875 -0.0625 C 0.59375 -0.0507812 0.507812 -0.0703125 0.4375 -0.125 C 0.375 -0.1875 0.335938 -0.265625 0.328125 -0.359375 L 0.109375 -2.609375 C 0.0976562 -2.703125 0.117188 -2.78125 0.171875 -2.84375 C 0.234375 -2.914062 0.3125 -2.957031 0.40625 -2.96875 C 0.5 -2.976562 0.578125 -2.953125 0.640625 -2.890625 C 0.710938 -2.835938 0.753906 -2.765625 0.765625 -2.671875 L 0.8125 -2.15625 L 0.734375 -2.515625 C 0.765625 -2.609375 0.804688 -2.691406 0.859375 -2.765625 C 0.921875 -2.847656 0.988281 -2.914062 1.0625 -2.96875 C 1.144531 -3.019531 1.222656 -3.0625 1.296875 -3.09375 C 1.378906 -3.125 1.46875 -3.144531 1.5625 -3.15625 C 1.675781 -3.164062 1.769531 -3.140625 1.84375 -3.078125 C 1.925781 -3.023438 1.972656 -2.957031 1.984375 -2.875 C 1.992188 -2.75 1.96875 -2.65625 1.90625 -2.59375 C 1.851562 -2.539062 1.789062 -2.507812 1.71875 -2.5 C 1.644531 -2.5 1.582031 -2.507812 1.53125 -2.53125 C 1.476562 -2.550781 1.421875 -2.554688 1.359375 -2.546875 C 1.285156 -2.535156 1.210938 -2.507812 1.140625 -2.46875 C 1.078125 -2.4375 1.019531 -2.382812 0.96875 -2.3125 C 0.925781 -2.238281 0.894531 -2.148438 0.875 -2.046875 C 0.851562 -1.953125 0.847656 -1.835938 0.859375 -1.703125 L 0.984375 -0.421875 C 0.992188 -0.328125 0.96875 -0.242188 0.90625 -0.171875 C 0.851562 -0.109375 0.78125 -0.0703125 0.6875 -0.0625 Z M 0.6875 -0.0625 "/></g></g></g><g fill="#f2dceb" fill-opacity="1"><g transform="translate(91.931193, 55.084184)"><g><path d="M 3 -1.796875 C 3.039062 -1.515625 3.007812 -1.25 2.90625 -1 C 2.800781 -0.757812 2.640625 -0.5625 2.421875 -0.40625 C 2.210938 -0.25 1.96875 -0.15625 1.6875 -0.125 C 1.414062 -0.09375 1.164062 -0.128906 0.9375 -0.234375 C 0.707031 -0.347656 0.507812 -0.507812 0.34375 -0.71875 C 0.1875 -0.9375 0.0859375 -1.1875 0.046875 -1.46875 C 0.015625 -1.769531 0.0507812 -2.039062 0.15625 -2.28125 C 0.269531 -2.53125 0.425781 -2.726562 0.625 -2.875 C 0.832031 -3.03125 1.070312 -3.125 1.34375 -3.15625 C 1.625 -3.1875 1.882812 -3.148438 2.125 -3.046875 C 2.363281 -2.941406 2.5625 -2.78125 2.71875 -2.5625 C 2.875 -2.351562 2.96875 -2.097656 3 -1.796875 Z M 2.34375 -1.71875 C 2.320312 -1.90625 2.265625 -2.066406 2.171875 -2.203125 C 2.085938 -2.335938 1.976562 -2.429688 1.84375 -2.484375 C 1.71875 -2.546875 1.578125 -2.566406 1.421875 -2.546875 C 1.273438 -2.535156 1.140625 -2.484375 1.015625 -2.390625 C 0.898438 -2.304688 0.8125 -2.1875 0.75 -2.03125 C 0.695312 -1.882812 0.679688 -1.71875 0.703125 -1.53125 C 0.722656 -1.363281 0.773438 -1.21875 0.859375 -1.09375 C 0.953125 -0.96875 1.066406 -0.875 1.203125 -0.8125 C 1.335938 -0.75 1.476562 -0.722656 1.625 -0.734375 C 1.78125 -0.753906 1.914062 -0.8125 2.03125 -0.90625 C 2.144531 -1 2.226562 -1.113281 2.28125 -1.25 C 2.34375 -1.394531 2.363281 -1.550781 2.34375 -1.71875 Z M 2.34375 -1.71875 "/></g></g></g><g fill="#f2dceb" fill-opacity="1"><g transform="translate(95.061456, 54.721148)"><g><path d="M 0.921875 -0.453125 C 0.929688 -0.359375 0.910156 -0.273438 0.859375 -0.203125 C 0.804688 -0.128906 0.734375 -0.0859375 0.640625 -0.078125 C 0.546875 -0.0664062 0.460938 -0.0859375 0.390625 -0.140625 C 0.316406 -0.203125 0.273438 -0.28125 0.265625 -0.375 L -0.015625 -2.625 C -0.0234375 -2.71875 -0.00390625 -2.796875 0.046875 -2.859375 C 0.0976562 -2.929688 0.171875 -2.972656 0.265625 -2.984375 C 0.359375 -2.992188 0.441406 -2.972656 0.515625 -2.921875 C 0.585938 -2.867188 0.628906 -2.796875 0.640625 -2.703125 Z M 0.234375 -3.328125 C 0.109375 -3.316406 0.0195312 -3.328125 -0.03125 -3.359375 C -0.0820312 -3.398438 -0.117188 -3.472656 -0.140625 -3.578125 L -0.140625 -3.671875 C -0.160156 -3.773438 -0.144531 -3.847656 -0.09375 -3.890625 C -0.0507812 -3.941406 0.03125 -3.972656 0.15625 -3.984375 C 0.28125 -4.003906 0.367188 -3.992188 0.421875 -3.953125 C 0.472656 -3.921875 0.507812 -3.851562 0.53125 -3.75 L 0.53125 -3.65625 C 0.550781 -3.539062 0.535156 -3.460938 0.484375 -3.421875 C 0.441406 -3.378906 0.359375 -3.347656 0.234375 -3.328125 Z M 0.234375 -3.328125 "/></g></g></g><g fill="#f2dceb" fill-opacity="1"><g transform="translate(96.085059, 54.599576)"><g><path d="M 2.15625 -4.390625 C 2.25 -4.410156 2.332031 -4.390625 2.40625 -4.328125 C 2.476562 -4.273438 2.519531 -4.203125 2.53125 -4.109375 L 3 -0.75 C 3.007812 -0.65625 2.988281 -0.570312 2.9375 -0.5 C 2.882812 -0.4375 2.8125 -0.394531 2.71875 -0.375 C 2.625 -0.363281 2.539062 -0.382812 2.46875 -0.4375 C 2.40625 -0.488281 2.367188 -0.5625 2.359375 -0.65625 L 2.328125 -0.9375 L 2.4375 -0.890625 C 2.445312 -0.847656 2.429688 -0.789062 2.390625 -0.71875 C 2.359375 -0.644531 2.300781 -0.566406 2.21875 -0.484375 C 2.132812 -0.410156 2.035156 -0.34375 1.921875 -0.28125 C 1.816406 -0.21875 1.695312 -0.175781 1.5625 -0.15625 C 1.3125 -0.113281 1.078125 -0.144531 0.859375 -0.25 C 0.640625 -0.351562 0.453125 -0.507812 0.296875 -0.71875 C 0.148438 -0.925781 0.0546875 -1.175781 0.015625 -1.46875 C -0.0234375 -1.769531 -0.00390625 -2.039062 0.078125 -2.28125 C 0.171875 -2.519531 0.304688 -2.71875 0.484375 -2.875 C 0.660156 -3.03125 0.875 -3.128906 1.125 -3.171875 C 1.28125 -3.191406 1.425781 -3.1875 1.5625 -3.15625 C 1.695312 -3.125 1.816406 -3.078125 1.921875 -3.015625 C 2.023438 -2.960938 2.109375 -2.898438 2.171875 -2.828125 C 2.234375 -2.765625 2.269531 -2.707031 2.28125 -2.65625 L 2.09375 -2.5625 L 1.890625 -4.015625 C 1.878906 -4.109375 1.894531 -4.191406 1.9375 -4.265625 C 1.988281 -4.335938 2.0625 -4.378906 2.15625 -4.390625 Z M 1.546875 -0.765625 C 1.710938 -0.796875 1.847656 -0.859375 1.953125 -0.953125 C 2.066406 -1.046875 2.144531 -1.164062 2.1875 -1.3125 C 2.226562 -1.457031 2.238281 -1.613281 2.21875 -1.78125 C 2.195312 -1.957031 2.144531 -2.109375 2.0625 -2.234375 C 1.976562 -2.367188 1.867188 -2.46875 1.734375 -2.53125 C 1.609375 -2.59375 1.460938 -2.609375 1.296875 -2.578125 C 1.140625 -2.554688 1.003906 -2.5 0.890625 -2.40625 C 0.785156 -2.3125 0.707031 -2.1875 0.65625 -2.03125 C 0.613281 -1.882812 0.601562 -1.722656 0.625 -1.546875 C 0.644531 -1.378906 0.695312 -1.234375 0.78125 -1.109375 C 0.875 -0.984375 0.984375 -0.890625 1.109375 -0.828125 C 1.242188 -0.765625 1.390625 -0.742188 1.546875 -0.765625 Z M 1.546875 -0.765625 "/></g></g></g><g fill="#f2dceb" fill-opacity="1"><g transform="translate(99.237293, 54.161591)"><g><path d="M 1.734375 -0.203125 C 1.421875 -0.160156 1.140625 -0.1875 0.890625 -0.28125 C 0.648438 -0.375 0.453125 -0.519531 0.296875 -0.71875 C 0.140625 -0.914062 0.0390625 -1.15625 0 -1.4375 C -0.0507812 -1.757812 -0.03125 -2.046875 0.0625 -2.296875 C 0.164062 -2.546875 0.3125 -2.75 0.5 -2.90625 C 0.6875 -3.070312 0.898438 -3.171875 1.140625 -3.203125 C 1.328125 -3.234375 1.507812 -3.222656 1.6875 -3.171875 C 1.863281 -3.117188 2.019531 -3.035156 2.15625 -2.921875 C 2.300781 -2.816406 2.425781 -2.679688 2.53125 -2.515625 C 2.644531 -2.359375 2.71875 -2.179688 2.75 -1.984375 C 2.75 -1.898438 2.722656 -1.820312 2.671875 -1.75 C 2.617188 -1.6875 2.546875 -1.648438 2.453125 -1.640625 L 0.390625 -1.3125 L 0.140625 -1.828125 L 2.109375 -2.140625 L 2.015625 -2.015625 L 2 -2.171875 C 1.96875 -2.265625 1.910156 -2.347656 1.828125 -2.421875 C 1.753906 -2.492188 1.664062 -2.546875 1.5625 -2.578125 C 1.457031 -2.609375 1.347656 -2.613281 1.234375 -2.59375 C 1.117188 -2.570312 1.015625 -2.539062 0.921875 -2.5 C 0.835938 -2.46875 0.765625 -2.410156 0.703125 -2.328125 C 0.648438 -2.242188 0.613281 -2.140625 0.59375 -2.015625 C 0.570312 -1.898438 0.570312 -1.753906 0.59375 -1.578125 C 0.625 -1.378906 0.691406 -1.21875 0.796875 -1.09375 C 0.898438 -0.976562 1.023438 -0.894531 1.171875 -0.84375 C 1.316406 -0.800781 1.460938 -0.789062 1.609375 -0.8125 C 1.742188 -0.832031 1.84375 -0.859375 1.90625 -0.890625 C 1.976562 -0.921875 2.035156 -0.953125 2.078125 -0.984375 C 2.128906 -1.023438 2.175781 -1.0625 2.21875 -1.09375 C 2.269531 -1.125 2.320312 -1.144531 2.375 -1.15625 C 2.457031 -1.164062 2.53125 -1.148438 2.59375 -1.109375 C 2.65625 -1.078125 2.691406 -1.023438 2.703125 -0.953125 C 2.710938 -0.847656 2.675781 -0.75 2.59375 -0.65625 C 2.507812 -0.5625 2.382812 -0.46875 2.21875 -0.375 C 2.0625 -0.289062 1.898438 -0.234375 1.734375 -0.203125 Z M 1.734375 -0.203125 "/></g></g></g><g fill="#f2dceb" fill-opacity="1"><g transform="translate(102.17051, 53.697408)"><g><path d="M 0.671875 -0.125 C 0.578125 -0.101562 0.492188 -0.117188 0.421875 -0.171875 C 0.359375 -0.222656 0.316406 -0.296875 0.296875 -0.390625 L -0.078125 -2.625 C -0.0976562 -2.707031 -0.0820312 -2.785156 -0.03125 -2.859375 C 0.0078125 -2.929688 0.078125 -2.976562 0.171875 -3 C 0.265625 -3.007812 0.347656 -2.988281 0.421875 -2.9375 C 0.492188 -2.882812 0.539062 -2.816406 0.5625 -2.734375 L 0.640625 -2.21875 L 0.53125 -2.578125 C 0.5625 -2.671875 0.601562 -2.753906 0.65625 -2.828125 C 0.707031 -2.898438 0.769531 -2.96875 0.84375 -3.03125 C 0.914062 -3.09375 0.988281 -3.140625 1.0625 -3.171875 C 1.144531 -3.210938 1.234375 -3.238281 1.328125 -3.25 C 1.441406 -3.269531 1.539062 -3.253906 1.625 -3.203125 C 1.707031 -3.160156 1.757812 -3.097656 1.78125 -3.015625 C 1.800781 -2.898438 1.785156 -2.8125 1.734375 -2.75 C 1.679688 -2.6875 1.617188 -2.644531 1.546875 -2.625 C 1.472656 -2.613281 1.40625 -2.617188 1.34375 -2.640625 C 1.289062 -2.660156 1.234375 -2.660156 1.171875 -2.640625 C 1.097656 -2.628906 1.03125 -2.601562 0.96875 -2.5625 C 0.90625 -2.519531 0.847656 -2.457031 0.796875 -2.375 C 0.753906 -2.300781 0.722656 -2.210938 0.703125 -2.109375 C 0.691406 -2.015625 0.695312 -1.898438 0.71875 -1.765625 L 0.9375 -0.5 C 0.957031 -0.40625 0.941406 -0.320312 0.890625 -0.25 C 0.835938 -0.175781 0.765625 -0.132812 0.671875 -0.125 Z M 0.671875 -0.125 "/></g></g></g><g fill="#f2dceb" fill-opacity="1"><g transform="translate(104.257397, 53.341269)"><g><path d="M 1.9375 -3.34375 C 2.03125 -3.363281 2.113281 -3.347656 2.1875 -3.296875 C 2.269531 -3.242188 2.316406 -3.171875 2.328125 -3.078125 L 2.765625 -0.796875 C 2.828125 -0.460938 2.8125 -0.1875 2.71875 0.03125 C 2.632812 0.25 2.492188 0.421875 2.296875 0.546875 C 2.109375 0.671875 1.882812 0.757812 1.625 0.8125 C 1.519531 0.832031 1.394531 0.847656 1.25 0.859375 C 1.113281 0.867188 1.003906 0.859375 0.921875 0.828125 C 0.804688 0.796875 0.71875 0.75 0.65625 0.6875 C 0.601562 0.625 0.582031 0.550781 0.59375 0.46875 C 0.601562 0.375 0.640625 0.300781 0.703125 0.25 C 0.773438 0.195312 0.851562 0.171875 0.9375 0.171875 C 1 0.179688 1.082031 0.195312 1.1875 0.21875 C 1.289062 0.238281 1.398438 0.238281 1.515625 0.21875 C 1.679688 0.1875 1.8125 0.140625 1.90625 0.078125 C 2.007812 0.015625 2.078125 -0.0703125 2.109375 -0.1875 C 2.148438 -0.3125 2.15625 -0.46875 2.125 -0.65625 L 2.0625 -1 L 2.171875 -0.890625 C 2.140625 -0.765625 2.085938 -0.65625 2.015625 -0.5625 C 1.941406 -0.46875 1.84375 -0.390625 1.71875 -0.328125 C 1.601562 -0.265625 1.46875 -0.21875 1.3125 -0.1875 C 1.125 -0.144531 0.945312 -0.15625 0.78125 -0.21875 C 0.613281 -0.289062 0.476562 -0.394531 0.375 -0.53125 C 0.28125 -0.664062 0.210938 -0.835938 0.171875 -1.046875 L -0.125 -2.609375 C -0.132812 -2.703125 -0.117188 -2.785156 -0.078125 -2.859375 C -0.0351562 -2.929688 0.03125 -2.976562 0.125 -3 C 0.21875 -3.019531 0.300781 -3.003906 0.375 -2.953125 C 0.457031 -2.898438 0.503906 -2.828125 0.515625 -2.734375 L 0.78125 -1.359375 C 0.820312 -1.128906 0.90625 -0.972656 1.03125 -0.890625 C 1.15625 -0.816406 1.304688 -0.796875 1.484375 -0.828125 C 1.609375 -0.847656 1.707031 -0.890625 1.78125 -0.953125 C 1.863281 -1.015625 1.914062 -1.097656 1.9375 -1.203125 C 1.96875 -1.316406 1.972656 -1.441406 1.953125 -1.578125 L 1.6875 -2.953125 C 1.675781 -3.046875 1.691406 -3.128906 1.734375 -3.203125 C 1.773438 -3.273438 1.84375 -3.320312 1.9375 -3.34375 Z M 1.9375 -3.34375 "/></g></g></g><g fill="#f2dceb" fill-opacity="1"><g transform="translate(107.154913, 52.79152)"><g/></g></g><g fill="#f2dceb" fill-opacity="1"><g transform="translate(108.402879, 52.547467)"><g><path d="M 1.625 -0.28125 C 1.375 -0.226562 1.140625 -0.210938 0.921875 -0.234375 C 0.703125 -0.265625 0.484375 -0.332031 0.265625 -0.4375 C 0.222656 -0.46875 0.179688 -0.503906 0.140625 -0.546875 C 0.109375 -0.597656 0.0859375 -0.648438 0.078125 -0.703125 C 0.0546875 -0.785156 0.0664062 -0.863281 0.109375 -0.9375 C 0.160156 -1.007812 0.226562 -1.054688 0.3125 -1.078125 C 0.382812 -1.097656 0.453125 -1.09375 0.515625 -1.0625 C 0.679688 -0.976562 0.832031 -0.921875 0.96875 -0.890625 C 1.113281 -0.859375 1.285156 -0.863281 1.484375 -0.90625 C 1.609375 -0.9375 1.722656 -0.984375 1.828125 -1.046875 C 1.941406 -1.109375 2.023438 -1.179688 2.078125 -1.265625 C 2.128906 -1.347656 2.144531 -1.4375 2.125 -1.53125 C 2.101562 -1.632812 2.050781 -1.710938 1.96875 -1.765625 C 1.882812 -1.828125 1.765625 -1.875 1.609375 -1.90625 C 1.460938 -1.9375 1.296875 -1.941406 1.109375 -1.921875 C 0.898438 -1.910156 0.71875 -1.914062 0.5625 -1.9375 C 0.40625 -1.96875 0.265625 -2.019531 0.140625 -2.09375 C 0.0234375 -2.164062 -0.0664062 -2.253906 -0.140625 -2.359375 C -0.210938 -2.472656 -0.265625 -2.609375 -0.296875 -2.765625 C -0.347656 -3.003906 -0.332031 -3.21875 -0.25 -3.40625 C -0.175781 -3.59375 -0.046875 -3.75 0.140625 -3.875 C 0.328125 -4 0.546875 -4.085938 0.796875 -4.140625 C 1.023438 -4.191406 1.242188 -4.203125 1.453125 -4.171875 C 1.671875 -4.148438 1.851562 -4.097656 2 -4.015625 C 2.125 -3.953125 2.195312 -3.867188 2.21875 -3.765625 C 2.238281 -3.691406 2.222656 -3.613281 2.171875 -3.53125 C 2.117188 -3.457031 2.050781 -3.410156 1.96875 -3.390625 C 1.914062 -3.378906 1.863281 -3.390625 1.8125 -3.421875 C 1.75 -3.453125 1.664062 -3.476562 1.5625 -3.5 C 1.457031 -3.519531 1.34375 -3.53125 1.21875 -3.53125 C 1.101562 -3.539062 1.003906 -3.535156 0.921875 -3.515625 C 0.765625 -3.484375 0.640625 -3.441406 0.546875 -3.390625 C 0.453125 -3.335938 0.382812 -3.265625 0.34375 -3.171875 C 0.3125 -3.085938 0.300781 -3.003906 0.3125 -2.921875 C 0.34375 -2.804688 0.394531 -2.722656 0.46875 -2.671875 C 0.539062 -2.617188 0.640625 -2.582031 0.765625 -2.5625 C 0.898438 -2.550781 1.054688 -2.546875 1.234375 -2.546875 C 1.453125 -2.554688 1.644531 -2.550781 1.8125 -2.53125 C 1.976562 -2.507812 2.125 -2.46875 2.25 -2.40625 C 2.382812 -2.351562 2.492188 -2.269531 2.578125 -2.15625 C 2.660156 -2.039062 2.71875 -1.890625 2.75 -1.703125 C 2.800781 -1.472656 2.78125 -1.257812 2.6875 -1.0625 C 2.59375 -0.875 2.453125 -0.707031 2.265625 -0.5625 C 2.078125 -0.425781 1.863281 -0.332031 1.625 -0.28125 Z M 1.625 -0.28125 "/></g></g></g><g fill="#f2dceb" fill-opacity="1"><g transform="translate(111.348536, 51.918024)"><g><path d="M 1.171875 -3.328125 C 1.421875 -3.390625 1.625 -3.378906 1.78125 -3.296875 C 1.945312 -3.222656 2.070312 -3.097656 2.15625 -2.921875 C 2.25 -2.753906 2.320312 -2.554688 2.375 -2.328125 L 2.6875 -0.953125 C 2.707031 -0.867188 2.695312 -0.789062 2.65625 -0.71875 C 2.613281 -0.644531 2.546875 -0.59375 2.453125 -0.5625 C 2.359375 -0.539062 2.269531 -0.554688 2.1875 -0.609375 C 2.113281 -0.660156 2.066406 -0.726562 2.046875 -0.8125 L 1.734375 -2.1875 C 1.703125 -2.3125 1.660156 -2.414062 1.609375 -2.5 C 1.566406 -2.582031 1.503906 -2.640625 1.421875 -2.671875 C 1.335938 -2.710938 1.222656 -2.71875 1.078125 -2.6875 C 0.953125 -2.65625 0.84375 -2.597656 0.75 -2.515625 C 0.664062 -2.441406 0.609375 -2.351562 0.578125 -2.25 C 0.554688 -2.15625 0.5625 -2.046875 0.59375 -1.921875 L 0.90625 -0.546875 C 0.925781 -0.460938 0.914062 -0.378906 0.875 -0.296875 C 0.832031 -0.222656 0.765625 -0.175781 0.671875 -0.15625 C 0.578125 -0.132812 0.488281 -0.144531 0.40625 -0.1875 C 0.332031 -0.238281 0.285156 -0.304688 0.265625 -0.390625 L -0.5 -3.703125 C -0.519531 -3.796875 -0.503906 -3.878906 -0.453125 -3.953125 C -0.410156 -4.023438 -0.34375 -4.070312 -0.25 -4.09375 C -0.15625 -4.113281 -0.0703125 -4.101562 0 -4.0625 C 0.0703125 -4.019531 0.117188 -3.953125 0.140625 -3.859375 L 0.453125 -2.53125 L 0.375 -2.53125 C 0.382812 -2.59375 0.410156 -2.664062 0.453125 -2.75 C 0.492188 -2.84375 0.550781 -2.921875 0.625 -2.984375 C 0.695312 -3.054688 0.773438 -3.125 0.859375 -3.1875 C 0.953125 -3.257812 1.054688 -3.304688 1.171875 -3.328125 Z M 1.171875 -3.328125 "/></g></g></g><g fill="#f2dceb" fill-opacity="1"><g transform="translate(114.225182, 51.251871)"><g><path d="M 2.734375 -2.1875 C 2.804688 -1.90625 2.804688 -1.632812 2.734375 -1.375 C 2.671875 -1.125 2.546875 -0.90625 2.359375 -0.71875 C 2.171875 -0.539062 1.941406 -0.421875 1.671875 -0.359375 C 1.398438 -0.285156 1.140625 -0.285156 0.890625 -0.359375 C 0.648438 -0.429688 0.4375 -0.5625 0.25 -0.75 C 0.0625 -0.9375 -0.0664062 -1.171875 -0.140625 -1.453125 C -0.210938 -1.742188 -0.210938 -2.019531 -0.140625 -2.28125 C -0.0664062 -2.539062 0.0546875 -2.757812 0.234375 -2.9375 C 0.421875 -3.113281 0.648438 -3.238281 0.921875 -3.3125 C 1.191406 -3.375 1.453125 -3.367188 1.703125 -3.296875 C 1.953125 -3.234375 2.164062 -3.101562 2.34375 -2.90625 C 2.53125 -2.71875 2.660156 -2.476562 2.734375 -2.1875 Z M 2.09375 -2.03125 C 2.050781 -2.21875 1.976562 -2.367188 1.875 -2.484375 C 1.769531 -2.597656 1.644531 -2.671875 1.5 -2.703125 C 1.363281 -2.742188 1.222656 -2.75 1.078125 -2.71875 C 0.929688 -2.675781 0.800781 -2.601562 0.6875 -2.5 C 0.582031 -2.40625 0.507812 -2.28125 0.46875 -2.125 C 0.4375 -1.976562 0.441406 -1.8125 0.484375 -1.625 C 0.523438 -1.457031 0.597656 -1.3125 0.703125 -1.1875 C 0.816406 -1.070312 0.941406 -0.992188 1.078125 -0.953125 C 1.222656 -0.910156 1.367188 -0.910156 1.515625 -0.953125 C 1.660156 -0.984375 1.785156 -1.050781 1.890625 -1.15625 C 2.003906 -1.257812 2.078125 -1.390625 2.109375 -1.546875 C 2.140625 -1.703125 2.132812 -1.863281 2.09375 -2.03125 Z M 2.09375 -2.03125 "/></g></g></g><g fill="#f2dceb" fill-opacity="1"><g transform="translate(117.291717, 50.48257)"><g><path d="M 1.03125 -3.359375 C 1.269531 -3.429688 1.503906 -3.429688 1.734375 -3.359375 C 1.972656 -3.285156 2.175781 -3.15625 2.34375 -2.96875 C 2.519531 -2.789062 2.644531 -2.554688 2.71875 -2.265625 C 2.800781 -1.972656 2.8125 -1.695312 2.75 -1.4375 C 2.695312 -1.1875 2.59375 -0.972656 2.4375 -0.796875 C 2.28125 -0.617188 2.082031 -0.5 1.84375 -0.4375 C 1.695312 -0.394531 1.554688 -0.382812 1.421875 -0.40625 C 1.285156 -0.425781 1.160156 -0.457031 1.046875 -0.5 C 0.941406 -0.539062 0.851562 -0.585938 0.78125 -0.640625 C 0.707031 -0.703125 0.664062 -0.757812 0.65625 -0.8125 L 0.8125 -0.90625 L 1.1875 0.46875 C 1.207031 0.5625 1.191406 0.644531 1.140625 0.71875 C 1.097656 0.800781 1.03125 0.851562 0.9375 0.875 C 0.851562 0.90625 0.769531 0.894531 0.6875 0.84375 C 0.613281 0.800781 0.566406 0.734375 0.546875 0.640625 L -0.328125 -2.59375 C -0.359375 -2.6875 -0.347656 -2.769531 -0.296875 -2.84375 C -0.253906 -2.914062 -0.191406 -2.96875 -0.109375 -3 C -0.015625 -3.019531 0.0664062 -3.007812 0.140625 -2.96875 C 0.222656 -2.925781 0.28125 -2.859375 0.3125 -2.765625 L 0.375 -2.515625 L 0.265625 -2.53125 C 0.253906 -2.570312 0.265625 -2.628906 0.296875 -2.703125 C 0.335938 -2.785156 0.382812 -2.867188 0.4375 -2.953125 C 0.5 -3.046875 0.578125 -3.128906 0.671875 -3.203125 C 0.773438 -3.273438 0.894531 -3.328125 1.03125 -3.359375 Z M 1.09375 -2.765625 C 0.945312 -2.722656 0.820312 -2.644531 0.71875 -2.53125 C 0.625 -2.425781 0.5625 -2.300781 0.53125 -2.15625 C 0.507812 -2.007812 0.519531 -1.851562 0.5625 -1.6875 C 0.613281 -1.507812 0.6875 -1.359375 0.78125 -1.234375 C 0.882812 -1.117188 1.003906 -1.039062 1.140625 -1 C 1.285156 -0.957031 1.429688 -0.957031 1.578125 -1 C 1.734375 -1.039062 1.859375 -1.113281 1.953125 -1.21875 C 2.054688 -1.320312 2.117188 -1.445312 2.140625 -1.59375 C 2.171875 -1.75 2.160156 -1.914062 2.109375 -2.09375 C 2.066406 -2.257812 1.992188 -2.398438 1.890625 -2.515625 C 1.796875 -2.628906 1.675781 -2.707031 1.53125 -2.75 C 1.394531 -2.800781 1.25 -2.804688 1.09375 -2.765625 Z M 1.09375 -2.765625 "/></g></g></g><g clip-path="url(#b7f5d40934)"><path fill="#f28444" d="M 20.347656 6.007812 L 21.402344 8.140625 C 21.566406 8.472656 21.882812 8.703125 22.25 8.757812 L 24.609375 9.097656 C 25.53125 9.234375 25.898438 10.367188 25.230469 11.019531 L 23.527344 12.6875 C 23.261719 12.945312 23.140625 13.316406 23.203125 13.683594 L 23.601562 16.03125 C 23.761719 16.953125 22.792969 17.652344 21.96875 17.21875 L 19.859375 16.109375 C 19.53125 15.9375 19.140625 15.9375 18.8125 16.109375 L 16.707031 17.214844 C 15.878906 17.648438 14.914062 16.949219 15.070312 16.027344 L 15.472656 13.679688 C 15.535156 13.316406 15.417969 12.941406 15.148438 12.683594 L 13.441406 11.019531 C 12.773438 10.367188 13.144531 9.234375 14.066406 9.097656 L 16.425781 8.757812 C 16.789062 8.703125 17.105469 8.472656 17.273438 8.140625 L 18.328125 6.007812 C 18.742188 5.167969 19.933594 5.167969 20.347656 6.007812 Z M 20.347656 6.007812 " fill-opacity="1" fill-rule="nonzero"/></g><g clip-path="url(#ae724ecb5b)"><path fill="#f29849" d="M 13.277344 17.480469 L 13.804688 18.546875 C 13.886719 18.710938 14.046875 18.828125 14.226562 18.855469 L 15.40625 19.027344 C 15.867188 19.09375 16.050781 19.660156 15.71875 19.984375 L 14.867188 20.816406 C 14.734375 20.949219 14.671875 21.132812 14.703125 21.316406 L 14.902344 22.488281 C 14.984375 22.949219 14.5 23.300781 14.085938 23.082031 L 13.035156 22.527344 C 12.871094 22.441406 12.671875 22.441406 12.511719 22.527344 L 11.457031 23.082031 C 11.042969 23.300781 10.558594 22.949219 10.640625 22.488281 L 10.839844 21.316406 C 10.871094 21.132812 10.8125 20.945312 10.679688 20.816406 L 9.828125 19.984375 C 9.492188 19.660156 9.675781 19.09375 10.136719 19.027344 L 11.316406 18.855469 C 11.5 18.828125 11.65625 18.710938 11.738281 18.546875 L 12.265625 17.480469 C 12.472656 17.0625 13.070312 17.0625 13.277344 17.480469 Z M 13.277344 17.480469 " fill-opacity="1" fill-rule="nonzero"/></g><g clip-path="url(#e5080fcfd0)"><path fill="#f28444" d="M 130.140625 0.699219 L 131.011719 2.460938 C 131.144531 2.734375 131.40625 2.925781 131.710938 2.96875 L 133.65625 3.25 C 134.417969 3.359375 134.722656 4.296875 134.167969 4.835938 L 132.761719 6.210938 C 132.542969 6.421875 132.441406 6.730469 132.492188 7.03125 L 132.824219 8.96875 C 132.957031 9.730469 132.160156 10.308594 131.476562 9.949219 L 129.738281 9.03125 C 129.464844 8.890625 129.144531 8.890625 128.875 9.03125 L 127.136719 9.945312 C 126.453125 10.304688 125.65625 9.726562 125.785156 8.96875 L 126.117188 7.03125 C 126.167969 6.730469 126.070312 6.421875 125.851562 6.207031 L 124.441406 4.835938 C 123.890625 4.296875 124.195312 3.359375 124.957031 3.25 L 126.902344 2.96875 C 127.203125 2.925781 127.464844 2.734375 127.601562 2.460938 L 128.472656 0.699219 C 128.8125 0.0078125 129.796875 0.0078125 130.140625 0.699219 Z M 130.140625 0.699219 " fill-opacity="1" fill-rule="nonzero"/></g><g clip-path="url(#77f59a8580)"><path fill="#f28444" d="M 140.582031 45.890625 L 141.109375 46.957031 C 141.191406 47.121094 141.351562 47.238281 141.535156 47.265625 L 142.710938 47.433594 C 143.171875 47.503906 143.359375 48.070312 143.023438 48.394531 L 142.171875 49.226562 C 142.039062 49.359375 141.976562 49.542969 142.007812 49.726562 L 142.210938 50.898438 C 142.289062 51.359375 141.804688 51.710938 141.394531 51.492188 L 140.339844 50.9375 C 140.175781 50.851562 139.980469 50.851562 139.816406 50.9375 L 138.761719 51.492188 C 138.351562 51.707031 137.867188 51.359375 137.945312 50.898438 L 138.148438 49.726562 C 138.179688 49.542969 138.117188 49.355469 137.984375 49.226562 L 137.132812 48.394531 C 136.796875 48.070312 136.980469 47.503906 137.445312 47.433594 L 138.621094 47.265625 C 138.804688 47.238281 138.964844 47.121094 139.046875 46.957031 L 139.574219 45.890625 C 139.78125 45.46875 140.375 45.46875 140.582031 45.890625 Z M 140.582031 45.890625 " fill-opacity="1" fill-rule="nonzero"/></g></svg>