<svg xmlns="http://www.w3.org/2000/svg" xmlns:xlink="http://www.w3.org/1999/xlink" width="132" zoomAndPan="magnify" viewBox="0 0 98.88 50.249999" height="67" preserveAspectRatio="xMidYMid meet" version="1.0"><defs><g/><clipPath id="e41b3cc112"><path d="M 0.667969 0 L 98.09375 0 L 98.09375 49.511719 L 0.667969 49.511719 Z M 0.667969 0 " clip-rule="nonzero"/></clipPath><clipPath id="073bd7e1b0"><path d="M 8 6 L 90 6 L 90 35 L 8 35 Z M 8 6 " clip-rule="nonzero"/></clipPath><clipPath id="37df0c1f98"><path d="M 6.933594 13.082031 L 87.515625 2.402344 L 91.007812 28.777344 L 10.425781 39.453125 Z M 6.933594 13.082031 " clip-rule="nonzero"/></clipPath><clipPath id="92a266a675"><path d="M 6.933594 13.082031 L 87.515625 2.402344 L 91.007812 28.777344 L 10.425781 39.453125 Z M 6.933594 13.082031 " clip-rule="nonzero"/></clipPath><clipPath id="d601a35e4e"><path d="M 7.484375 5.269531 L 15 5.269531 L 15 12.449219 L 7.484375 12.449219 Z M 7.484375 5.269531 " clip-rule="nonzero"/></clipPath><clipPath id="6240f5bb9d"><path d="M 5.574219 12.191406 L 9.375 12.191406 L 9.375 15.78125 L 5.574219 15.78125 Z M 5.574219 12.191406 " clip-rule="nonzero"/></clipPath><clipPath id="5d4d163fe5"><path d="M 70.597656 0 L 77 0 L 77 5.910156 L 70.597656 5.910156 Z M 70.597656 0 " clip-rule="nonzero"/></clipPath><clipPath id="3bcef457e6"><path d="M 79.777344 27.804688 L 83.472656 27.804688 L 83.472656 31.5 L 79.777344 31.5 Z M 79.777344 27.804688 " clip-rule="nonzero"/></clipPath></defs><g clip-path="url(#e41b3cc112)"><path fill="#ffffff" d="M 0.667969 0 L 98.210938 0 L 98.210938 49.511719 L 0.667969 49.511719 Z M 0.667969 0 " fill-opacity="1" fill-rule="nonzero"/></g><g clip-path="url(#073bd7e1b0)"><g clip-path="url(#37df0c1f98)"><g clip-path="url(#92a266a675)"><path fill="#f285c1" d="M 47.363281 7.722656 C 25.066406 10.679688 7.765625 18.914062 8.71875 26.105469 C 9.671875 33.296875 28.519531 36.738281 50.816406 33.785156 C 73.117188 30.828125 90.417969 22.597656 89.464844 15.402344 C 88.511719 8.210938 69.664062 4.769531 47.363281 7.722656 Z M 50.765625 33.382812 C 32.160156 35.847656 16.324219 32.195312 15.402344 25.226562 C 14.480469 18.257812 28.8125 10.597656 47.417969 8.132812 C 66.023438 5.667969 81.855469 9.320312 82.78125 16.289062 C 83.703125 23.257812 69.371094 30.910156 50.765625 33.375 Z M 50.765625 33.382812 " fill-opacity="1" fill-rule="nonzero"/></g></g></g><path stroke-linecap="butt" transform="matrix(0.211074, 0, 0, 0.211074, 6.525931, 8.839645)" fill="none" stroke-linejoin="miter" d="M 55.359852 25.169882 C 60.541693 22.301364 65.538467 20.857851 70.350176 20.857851 C 72.293366 20.857851 74.088504 21.098436 75.772602 21.598114 C 77.438193 22.079285 78.900212 22.745521 80.140153 23.596824 C 81.3986 24.429619 82.360942 25.410468 83.064191 26.576382 C 83.767441 27.742296 84.119066 28.96373 84.119066 30.277696 C 84.119066 32.813097 83.119711 34.830313 81.102495 36.310839 C 79.122291 37.791365 76.420332 38.531628 73.015122 38.531628 C 71.775182 38.531628 70.627775 38.476108 69.5729 38.365069 C 68.518025 38.272536 67.407631 38.068963 66.260223 37.772858 C 65.094309 37.476753 63.817356 37.069608 62.429363 36.551424 C 61.059877 36.03324 59.449805 35.404017 57.617654 34.645247 C 57.192003 35.348497 56.877391 35.940708 56.673819 36.421878 C 56.488753 36.921556 56.39622 37.458246 56.39622 38.050457 C 56.39622 38.494615 56.45174 38.901759 56.562779 39.271891 C 56.673819 39.642022 56.858885 40.178713 57.136483 40.881962 C 58.968634 40.567351 60.467666 40.345272 61.596567 40.252739 C 62.743975 40.123193 63.946902 40.067673 65.242362 40.067673 C 70.757321 40.067673 73.5148 41.474173 73.5148 44.287172 C 73.5148 45.749191 72.81155 46.878092 71.442064 47.673874 C 70.054071 48.451151 68.073868 48.839789 65.482947 48.839789 C 64.98327 48.839789 64.539112 48.821282 64.094954 48.802775 C 63.669303 48.747256 63.206639 48.710243 62.688455 48.654723 C 62.170271 48.599203 61.541047 48.50667 60.763771 48.377124 C 60.023509 48.247578 59.04266 48.044006 57.85824 47.766407 C 56.951418 48.210565 56.137128 48.61771 55.433879 48.987841 C 54.730629 49.357973 54.119912 49.709597 53.564715 50.042716 C 53.028024 50.375834 52.528347 50.708952 52.065682 51.079084 C 51.603018 51.412202 51.140354 51.80084 50.659183 52.244998 C 49.585802 53.299873 48.67898 54.576826 47.938717 56.075858 C 47.198454 57.556384 46.846829 58.962884 46.846829 60.239837 C 46.846829 61.812896 47.402026 63.126862 48.549434 64.181737 C 49.678335 65.236612 51.084834 65.773302 52.750426 65.773302 C 54.267965 65.773302 55.544918 65.347651 56.562779 64.514855 C 57.580641 63.68206 58.098825 62.627185 58.098825 61.368738 C 58.098825 59.703147 57.21051 58.870351 55.433879 58.870351 C 55.119267 58.870351 54.860175 58.888857 54.693616 58.962884 C 54.434524 59.018403 54.212445 59.055417 54.008872 59.073923 C 53.823807 59.110936 53.675754 59.129443 53.564715 59.129443 C 53.231596 59.129443 52.935491 58.98139 52.676399 58.685285 C 52.417307 58.38918 52.287761 58.019048 52.287761 57.574891 C 52.287761 56.834628 52.676399 56.057352 53.453675 55.280076 C 54.230951 54.484293 55.230306 53.781043 56.433233 53.133313 C 57.673174 52.467077 59.024154 51.948893 60.541693 51.541748 C 62.059232 51.134604 63.539757 50.931031 65.001777 50.931031 C 68.406986 50.931031 71.108945 51.930386 73.089149 53.947603 C 75.106365 55.927806 76.10572 58.629765 76.10572 62.034975 C 76.10572 64.829467 75.40247 67.4574 73.977464 69.863255 C 72.589471 72.269109 70.664788 74.360352 68.22192 76.136983 C 65.797559 77.913614 62.92904 79.301607 59.597857 80.300962 C 56.285181 81.318823 52.676399 81.818501 48.790019 81.818501 C 45.32929 81.818501 42.183173 81.411356 39.351667 80.57856 C 36.520161 79.782778 34.095801 78.616864 32.078584 77.099325 C 30.098381 75.581786 28.562335 73.768142 27.470448 71.639886 C 26.397066 69.51163 25.860376 67.142789 25.860376 64.533362 C 25.860376 60.869061 26.878237 57.408332 28.932467 54.132668 C 31.005203 50.857005 33.762682 48.284591 37.204905 46.396921 C 38.019194 45.97127 38.79647 45.582632 39.536733 45.231007 C 40.314009 44.879382 41.109791 44.527757 41.942587 44.213145 C 42.775383 43.880027 43.682205 43.546909 44.644547 43.232297 C 45.625395 42.899179 46.73579 42.584567 47.97573 42.269955 C 47.494559 40.807936 47.161441 39.660529 46.957868 38.864746 C 46.772803 38.050457 46.68027 37.254674 46.68027 36.514411 C 46.68027 35.589083 46.846829 34.756287 47.161441 34.034531 C 47.494559 33.312774 48.049756 32.405952 48.864045 31.332571 C 47.846184 30.999453 47.013388 30.777374 46.384165 30.666334 C 45.773448 30.573802 45.088705 30.518282 44.329935 30.518282 C 42.442265 30.518282 40.869206 30.943933 39.629266 31.813742 C 38.389325 32.683551 37.760102 33.719919 37.760102 34.959859 C 37.760102 35.996227 38.14874 36.754997 38.907509 37.236168 C 39.222121 37.513766 39.518226 37.643312 39.777318 37.680325 C 40.054917 37.698832 40.850699 37.717338 42.164666 37.717338 C 43.127008 37.717338 43.608179 38.180003 43.608179 39.105331 C 43.608179 39.845594 43.182528 40.62287 42.331225 41.418653 C 41.498429 42.195929 40.406542 42.899179 39.055562 43.509896 C 37.704582 44.139119 36.187043 44.638797 34.521452 45.008928 C 32.85586 45.397566 31.190269 45.582632 29.506171 45.582632 C 27.507461 45.582632 25.67531 45.286527 23.991212 44.694316 C 22.32562 44.102106 20.882108 43.26931 19.697687 42.195929 C 18.513266 41.104041 17.606444 39.808581 16.958714 38.291042 C 16.310984 36.773503 15.977866 35.126418 15.977866 33.349787 C 15.977866 31.073479 16.459037 28.96373 17.421379 27.002033 C 18.402227 25.02183 19.7347 23.282212 21.400292 21.820193 C 23.08439 20.32116 25.064593 19.155246 27.359408 18.322451 C 29.654223 17.489655 32.097091 17.064004 34.706517 17.064004 C 36.964319 17.064004 39.296147 17.415628 41.702002 18.118878 C 44.107856 18.803621 46.439684 19.78447 48.697486 21.042917 C 49.141644 21.302009 49.567295 21.561101 49.97444 21.820193 C 50.381584 22.042272 50.825742 22.31987 51.288406 22.615975 C 51.788084 22.912081 52.343281 23.263705 52.991011 23.67085 C 53.657248 24.059488 54.434524 24.559165 55.359852 25.169882 Z M 63.299172 29.944578 C 64.205994 30.370229 64.98327 30.740361 65.593987 31.017959 C 66.22321 31.277051 66.778407 31.480624 67.259578 31.647183 C 67.740749 31.795235 68.184907 31.906275 68.536532 31.980301 C 68.92517 32.035821 69.332314 32.054327 69.776472 32.054327 C 70.535242 32.054327 71.127452 31.906275 71.553103 31.628676 C 71.978754 31.314064 72.200833 30.90692 72.200833 30.351723 C 72.200833 29.056263 71.071932 28.390026 68.795624 28.390026 C 67.722243 28.390026 66.759901 28.519572 65.908599 28.778664 C 65.075803 29.019249 64.205994 29.407887 63.299172 29.944578 Z M 81.676198 50.931031 C 81.787238 50.50538 81.861264 50.042716 81.916784 49.561545 C 81.972303 49.080374 81.99081 48.673229 81.99081 48.340111 C 81.99081 47.414782 81.879771 46.767052 81.620679 46.396921 C 81.380093 46.02679 80.917429 45.656658 80.214179 45.342046 C 81.953797 43.824507 83.748934 42.6771 85.599592 41.862811 C 87.468756 41.048522 89.245386 40.641377 90.929485 40.641377 C 94.001576 40.641377 95.611647 42.214436 95.7597 45.342046 C 96.907107 44.416718 97.943476 43.657948 98.887311 43.047231 C 99.849653 42.418008 100.737968 41.91833 101.607777 41.529692 C 102.477586 41.159561 103.291875 40.881962 104.069151 40.715403 C 104.864934 40.567351 105.716236 40.493324 106.623058 40.493324 C 110.527945 40.493324 112.933799 42.103396 113.840621 45.342046 C 115.894851 43.657948 117.819534 42.436514 119.633178 41.696252 C 121.446823 40.937482 123.353 40.567351 125.351709 40.567351 C 127.461459 40.567351 129.201076 41.159561 130.570563 42.343982 C 131.958556 43.528402 132.643299 45.064448 132.643299 46.952118 C 132.643299 47.710888 132.569273 48.451151 132.402713 49.1544 L 130.200431 59.518081 C 130.107898 59.943732 130.033872 60.350877 129.978352 60.702501 C 129.922833 61.054126 129.88582 61.331725 129.88582 61.553804 C 129.88582 62.312573 130.107898 62.904784 130.53355 63.367448 C 130.959201 63.830112 131.532905 64.070698 132.254661 64.070698 C 132.458233 64.070698 132.698819 64.033685 132.957911 63.996671 C 133.235509 63.922645 133.513108 63.830112 133.7722 63.737579 C 134.845581 63.367448 135.474805 63.182382 135.641364 63.182382 C 136.011495 63.182382 136.326107 63.311928 136.566692 63.57102 C 136.807278 63.830112 136.936824 64.181737 136.936824 64.625895 C 136.936824 65.588237 136.178054 66.791164 134.660515 68.179157 C 133.105963 69.641176 131.347839 70.788583 129.404649 71.602873 C 127.461459 72.417162 125.481255 72.8058 123.482546 72.8058 C 121.206237 72.8058 119.374086 72.195083 117.967587 70.955143 C 116.561087 69.715202 115.857838 68.123637 115.857838 66.16194 C 115.857838 65.62525 115.950371 65.051546 116.098423 64.459336 L 118.06012 56.038845 C 118.226679 55.502155 118.300705 54.946957 118.300705 54.410267 C 118.300705 52.800195 117.560442 51.985906 116.098423 51.985906 C 115.043549 51.985906 114.17374 52.39305 113.507503 53.20734 C 112.859773 54.003122 112.323082 55.354102 111.897431 57.260279 L 109.954241 66.402526 C 109.139952 70.140853 107.141242 71.991511 103.958112 71.991511 L 100.552902 71.991511 C 99.479521 71.991511 98.591206 72.139563 97.924969 72.398655 C 97.258732 72.676254 96.370417 73.268464 95.297036 74.193793 L 99.275949 56.038845 C 99.424001 55.335595 99.498028 54.632346 99.498028 53.947603 C 99.498028 52.522596 98.831791 51.819347 97.462305 51.819347 C 95.426582 51.819347 94.001576 53.632991 93.16878 57.260279 L 91.151563 66.402526 C 90.725912 68.456755 90.022663 69.918775 89.041814 70.75157 C 88.079472 71.584366 86.617453 71.991511 84.674263 71.991511 L 81.99081 71.991511 C 80.75087 71.991511 79.788528 72.139563 79.103785 72.398655 C 78.437548 72.676254 77.567739 73.268464 76.494358 74.193793 Z M 152.093707 43.713468 C 153.814818 42.584567 155.276837 41.807291 156.498271 41.38164 C 157.701198 40.937482 159.070684 40.715403 160.588223 40.715403 C 163.567782 40.715403 165.973636 41.677745 167.824293 43.565415 C 169.711964 45.453086 170.637292 47.932966 170.637292 51.005058 C 170.637292 53.929096 170.045082 56.705082 168.860661 59.351522 C 167.676241 62.016468 166.084675 64.32979 164.104472 66.347006 C 162.142775 68.327209 159.84796 69.918775 157.183014 71.103195 C 154.536574 72.287616 151.760588 72.898333 148.83655 72.898333 C 146.948879 72.898333 145.209262 72.602228 143.617696 72.04703 C 142.026131 71.473327 140.656645 70.696051 139.527744 69.678189 C 138.380336 68.678834 137.492021 67.494414 136.844291 66.124927 C 136.215067 64.755441 135.881949 63.237902 135.881949 61.553804 C 135.881949 60.887567 135.937469 60.147304 136.048508 59.314509 C 136.141041 58.481713 136.270587 57.593397 136.437146 56.686575 L 141.804052 31.240038 C 141.859572 30.925426 141.896585 30.592308 141.915092 30.277696 C 141.952105 29.944578 141.952105 29.574447 141.952105 29.130289 C 141.952105 28.278987 141.822559 27.649763 141.581973 27.224112 C 141.341388 26.816967 140.841711 26.465342 140.101448 26.150731 C 141.656 24.688711 143.451137 23.504291 145.48686 22.615975 C 147.504077 21.72766 149.336227 21.283502 150.946299 21.283502 C 152.297279 21.283502 153.42618 21.653634 154.333002 22.393896 C 155.25833 23.115653 155.720995 24.003968 155.720995 25.077349 C 155.720995 25.55852 155.646969 26.132224 155.480409 26.779954 Z M 154.258976 49.080374 C 153.074555 49.080374 152.038187 49.654078 151.131365 50.819992 C 150.243049 51.967399 149.817398 53.318379 149.817398 54.835918 C 149.817398 55.576181 150.057984 56.223911 150.539155 56.760602 C 151.038832 57.315799 151.649549 57.574891 152.408318 57.574891 C 153.592739 57.574891 154.647614 57.019694 155.609955 55.909299 C 156.553791 54.817411 157.034961 53.577471 157.034961 52.244998 C 157.034961 50.135249 156.109633 49.080374 154.258976 49.080374 Z M 173.78341 50.616419 C 173.894449 50.227781 173.968475 49.80213 174.005488 49.357973 C 174.023995 48.895308 174.042502 48.451151 174.042502 48.025499 C 174.042502 47.359263 173.912956 46.859585 173.653864 46.526467 C 173.431785 46.156336 172.987627 45.767698 172.339897 45.342046 C 173.043147 44.694316 173.838929 44.083599 174.745751 43.509896 C 175.67108 42.954698 176.614915 42.473528 177.595763 42.066383 C 178.576612 41.659238 179.538954 41.344627 180.464282 41.104041 C 181.408117 40.844949 182.296433 40.715403 183.110722 40.715403 C 184.517222 40.715403 185.627616 41.067028 186.460412 41.733265 C 187.311714 42.399501 187.718859 43.343337 187.718859 44.527757 C 187.718859 44.805356 187.700352 45.156981 187.644832 45.582632 C 187.589313 46.008283 187.515286 46.637506 187.404247 47.451796 C 188.218536 46.693026 188.84776 46.100816 189.310424 45.675165 C 189.773088 45.231007 190.161726 44.879382 190.476338 44.583277 C 190.809456 44.268665 191.087055 44.046586 191.32764 43.880027 C 191.586732 43.713468 191.864331 43.491389 192.178943 43.232297 C 193.104271 42.529047 194.177652 41.97385 195.38058 41.566706 C 196.602013 41.159561 197.749421 40.955989 198.822802 40.955989 C 200.599433 40.955989 202.061452 41.492679 203.190353 42.547554 C 204.337761 43.602429 204.892958 44.990421 204.892958 46.711533 C 204.892958 47.951473 204.670879 49.135894 204.208215 50.283301 C 203.764057 51.412202 203.134833 52.411557 202.339051 53.281366 C 201.561775 54.151175 200.673459 54.835918 199.674104 55.335595 C 198.67475 55.85378 197.638381 56.112872 196.546494 56.112872 C 195.251034 56.112872 194.122133 55.74274 193.141284 54.983971 C 192.178943 54.225201 191.697772 53.336886 191.697772 52.319024 C 191.697772 52.152465 191.716278 51.948893 191.734785 51.74532 C 191.771798 51.523242 191.808811 51.282656 191.864331 51.005058 C 190.772443 51.597268 189.865621 52.263504 189.088345 52.966754 C 188.348082 53.670004 187.663339 54.465787 187.071129 55.354102 C 186.478918 56.242418 185.960734 57.297292 185.49807 58.500219 C 185.035406 59.721653 184.609754 61.165166 184.165597 62.849264 L 183.425334 66.16194 C 182.518512 70.048321 180.427269 71.991511 177.207125 71.991511 L 174.042502 71.991511 C 173.117173 71.991511 172.228857 72.139563 171.377555 72.435668 C 170.563266 72.731774 169.693457 73.268464 168.768128 74.008727 Z M 219.550163 40.807936 C 223.732649 40.807936 227.026819 41.97385 229.45118 44.324185 C 231.875541 46.67452 233.096974 49.839143 233.096974 53.836563 C 233.096974 56.483003 232.597297 58.98139 231.579435 61.294712 C 230.598587 63.62654 229.229101 65.643756 227.470976 67.346361 C 225.712852 69.048966 223.658622 70.399945 221.308288 71.3993 C 218.957953 72.398655 216.422553 72.898333 213.720593 72.898333 C 209.667654 72.898333 206.44751 71.658392 204.041656 69.178512 C 201.654308 66.680124 200.45138 63.330435 200.45138 59.129443 C 200.45138 56.686575 200.951058 54.354747 201.968919 52.152465 C 203.005287 49.950183 204.39328 47.988486 206.151405 46.322895 C 207.909529 44.638797 209.963759 43.306323 212.27708 42.306968 C 214.590402 41.307614 217.033269 40.807936 219.550163 40.807936 Z M 218.661848 48.839789 C 217.532947 48.839789 216.515085 49.394986 215.62677 50.50538 C 214.738454 51.597268 214.294297 52.837208 214.294297 54.262214 C 214.294297 55.224556 214.553389 56.038845 215.071573 56.686575 C 215.589757 57.334305 216.21898 57.648917 216.959243 57.648917 C 218.16217 57.648917 219.198538 57.112226 220.086854 56.001832 C 220.993676 54.891438 221.437834 53.595978 221.437834 52.133958 C 221.437834 51.171617 221.178742 50.375834 220.660558 49.765117 C 220.16088 49.135894 219.494644 48.839789 218.661848 48.839789 Z M 236.261598 50.764472 C 236.52069 49.524532 236.650236 48.673229 236.650236 48.173552 C 236.650236 47.044651 236.039519 46.137829 234.799579 45.434579 C 238.57492 42.288462 242.165195 40.715403 245.570404 40.715403 C 246.976904 40.715403 248.087298 41.067028 248.920094 41.770278 C 249.75289 42.473528 250.178541 43.454376 250.178541 44.694316 C 250.178541 45.119967 250.178541 45.416073 250.178541 45.582632 C 250.178541 45.749191 250.123021 45.952763 250.030488 46.230362 L 247.273009 59.129443 C 247.161969 59.555094 247.087943 59.962239 247.013917 60.350877 C 246.958397 60.721008 246.939891 61.03562 246.939891 61.294712 C 246.939891 62.109001 247.161969 62.775238 247.587621 63.256408 C 248.031778 63.737579 248.623989 63.959658 249.364252 63.959658 C 249.69737 63.959658 249.993475 63.922645 250.252567 63.848619 C 250.530166 63.774593 251.288935 63.515501 252.528875 63.071343 L 252.843487 63.071343 C 253.676283 63.071343 254.083427 63.534007 254.083427 64.459336 C 254.083427 65.384664 253.63927 66.3285 252.769461 67.309348 C 251.918159 68.27169 250.826271 69.160005 249.493798 69.974294 C 248.161324 70.788583 246.717812 71.45482 245.16326 71.991511 C 243.608707 72.546708 242.109675 72.8058 240.703176 72.8058 C 238.537907 72.8058 236.742769 72.21359 235.299256 70.992156 C 233.87425 69.770722 233.171001 68.21617 233.171001 66.3285 C 233.171001 65.51421 233.245027 64.736934 233.411586 63.959658 Z M 246.939891 25.410468 C 248.827561 25.410468 250.3451 25.910145 251.492507 26.9095 C 252.621408 27.908855 253.195112 29.204315 253.195112 30.832894 C 253.195112 31.813742 252.93602 32.73907 252.454849 33.608879 C 251.973678 34.460182 251.288935 35.218951 250.419126 35.848175 C 249.567824 36.495905 248.586975 37.032595 247.476581 37.43974 C 246.366187 37.846884 245.218779 38.050457 244.034359 38.050457 C 242.294741 38.050457 240.925254 37.569286 239.888886 36.588438 C 238.871025 35.607589 238.352841 34.312129 238.352841 32.683551 C 238.352841 31.721209 238.57492 30.814387 239.037584 29.963085 C 239.500248 29.093276 240.129472 28.316 240.943761 27.649763 C 241.75805 26.96502 242.683379 26.428329 243.70124 26.021185 C 244.719102 25.61404 245.81099 25.410468 246.939891 25.410468 Z M 279.030287 30.999453 C 279.141327 30.573802 279.233859 30.14815 279.289379 29.741006 C 279.326392 29.333861 279.363405 28.96373 279.363405 28.649118 C 279.363405 27.945868 279.233859 27.409178 278.974767 27.076059 C 278.752689 26.724434 278.215998 26.298783 277.401709 25.799106 C 279.733537 24.077995 281.676727 22.893574 283.194266 22.245844 C 284.748818 21.598114 286.377396 21.283502 288.098508 21.283502 C 289.671566 21.283502 290.874494 21.653634 291.707289 22.43091 C 292.540085 23.171173 292.965736 24.244554 292.965736 25.651053 C 292.965736 25.854626 292.965736 26.058198 292.928723 26.26177 C 292.910217 26.446836 292.873203 26.668915 292.817684 26.946513 L 285.674147 59.203469 C 285.563107 59.62912 285.489081 60.036265 285.433561 60.424903 C 285.378042 60.795034 285.359535 61.109646 285.359535 61.368738 C 285.359535 63.052836 286.136811 63.885632 287.70987 63.885632 C 288.135521 63.885632 288.635198 63.811606 289.227409 63.645047 C 290.430336 63.274915 291.115079 63.071343 291.263132 63.071343 C 291.65177 63.071343 291.966381 63.219395 292.206967 63.496994 C 292.429046 63.756086 292.558592 64.107711 292.558592 64.533362 C 292.558592 65.403171 292.114434 66.3285 291.244625 67.309348 C 290.393323 68.27169 289.282928 69.160005 287.950455 69.974294 C 286.599475 70.788583 285.137456 71.45482 283.564397 71.991511 C 282.009845 72.546708 280.492306 72.8058 279.030287 72.8058 C 277.087097 72.8058 275.458519 72.21359 274.163059 70.992156 C 272.867599 69.770722 272.219869 68.27169 272.219869 66.476552 C 272.219869 66.16194 272.219869 65.865835 272.219869 65.606743 C 272.219869 65.329145 272.238375 64.996026 272.293895 64.625895 C 270.036093 67.605453 268.00037 69.733709 266.186726 70.992156 C 264.373082 72.250603 262.448398 72.898333 260.394169 72.898333 C 257.914288 72.898333 255.934085 71.935991 254.472066 70.029814 C 253.028553 68.10513 252.28829 65.51421 252.28829 62.27556 C 252.28829 59.68464 252.769461 57.056707 253.750309 54.410267 C 254.712651 51.763827 256.100644 49.357973 257.877275 47.21121 C 261.393524 42.936192 265.557502 40.807936 270.350705 40.807936 C 271.775711 40.807936 272.923118 40.955989 273.792927 41.252094 C 274.699749 41.548199 275.569558 42.047876 276.439367 42.73262 Z M 272.053309 48.913815 C 270.868889 48.913815 269.795508 49.487519 268.814659 50.653433 C 267.852317 51.819347 267.371147 53.114807 267.371147 54.576826 C 267.371147 55.502155 267.593225 56.242418 268.037383 56.816121 C 268.500047 57.371318 269.147777 57.648917 269.962067 57.648917 C 270.554277 57.648917 271.127981 57.482358 271.701684 57.14924 C 272.275388 56.779108 272.756559 56.316444 273.18221 55.761247 C 273.626368 55.187543 273.977993 54.558319 274.237085 53.85507 C 274.514684 53.15182 274.64423 52.411557 274.64423 51.671294 C 274.64423 50.912525 274.403644 50.264795 273.922473 49.728104 C 273.422796 49.191413 272.812079 48.913815 272.053309 48.913815 Z M 324.241844 59.03691 C 323.908725 60.443409 323.760673 61.387245 323.760673 61.868416 C 323.760673 62.460626 323.982752 62.97881 324.426909 63.422968 C 324.889574 63.848619 325.481784 64.070698 326.185034 64.070698 C 326.777244 64.070698 327.313935 63.959658 327.795106 63.737579 C 328.924007 63.422968 329.55323 63.256408 329.664269 63.256408 C 330.034401 63.256408 330.367519 63.385954 330.626611 63.663553 C 330.90421 63.941152 331.033756 64.27427 331.033756 64.699921 C 331.033756 65.56973 330.589598 66.476552 329.701283 67.438894 C 328.812967 68.364222 327.684066 69.252538 326.333086 70.066827 C 324.982107 70.86261 323.520087 71.547353 321.910016 72.084044 C 320.336957 72.620734 318.837925 72.898333 317.431425 72.898333 C 315.543755 72.898333 313.970696 72.269109 312.712249 71.029169 C 311.472309 69.789229 310.861592 68.21617 310.861592 66.3285 C 310.861592 66.050901 310.861592 65.773302 310.861592 65.495704 C 310.861592 65.181092 310.880098 64.847974 310.935618 64.459336 C 310.232368 65.329145 309.677171 66.032394 309.233013 66.587592 C 308.807362 67.124282 308.437231 67.586946 308.104113 67.957078 C 307.789501 68.327209 307.474889 68.660328 307.178784 68.937926 C 306.882679 69.197018 306.586574 69.493123 306.253455 69.807735 C 305.217087 70.825597 304.051173 71.639886 302.755713 72.195083 C 301.460253 72.768787 300.238819 73.046385 299.109918 73.046385 C 296.685557 73.046385 294.705354 72.04703 293.150802 70.066827 C 291.633263 68.049611 290.855987 65.495704 290.855987 62.368093 C 290.855987 59.666133 291.374171 57.019694 292.392033 54.428773 C 293.409894 51.837853 294.742367 49.524532 296.407959 47.488809 C 298.055044 45.453086 299.942714 43.843014 302.07097 42.62158 C 304.217732 41.400146 306.420014 40.807936 308.677816 40.807936 C 311.860947 40.807936 314.48888 41.955344 316.54311 44.287172 C 317.505451 43.583922 318.356754 43.010218 319.041497 42.584567 C 319.744747 42.140409 320.37397 41.807291 320.910661 41.566706 C 321.447351 41.344627 321.947029 41.178068 322.409693 41.104041 C 322.872357 41.011508 323.372035 40.955989 323.908725 40.955989 C 325.000613 40.955989 325.870422 41.252094 326.555165 41.807291 C 327.221402 42.380995 327.536014 43.102751 327.480494 43.97256 C 327.480494 44.509251 327.406468 45.045941 327.239908 45.582632 Z M 310.695033 49.228427 C 309.510612 49.228427 308.474244 49.765117 307.567422 50.819992 C 306.697613 51.874866 306.253455 53.059287 306.253455 54.410267 C 306.253455 56.464496 307.141771 57.500864 308.918402 57.500864 C 309.455092 57.500864 309.991783 57.334305 310.509967 57.019694 C 311.009644 56.686575 311.472309 56.260924 311.860947 55.724233 C 312.286598 55.169036 312.60121 54.576826 312.841795 53.892083 C 313.082381 53.20734 313.211927 52.485583 313.211927 51.74532 C 313.211927 50.061222 312.379131 49.228427 310.695033 49.228427 Z M 333.217531 50.616419 C 333.328571 50.227781 333.402597 49.80213 333.43961 49.357973 C 333.458117 48.895308 333.476623 48.451151 333.476623 48.025499 C 333.476623 47.359263 333.347077 46.859585 333.087985 46.526467 C 332.865907 46.156336 332.421749 45.767698 331.774019 45.342046 C 332.477268 44.694316 333.273051 44.083599 334.179873 43.509896 C 335.105202 42.954698 336.049037 42.473528 337.029885 42.066383 C 338.010734 41.659238 338.973075 41.344627 339.898404 41.104041 C 340.842239 40.844949 341.730555 40.715403 342.544844 40.715403 C 343.951343 40.715403 345.061738 41.067028 345.894534 41.733265 C 346.745836 42.399501 347.15298 43.343337 347.15298 44.527757 C 347.15298 44.805356 347.134474 45.156981 347.078954 45.582632 C 347.023434 46.008283 346.949408 46.637506 346.838369 47.451796 C 347.652658 46.693026 348.281881 46.100816 348.744546 45.675165 C 349.20721 45.231007 349.595848 44.879382 349.91046 44.583277 C 350.243578 44.268665 350.521177 44.046586 350.761762 43.880027 C 351.020854 43.713468 351.298453 43.491389 351.613064 43.232297 C 352.538393 42.529047 353.611774 41.97385 354.814701 41.566706 C 356.036135 41.159561 357.183543 40.955989 358.256924 40.955989 C 360.033555 40.955989 361.495574 41.492679 362.624475 42.547554 C 363.771883 43.602429 364.32708 44.990421 364.32708 46.711533 C 364.32708 47.951473 364.105001 49.135894 363.642337 50.283301 C 363.198179 51.412202 362.568955 52.411557 361.773173 53.281366 C 360.995897 54.151175 360.107581 54.835918 359.108226 55.335595 C 358.108871 55.85378 357.072503 56.112872 355.980616 56.112872 C 354.685155 56.112872 353.556255 55.74274 352.575406 54.983971 C 351.613064 54.225201 351.131894 53.336886 351.131894 52.319024 C 351.131894 52.152465 351.1504 51.948893 351.168907 51.74532 C 351.20592 51.523242 351.242933 51.282656 351.298453 51.005058 C 350.206565 51.597268 349.299743 52.263504 348.522467 52.966754 C 347.782204 53.670004 347.097461 54.465787 346.50525 55.354102 C 345.91304 56.242418 345.394856 57.297292 344.932192 58.500219 C 344.469527 59.721653 344.043876 61.165166 343.599719 62.849264 L 342.877962 66.16194 C 341.952634 70.048321 339.861391 71.991511 336.641247 71.991511 L 333.476623 71.991511 C 332.551295 71.991511 331.662979 72.139563 330.830184 72.435668 C 329.997388 72.731774 329.127579 73.268464 328.20225 74.008727 Z M 391.550248 68.364222 C 390.902518 71.436314 390.032709 74.04574 388.922315 76.173996 C 387.81192 78.302252 386.312888 80.300962 384.425217 82.133112 C 382.222935 84.187342 379.780068 85.778907 377.096615 86.907808 C 374.413162 88.055216 371.618669 88.610413 368.713137 88.610413 C 365.307928 88.610413 362.587462 87.851643 360.551739 86.297091 C 358.534523 84.761046 357.535168 82.68831 357.535168 80.115896 C 357.535168 78.376278 357.923806 76.951272 358.701082 75.803865 C 359.496864 74.656457 360.903364 73.527556 362.957593 72.398655 C 363.716363 75.692825 365.770592 77.33991 369.120282 77.33991 C 371.267044 77.33991 373.191728 76.544128 374.857319 74.952562 C 376.541418 73.360997 377.781358 71.177222 378.595647 68.364222 C 376.374858 69.807735 374.487188 70.844103 372.914129 71.473327 C 371.359577 72.084044 369.749505 72.398655 368.139434 72.398655 C 365.863125 72.398655 364.049481 71.769432 362.717008 70.492478 C 361.366028 69.234031 360.699792 67.56844 360.699792 65.51421 C 360.699792 64.607388 360.829338 63.459981 361.08843 62.109001 L 363.67935 50.283301 C 363.845909 49.580051 363.919935 48.876802 363.919935 48.173552 C 363.919935 47.581342 363.808896 47.118677 363.605323 46.748546 C 363.383245 46.396921 362.883567 45.878737 362.050771 45.175487 C 364.32708 43.454376 366.307283 42.232942 368.009888 41.529692 C 369.712492 40.826443 371.470617 40.493324 373.265754 40.493324 C 374.487188 40.493324 375.542063 40.881962 376.393365 41.659238 C 377.28168 42.436514 377.707332 43.38035 377.707332 44.527757 C 377.707332 44.953408 377.633305 45.582632 377.466746 46.396921 L 375.190438 56.927161 C 375.042385 57.574891 374.949852 58.185608 374.949852 58.777818 C 374.949852 59.444055 375.171931 59.999252 375.597582 60.424903 C 376.023234 60.850554 376.541418 61.054126 377.133628 61.054126 C 377.725838 61.054126 378.299542 60.906074 378.873246 60.591462 C 379.446949 60.258344 379.909614 59.795679 380.298252 59.203469 C 380.501824 58.925871 380.68689 58.574246 380.816436 58.148594 C 380.964488 57.722943 381.131048 57.056707 381.353126 56.186898 L 382.741119 50.283301 C 382.833652 49.91317 382.926185 49.524532 382.963198 49.117387 C 383.018718 48.710243 383.055731 48.358618 383.055731 48.099526 C 383.055731 47.396276 382.926185 46.841079 382.667093 46.433934 C 382.445014 46.02679 382.000856 45.601138 381.353126 45.175487 C 385.035934 42.158916 388.478157 40.641377 391.716807 40.641377 C 393.123306 40.641377 394.252207 41.011508 395.122016 41.733265 C 395.991825 42.455021 396.417476 43.417363 396.417476 44.62029 C 396.417476 44.990421 396.417476 45.305033 396.417476 45.545619 C 396.417476 45.786204 396.361957 46.063803 396.269424 46.396921 Z M 391.550248 68.364222 " stroke="#ffffff" stroke-width="6.077363" stroke-opacity="1" stroke-miterlimit="4"/><g fill="#f285c1" fill-opacity="1"><g transform="translate(7.845141, 24.036948)"><g><path d="M 10.375 -9.890625 C 11.46875 -10.492188 12.519531 -10.796875 13.53125 -10.796875 C 13.945312 -10.796875 14.328125 -10.742188 14.671875 -10.640625 C 15.023438 -10.535156 15.332031 -10.394531 15.59375 -10.21875 C 15.863281 -10.039062 16.070312 -9.828125 16.21875 -9.578125 C 16.363281 -9.335938 16.4375 -9.082031 16.4375 -8.8125 C 16.4375 -8.269531 16.222656 -7.84375 15.796875 -7.53125 C 15.378906 -7.21875 14.8125 -7.0625 14.09375 -7.0625 C 13.832031 -7.0625 13.585938 -7.070312 13.359375 -7.09375 C 13.140625 -7.125 12.90625 -7.171875 12.65625 -7.234375 C 12.414062 -7.296875 12.148438 -7.378906 11.859375 -7.484375 C 11.566406 -7.585938 11.226562 -7.722656 10.84375 -7.890625 C 10.75 -7.742188 10.679688 -7.617188 10.640625 -7.515625 C 10.609375 -7.410156 10.59375 -7.296875 10.59375 -7.171875 C 10.59375 -7.078125 10.601562 -6.988281 10.625 -6.90625 C 10.644531 -6.832031 10.6875 -6.71875 10.75 -6.5625 C 11.132812 -6.632812 11.445312 -6.679688 11.6875 -6.703125 C 11.925781 -6.722656 12.179688 -6.734375 12.453125 -6.734375 C 13.617188 -6.734375 14.203125 -6.4375 14.203125 -5.84375 C 14.203125 -5.539062 14.054688 -5.304688 13.765625 -5.140625 C 13.472656 -4.972656 13.050781 -4.890625 12.5 -4.890625 C 12.40625 -4.890625 12.3125 -4.890625 12.21875 -4.890625 C 12.125 -4.898438 12.019531 -4.910156 11.90625 -4.921875 C 11.800781 -4.929688 11.671875 -4.953125 11.515625 -4.984375 C 11.359375 -5.015625 11.15625 -5.054688 10.90625 -5.109375 C 10.707031 -5.023438 10.53125 -4.941406 10.375 -4.859375 C 10.226562 -4.773438 10.097656 -4.695312 9.984375 -4.625 C 9.878906 -4.5625 9.773438 -4.492188 9.671875 -4.421875 C 9.578125 -4.347656 9.476562 -4.265625 9.375 -4.171875 C 9.144531 -3.941406 8.953125 -3.671875 8.796875 -3.359375 C 8.648438 -3.046875 8.578125 -2.753906 8.578125 -2.484375 C 8.578125 -2.148438 8.695312 -1.867188 8.9375 -1.640625 C 9.175781 -1.421875 9.472656 -1.3125 9.828125 -1.3125 C 10.140625 -1.3125 10.40625 -1.398438 10.625 -1.578125 C 10.84375 -1.753906 10.953125 -1.972656 10.953125 -2.234375 C 10.953125 -2.585938 10.765625 -2.765625 10.390625 -2.765625 C 10.316406 -2.765625 10.265625 -2.757812 10.234375 -2.75 C 10.171875 -2.738281 10.117188 -2.726562 10.078125 -2.71875 C 10.046875 -2.71875 10.015625 -2.71875 9.984375 -2.71875 C 9.921875 -2.71875 9.859375 -2.75 9.796875 -2.8125 C 9.742188 -2.875 9.71875 -2.953125 9.71875 -3.046875 C 9.71875 -3.203125 9.800781 -3.363281 9.96875 -3.53125 C 10.132812 -3.695312 10.34375 -3.847656 10.59375 -3.984375 C 10.851562 -4.117188 11.140625 -4.226562 11.453125 -4.3125 C 11.773438 -4.40625 12.09375 -4.453125 12.40625 -4.453125 C 13.125 -4.453125 13.691406 -4.238281 14.109375 -3.8125 C 14.535156 -3.394531 14.75 -2.828125 14.75 -2.109375 C 14.75 -1.515625 14.597656 -0.960938 14.296875 -0.453125 C 14.003906 0.0546875 13.597656 0.5 13.078125 0.875 C 12.566406 1.25 11.960938 1.539062 11.265625 1.75 C 10.566406 1.957031 9.804688 2.0625 8.984375 2.0625 C 8.253906 2.0625 7.585938 1.976562 6.984375 1.8125 C 6.390625 1.644531 5.878906 1.398438 5.453125 1.078125 C 5.035156 0.753906 4.710938 0.367188 4.484375 -0.078125 C 4.253906 -0.523438 4.140625 -1.023438 4.140625 -1.578125 C 4.140625 -2.347656 4.351562 -3.078125 4.78125 -3.765625 C 5.21875 -4.460938 5.800781 -5.007812 6.53125 -5.40625 C 6.707031 -5.5 6.875 -5.582031 7.03125 -5.65625 C 7.1875 -5.726562 7.351562 -5.796875 7.53125 -5.859375 C 7.707031 -5.929688 7.898438 -6 8.109375 -6.0625 C 8.316406 -6.132812 8.550781 -6.207031 8.8125 -6.28125 C 8.707031 -6.582031 8.632812 -6.816406 8.59375 -6.984375 C 8.550781 -7.160156 8.53125 -7.332031 8.53125 -7.5 C 8.53125 -7.6875 8.566406 -7.859375 8.640625 -8.015625 C 8.710938 -8.171875 8.832031 -8.363281 9 -8.59375 C 8.78125 -8.65625 8.601562 -8.695312 8.46875 -8.71875 C 8.34375 -8.75 8.203125 -8.765625 8.046875 -8.765625 C 7.640625 -8.765625 7.304688 -8.671875 7.046875 -8.484375 C 6.785156 -8.304688 6.65625 -8.082031 6.65625 -7.8125 C 6.65625 -7.601562 6.734375 -7.445312 6.890625 -7.34375 C 6.960938 -7.28125 7.023438 -7.242188 7.078125 -7.234375 C 7.140625 -7.234375 7.304688 -7.234375 7.578125 -7.234375 C 7.785156 -7.234375 7.890625 -7.140625 7.890625 -6.953125 C 7.890625 -6.785156 7.800781 -6.617188 7.625 -6.453125 C 7.445312 -6.285156 7.210938 -6.132812 6.921875 -6 C 6.640625 -5.875 6.320312 -5.769531 5.96875 -5.6875 C 5.613281 -5.613281 5.257812 -5.578125 4.90625 -5.578125 C 4.488281 -5.578125 4.101562 -5.640625 3.75 -5.765625 C 3.394531 -5.890625 3.09375 -6.066406 2.84375 -6.296875 C 2.59375 -6.523438 2.394531 -6.796875 2.25 -7.109375 C 2.113281 -7.429688 2.046875 -7.78125 2.046875 -8.15625 C 2.046875 -8.632812 2.148438 -9.082031 2.359375 -9.5 C 2.566406 -9.914062 2.847656 -10.28125 3.203125 -10.59375 C 3.554688 -10.90625 3.972656 -11.148438 4.453125 -11.328125 C 4.941406 -11.503906 5.457031 -11.59375 6 -11.59375 C 6.476562 -11.59375 6.972656 -11.519531 7.484375 -11.375 C 7.992188 -11.226562 8.488281 -11.023438 8.96875 -10.765625 C 9.0625 -10.703125 9.148438 -10.644531 9.234375 -10.59375 C 9.316406 -10.539062 9.410156 -10.484375 9.515625 -10.421875 C 9.617188 -10.359375 9.738281 -10.285156 9.875 -10.203125 C 10.007812 -10.117188 10.175781 -10.015625 10.375 -9.890625 Z M 12.046875 -8.875 C 12.234375 -8.789062 12.394531 -8.71875 12.53125 -8.65625 C 12.664062 -8.601562 12.78125 -8.554688 12.875 -8.515625 C 12.976562 -8.484375 13.070312 -8.460938 13.15625 -8.453125 C 13.238281 -8.441406 13.320312 -8.4375 13.40625 -8.4375 C 13.570312 -8.4375 13.695312 -8.46875 13.78125 -8.53125 C 13.875 -8.59375 13.921875 -8.679688 13.921875 -8.796875 C 13.921875 -9.066406 13.679688 -9.203125 13.203125 -9.203125 C 12.972656 -9.203125 12.769531 -9.175781 12.59375 -9.125 C 12.414062 -9.070312 12.234375 -8.988281 12.046875 -8.875 Z M 12.046875 -8.875 "/></g></g></g><g fill="#f285c1" fill-opacity="1"><g transform="translate(22.39732, 24.036948)"><g><path d="M 1.375 -4.453125 C 1.394531 -4.535156 1.410156 -4.628906 1.421875 -4.734375 C 1.429688 -4.835938 1.4375 -4.925781 1.4375 -5 C 1.4375 -5.1875 1.410156 -5.320312 1.359375 -5.40625 C 1.304688 -5.488281 1.207031 -5.5625 1.0625 -5.625 C 1.425781 -5.945312 1.800781 -6.191406 2.1875 -6.359375 C 2.582031 -6.535156 2.957031 -6.625 3.3125 -6.625 C 3.96875 -6.625 4.3125 -6.289062 4.34375 -5.625 C 4.582031 -5.820312 4.800781 -5.984375 5 -6.109375 C 5.195312 -6.242188 5.382812 -6.347656 5.5625 -6.421875 C 5.75 -6.503906 5.925781 -6.5625 6.09375 -6.59375 C 6.257812 -6.632812 6.441406 -6.65625 6.640625 -6.65625 C 7.460938 -6.65625 7.96875 -6.3125 8.15625 -5.625 C 8.59375 -5.976562 9 -6.234375 9.375 -6.390625 C 9.757812 -6.554688 10.164062 -6.640625 10.59375 -6.640625 C 11.039062 -6.640625 11.40625 -6.515625 11.6875 -6.265625 C 11.976562 -6.015625 12.125 -5.6875 12.125 -5.28125 C 12.125 -5.125 12.109375 -4.972656 12.078125 -4.828125 L 11.625 -2.640625 C 11.59375 -2.546875 11.570312 -2.460938 11.5625 -2.390625 C 11.550781 -2.316406 11.546875 -2.253906 11.546875 -2.203125 C 11.546875 -2.046875 11.59375 -1.914062 11.6875 -1.8125 C 11.78125 -1.71875 11.898438 -1.671875 12.046875 -1.671875 C 12.085938 -1.671875 12.132812 -1.675781 12.1875 -1.6875 C 12.25 -1.707031 12.3125 -1.726562 12.375 -1.75 C 12.601562 -1.820312 12.734375 -1.859375 12.765625 -1.859375 C 12.847656 -1.859375 12.910156 -1.828125 12.953125 -1.765625 C 13.003906 -1.710938 13.03125 -1.644531 13.03125 -1.5625 C 13.03125 -1.351562 12.875 -1.097656 12.5625 -0.796875 C 12.226562 -0.492188 11.851562 -0.253906 11.4375 -0.078125 C 11.03125 0.0859375 10.617188 0.171875 10.203125 0.171875 C 9.722656 0.171875 9.332031 0.0390625 9.03125 -0.21875 C 8.738281 -0.476562 8.59375 -0.816406 8.59375 -1.234375 C 8.59375 -1.347656 8.609375 -1.46875 8.640625 -1.59375 L 9.046875 -3.375 C 9.085938 -3.488281 9.109375 -3.601562 9.109375 -3.71875 C 9.109375 -4.050781 8.953125 -4.21875 8.640625 -4.21875 C 8.410156 -4.21875 8.226562 -4.132812 8.09375 -3.96875 C 7.957031 -3.800781 7.84375 -3.515625 7.75 -3.109375 L 7.34375 -1.1875 C 7.164062 -0.394531 6.742188 0 6.078125 0 L 5.359375 0 C 5.128906 0 4.941406 0.0234375 4.796875 0.078125 C 4.648438 0.140625 4.46875 0.269531 4.25 0.46875 L 5.078125 -3.375 C 5.117188 -3.519531 5.140625 -3.664062 5.140625 -3.8125 C 5.140625 -4.113281 4.992188 -4.265625 4.703125 -4.265625 C 4.273438 -4.265625 3.972656 -3.878906 3.796875 -3.109375 L 3.375 -1.1875 C 3.28125 -0.75 3.128906 -0.441406 2.921875 -0.265625 C 2.722656 -0.0859375 2.414062 0 2 0 L 1.4375 0 C 1.175781 0 0.972656 0.0234375 0.828125 0.078125 C 0.679688 0.140625 0.5 0.269531 0.28125 0.46875 Z M 1.375 -4.453125 "/></g></g></g><g fill="#f285c1" fill-opacity="1"><g transform="translate(34.572563, 24.036948)"><g><path d="M 4.0625 -5.96875 C 4.425781 -6.207031 4.734375 -6.375 4.984375 -6.46875 C 5.242188 -6.5625 5.53125 -6.609375 5.84375 -6.609375 C 6.476562 -6.609375 6.988281 -6.40625 7.375 -6 C 7.769531 -5.601562 7.96875 -5.082031 7.96875 -4.4375 C 7.96875 -3.8125 7.84375 -3.21875 7.59375 -2.65625 C 7.34375 -2.101562 7.007812 -1.613281 6.59375 -1.1875 C 6.175781 -0.769531 5.6875 -0.4375 5.125 -0.1875 C 4.570312 0.0625 3.988281 0.1875 3.375 0.1875 C 2.96875 0.1875 2.597656 0.125 2.265625 0 C 1.929688 -0.113281 1.644531 -0.273438 1.40625 -0.484375 C 1.164062 -0.691406 0.976562 -0.941406 0.84375 -1.234375 C 0.707031 -1.523438 0.640625 -1.847656 0.640625 -2.203125 C 0.640625 -2.335938 0.648438 -2.492188 0.671875 -2.671875 C 0.691406 -2.847656 0.71875 -3.035156 0.75 -3.234375 L 1.875 -8.609375 C 1.894531 -8.671875 1.90625 -8.734375 1.90625 -8.796875 C 1.914062 -8.867188 1.921875 -8.953125 1.921875 -9.046875 C 1.921875 -9.234375 1.894531 -9.367188 1.84375 -9.453125 C 1.789062 -9.535156 1.679688 -9.613281 1.515625 -9.6875 C 1.847656 -9.988281 2.226562 -10.234375 2.65625 -10.421875 C 3.082031 -10.609375 3.46875 -10.703125 3.8125 -10.703125 C 4.101562 -10.703125 4.34375 -10.625 4.53125 -10.46875 C 4.726562 -10.320312 4.828125 -10.132812 4.828125 -9.90625 C 4.828125 -9.800781 4.8125 -9.679688 4.78125 -9.546875 Z M 4.515625 -4.84375 C 4.265625 -4.84375 4.046875 -4.71875 3.859375 -4.46875 C 3.671875 -4.226562 3.578125 -3.945312 3.578125 -3.625 C 3.578125 -3.46875 3.628906 -3.332031 3.734375 -3.21875 C 3.835938 -3.101562 3.96875 -3.046875 4.125 -3.046875 C 4.375 -3.046875 4.597656 -3.160156 4.796875 -3.390625 C 4.992188 -3.628906 5.09375 -3.890625 5.09375 -4.171875 C 5.09375 -4.617188 4.898438 -4.84375 4.515625 -4.84375 Z M 4.515625 -4.84375 "/></g></g></g><g fill="#f285c1" fill-opacity="1"><g transform="translate(41.874231, 24.036948)"><g><path d="M 1.328125 -4.515625 C 1.359375 -4.597656 1.375 -4.6875 1.375 -4.78125 C 1.382812 -4.875 1.390625 -4.96875 1.390625 -5.0625 C 1.390625 -5.195312 1.363281 -5.300781 1.3125 -5.375 C 1.257812 -5.445312 1.164062 -5.53125 1.03125 -5.625 C 1.175781 -5.757812 1.34375 -5.882812 1.53125 -6 C 1.726562 -6.125 1.929688 -6.226562 2.140625 -6.3125 C 2.347656 -6.40625 2.550781 -6.476562 2.75 -6.53125 C 2.945312 -6.582031 3.128906 -6.609375 3.296875 -6.609375 C 3.597656 -6.609375 3.835938 -6.535156 4.015625 -6.390625 C 4.191406 -6.242188 4.28125 -6.046875 4.28125 -5.796875 C 4.28125 -5.742188 4.273438 -5.671875 4.265625 -5.578125 C 4.253906 -5.484375 4.234375 -5.351562 4.203125 -5.1875 C 4.378906 -5.34375 4.515625 -5.46875 4.609375 -5.5625 C 4.703125 -5.65625 4.785156 -5.734375 4.859375 -5.796875 C 4.929688 -5.859375 4.988281 -5.90625 5.03125 -5.9375 C 5.082031 -5.96875 5.144531 -6.015625 5.21875 -6.078125 C 5.414062 -6.222656 5.640625 -6.335938 5.890625 -6.421875 C 6.148438 -6.503906 6.394531 -6.546875 6.625 -6.546875 C 7 -6.546875 7.304688 -6.4375 7.546875 -6.21875 C 7.785156 -6 7.90625 -5.707031 7.90625 -5.34375 C 7.90625 -5.070312 7.851562 -4.816406 7.75 -4.578125 C 7.65625 -4.335938 7.523438 -4.125 7.359375 -3.9375 C 7.203125 -3.757812 7.015625 -3.617188 6.796875 -3.515625 C 6.585938 -3.410156 6.367188 -3.359375 6.140625 -3.359375 C 5.867188 -3.359375 5.628906 -3.4375 5.421875 -3.59375 C 5.210938 -3.75 5.109375 -3.9375 5.109375 -4.15625 C 5.109375 -4.1875 5.113281 -4.222656 5.125 -4.265625 C 5.132812 -4.316406 5.144531 -4.375 5.15625 -4.4375 C 4.925781 -4.3125 4.726562 -4.171875 4.5625 -4.015625 C 4.40625 -3.867188 4.265625 -3.703125 4.140625 -3.515625 C 4.015625 -3.328125 3.898438 -3.101562 3.796875 -2.84375 C 3.703125 -2.59375 3.613281 -2.289062 3.53125 -1.9375 L 3.375 -1.234375 C 3.175781 -0.410156 2.734375 0 2.046875 0 L 1.390625 0 C 1.191406 0 1.003906 0.03125 0.828125 0.09375 C 0.648438 0.15625 0.46875 0.265625 0.28125 0.421875 Z M 1.328125 -4.515625 "/></g></g></g><g fill="#f285c1" fill-opacity="1"><g transform="translate(48.355087, 24.036948)"><g><path d="M 4.515625 -6.59375 C 5.390625 -6.59375 6.082031 -6.34375 6.59375 -5.84375 C 7.113281 -5.34375 7.375 -4.671875 7.375 -3.828125 C 7.375 -3.273438 7.265625 -2.75 7.046875 -2.25 C 6.835938 -1.757812 6.546875 -1.332031 6.171875 -0.96875 C 5.804688 -0.613281 5.375 -0.332031 4.875 -0.125 C 4.382812 0.0820312 3.851562 0.1875 3.28125 0.1875 C 2.425781 0.1875 1.742188 -0.0703125 1.234375 -0.59375 C 0.734375 -1.125 0.484375 -1.832031 0.484375 -2.71875 C 0.484375 -3.226562 0.585938 -3.71875 0.796875 -4.1875 C 1.015625 -4.65625 1.304688 -5.066406 1.671875 -5.421875 C 2.046875 -5.773438 2.476562 -6.054688 2.96875 -6.265625 C 3.46875 -6.484375 3.984375 -6.59375 4.515625 -6.59375 Z M 4.328125 -4.890625 C 4.085938 -4.890625 3.875 -4.769531 3.6875 -4.53125 C 3.5 -4.300781 3.40625 -4.039062 3.40625 -3.75 C 3.40625 -3.539062 3.457031 -3.367188 3.5625 -3.234375 C 3.675781 -3.097656 3.8125 -3.03125 3.96875 -3.03125 C 4.21875 -3.03125 4.4375 -3.144531 4.625 -3.375 C 4.8125 -3.613281 4.90625 -3.882812 4.90625 -4.1875 C 4.90625 -4.394531 4.847656 -4.5625 4.734375 -4.6875 C 4.628906 -4.820312 4.492188 -4.890625 4.328125 -4.890625 Z M 4.328125 -4.890625 "/></g></g></g><g fill="#f285c1" fill-opacity="1"><g transform="translate(55.177949, 24.036948)"><g><path d="M 1.21875 -4.484375 C 1.269531 -4.742188 1.296875 -4.925781 1.296875 -5.03125 C 1.296875 -5.269531 1.164062 -5.460938 0.90625 -5.609375 C 1.707031 -6.273438 2.46875 -6.609375 3.1875 -6.609375 C 3.476562 -6.609375 3.710938 -6.53125 3.890625 -6.375 C 4.066406 -6.226562 4.15625 -6.023438 4.15625 -5.765625 C 4.15625 -5.671875 4.15625 -5.609375 4.15625 -5.578125 C 4.15625 -5.546875 4.144531 -5.5 4.125 -5.4375 L 3.546875 -2.71875 C 3.515625 -2.625 3.492188 -2.535156 3.484375 -2.453125 C 3.472656 -2.378906 3.46875 -2.316406 3.46875 -2.265625 C 3.46875 -2.085938 3.515625 -1.945312 3.609375 -1.84375 C 3.703125 -1.738281 3.828125 -1.6875 3.984375 -1.6875 C 4.054688 -1.6875 4.117188 -1.695312 4.171875 -1.71875 C 4.234375 -1.738281 4.394531 -1.789062 4.65625 -1.875 L 4.71875 -1.875 C 4.894531 -1.875 4.984375 -1.78125 4.984375 -1.59375 C 4.984375 -1.394531 4.890625 -1.191406 4.703125 -0.984375 C 4.523438 -0.785156 4.296875 -0.597656 4.015625 -0.421875 C 3.734375 -0.253906 3.425781 -0.113281 3.09375 0 C 2.757812 0.113281 2.445312 0.171875 2.15625 0.171875 C 1.695312 0.171875 1.316406 0.046875 1.015625 -0.203125 C 0.710938 -0.460938 0.5625 -0.796875 0.5625 -1.203125 C 0.5625 -1.367188 0.578125 -1.53125 0.609375 -1.6875 Z M 3.46875 -9.84375 C 3.875 -9.84375 4.195312 -9.734375 4.4375 -9.515625 C 4.675781 -9.304688 4.796875 -9.03125 4.796875 -8.6875 C 4.796875 -8.488281 4.742188 -8.296875 4.640625 -8.109375 C 4.535156 -7.929688 4.390625 -7.769531 4.203125 -7.625 C 4.023438 -7.488281 3.816406 -7.378906 3.578125 -7.296875 C 3.347656 -7.210938 3.109375 -7.171875 2.859375 -7.171875 C 2.492188 -7.171875 2.203125 -7.269531 1.984375 -7.46875 C 1.765625 -7.675781 1.65625 -7.953125 1.65625 -8.296875 C 1.65625 -8.503906 1.703125 -8.695312 1.796875 -8.875 C 1.898438 -9.0625 2.035156 -9.222656 2.203125 -9.359375 C 2.378906 -9.503906 2.570312 -9.617188 2.78125 -9.703125 C 3 -9.796875 3.226562 -9.84375 3.46875 -9.84375 Z M 3.46875 -9.84375 "/></g></g></g><g fill="#f285c1" fill-opacity="1"><g transform="translate(59.298971, 24.036948)"><g><path d="M 6.125 -8.65625 C 6.144531 -8.75 6.160156 -8.835938 6.171875 -8.921875 C 6.179688 -9.003906 6.1875 -9.082031 6.1875 -9.15625 C 6.1875 -9.300781 6.160156 -9.410156 6.109375 -9.484375 C 6.066406 -9.554688 5.957031 -9.644531 5.78125 -9.75 C 6.269531 -10.113281 6.675781 -10.363281 7 -10.5 C 7.332031 -10.632812 7.679688 -10.703125 8.046875 -10.703125 C 8.367188 -10.703125 8.617188 -10.625 8.796875 -10.46875 C 8.972656 -10.3125 9.0625 -10.082031 9.0625 -9.78125 C 9.0625 -9.738281 9.054688 -9.695312 9.046875 -9.65625 C 9.046875 -9.613281 9.039062 -9.566406 9.03125 -9.515625 L 7.53125 -2.703125 C 7.507812 -2.609375 7.488281 -2.519531 7.46875 -2.4375 C 7.457031 -2.363281 7.453125 -2.296875 7.453125 -2.234375 C 7.453125 -1.890625 7.617188 -1.71875 7.953125 -1.71875 C 8.046875 -1.71875 8.15625 -1.734375 8.28125 -1.765625 C 8.53125 -1.835938 8.671875 -1.875 8.703125 -1.875 C 8.785156 -1.875 8.851562 -1.847656 8.90625 -1.796875 C 8.957031 -1.742188 8.984375 -1.671875 8.984375 -1.578125 C 8.984375 -1.390625 8.890625 -1.191406 8.703125 -0.984375 C 8.523438 -0.785156 8.289062 -0.597656 8 -0.421875 C 7.71875 -0.253906 7.410156 -0.113281 7.078125 0 C 6.753906 0.113281 6.4375 0.171875 6.125 0.171875 C 5.71875 0.171875 5.375 0.046875 5.09375 -0.203125 C 4.820312 -0.460938 4.6875 -0.78125 4.6875 -1.15625 C 4.6875 -1.226562 4.6875 -1.289062 4.6875 -1.34375 C 4.6875 -1.40625 4.691406 -1.476562 4.703125 -1.5625 C 4.222656 -0.925781 3.789062 -0.472656 3.40625 -0.203125 C 3.03125 0.0546875 2.625 0.1875 2.1875 0.1875 C 1.664062 0.1875 1.25 -0.015625 0.9375 -0.421875 C 0.632812 -0.828125 0.484375 -1.367188 0.484375 -2.046875 C 0.484375 -2.597656 0.582031 -3.148438 0.78125 -3.703125 C 0.988281 -4.265625 1.28125 -4.773438 1.65625 -5.234375 C 2.394531 -6.140625 3.273438 -6.59375 4.296875 -6.59375 C 4.585938 -6.59375 4.828125 -6.5625 5.015625 -6.5 C 5.203125 -6.4375 5.390625 -6.328125 5.578125 -6.171875 Z M 4.65625 -4.875 C 4.40625 -4.875 4.175781 -4.75 3.96875 -4.5 C 3.757812 -4.257812 3.65625 -3.984375 3.65625 -3.671875 C 3.65625 -3.484375 3.703125 -3.328125 3.796875 -3.203125 C 3.898438 -3.085938 4.035156 -3.03125 4.203125 -3.03125 C 4.328125 -3.03125 4.445312 -3.066406 4.5625 -3.140625 C 4.6875 -3.210938 4.796875 -3.304688 4.890625 -3.421875 C 4.984375 -3.546875 5.054688 -3.679688 5.109375 -3.828125 C 5.171875 -3.984375 5.203125 -4.140625 5.203125 -4.296875 C 5.203125 -4.453125 5.148438 -4.585938 5.046875 -4.703125 C 4.941406 -4.816406 4.8125 -4.875 4.65625 -4.875 Z M 4.65625 -4.875 "/></g></g></g><g fill="#f285c1" fill-opacity="1"><g transform="translate(67.438551, 24.036948)"><g><path d="M 7.53125 -2.734375 C 7.457031 -2.441406 7.421875 -2.242188 7.421875 -2.140625 C 7.421875 -2.015625 7.46875 -1.90625 7.5625 -1.8125 C 7.664062 -1.71875 7.789062 -1.671875 7.9375 -1.671875 C 8.0625 -1.671875 8.175781 -1.695312 8.28125 -1.75 C 8.519531 -1.8125 8.648438 -1.84375 8.671875 -1.84375 C 8.753906 -1.84375 8.820312 -1.8125 8.875 -1.75 C 8.9375 -1.695312 8.96875 -1.628906 8.96875 -1.546875 C 8.96875 -1.359375 8.875 -1.164062 8.6875 -0.96875 C 8.5 -0.769531 8.257812 -0.582031 7.96875 -0.40625 C 7.6875 -0.238281 7.375 -0.0976562 7.03125 0.015625 C 6.695312 0.128906 6.382812 0.1875 6.09375 0.1875 C 5.6875 0.1875 5.351562 0.0546875 5.09375 -0.203125 C 4.832031 -0.460938 4.703125 -0.796875 4.703125 -1.203125 C 4.703125 -1.253906 4.703125 -1.3125 4.703125 -1.375 C 4.703125 -1.4375 4.707031 -1.507812 4.71875 -1.59375 C 4.570312 -1.40625 4.453125 -1.253906 4.359375 -1.140625 C 4.265625 -1.023438 4.179688 -0.925781 4.109375 -0.84375 C 4.046875 -0.769531 3.984375 -0.703125 3.921875 -0.640625 C 3.859375 -0.585938 3.796875 -0.53125 3.734375 -0.46875 C 3.515625 -0.25 3.265625 -0.0820312 2.984375 0.03125 C 2.710938 0.15625 2.457031 0.21875 2.21875 0.21875 C 1.707031 0.21875 1.289062 0.0078125 0.96875 -0.40625 C 0.644531 -0.832031 0.484375 -1.375 0.484375 -2.03125 C 0.484375 -2.601562 0.585938 -3.160156 0.796875 -3.703125 C 1.015625 -4.253906 1.296875 -4.742188 1.640625 -5.171875 C 1.992188 -5.597656 2.394531 -5.941406 2.84375 -6.203125 C 3.300781 -6.460938 3.769531 -6.59375 4.25 -6.59375 C 4.914062 -6.59375 5.46875 -6.34375 5.90625 -5.84375 C 6.101562 -6 6.273438 -6.117188 6.421875 -6.203125 C 6.578125 -6.296875 6.710938 -6.367188 6.828125 -6.421875 C 6.941406 -6.472656 7.046875 -6.503906 7.140625 -6.515625 C 7.234375 -6.535156 7.335938 -6.546875 7.453125 -6.546875 C 7.679688 -6.546875 7.867188 -6.484375 8.015625 -6.359375 C 8.160156 -6.242188 8.226562 -6.097656 8.21875 -5.921875 C 8.21875 -5.804688 8.195312 -5.691406 8.15625 -5.578125 Z M 4.671875 -4.8125 C 4.421875 -4.8125 4.203125 -4.695312 4.015625 -4.46875 C 3.828125 -4.25 3.734375 -4 3.734375 -3.71875 C 3.734375 -3.28125 3.921875 -3.0625 4.296875 -3.0625 C 4.410156 -3.0625 4.519531 -3.09375 4.625 -3.15625 C 4.738281 -3.226562 4.835938 -3.320312 4.921875 -3.4375 C 5.003906 -3.550781 5.070312 -3.675781 5.125 -3.8125 C 5.175781 -3.957031 5.203125 -4.113281 5.203125 -4.28125 C 5.203125 -4.632812 5.023438 -4.8125 4.671875 -4.8125 Z M 4.671875 -4.8125 "/></g></g></g><g fill="#f285c1" fill-opacity="1"><g transform="translate(75.52683, 24.036948)"><g><path d="M 1.328125 -4.515625 C 1.359375 -4.597656 1.375 -4.6875 1.375 -4.78125 C 1.382812 -4.875 1.390625 -4.96875 1.390625 -5.0625 C 1.390625 -5.195312 1.363281 -5.300781 1.3125 -5.375 C 1.257812 -5.445312 1.164062 -5.53125 1.03125 -5.625 C 1.175781 -5.757812 1.34375 -5.882812 1.53125 -6 C 1.726562 -6.125 1.929688 -6.226562 2.140625 -6.3125 C 2.347656 -6.40625 2.550781 -6.476562 2.75 -6.53125 C 2.945312 -6.582031 3.128906 -6.609375 3.296875 -6.609375 C 3.597656 -6.609375 3.835938 -6.535156 4.015625 -6.390625 C 4.191406 -6.242188 4.28125 -6.046875 4.28125 -5.796875 C 4.28125 -5.742188 4.273438 -5.671875 4.265625 -5.578125 C 4.253906 -5.484375 4.234375 -5.351562 4.203125 -5.1875 C 4.378906 -5.34375 4.515625 -5.46875 4.609375 -5.5625 C 4.703125 -5.65625 4.785156 -5.734375 4.859375 -5.796875 C 4.929688 -5.859375 4.988281 -5.90625 5.03125 -5.9375 C 5.082031 -5.96875 5.144531 -6.015625 5.21875 -6.078125 C 5.414062 -6.222656 5.640625 -6.335938 5.890625 -6.421875 C 6.148438 -6.503906 6.394531 -6.546875 6.625 -6.546875 C 7 -6.546875 7.304688 -6.4375 7.546875 -6.21875 C 7.785156 -6 7.90625 -5.707031 7.90625 -5.34375 C 7.90625 -5.070312 7.851562 -4.816406 7.75 -4.578125 C 7.65625 -4.335938 7.523438 -4.125 7.359375 -3.9375 C 7.203125 -3.757812 7.015625 -3.617188 6.796875 -3.515625 C 6.585938 -3.410156 6.367188 -3.359375 6.140625 -3.359375 C 5.867188 -3.359375 5.628906 -3.4375 5.421875 -3.59375 C 5.210938 -3.75 5.109375 -3.9375 5.109375 -4.15625 C 5.109375 -4.1875 5.113281 -4.222656 5.125 -4.265625 C 5.132812 -4.316406 5.144531 -4.375 5.15625 -4.4375 C 4.925781 -4.3125 4.726562 -4.171875 4.5625 -4.015625 C 4.40625 -3.867188 4.265625 -3.703125 4.140625 -3.515625 C 4.015625 -3.328125 3.898438 -3.101562 3.796875 -2.84375 C 3.703125 -2.59375 3.613281 -2.289062 3.53125 -1.9375 L 3.375 -1.234375 C 3.175781 -0.410156 2.734375 0 2.046875 0 L 1.390625 0 C 1.191406 0 1.003906 0.03125 0.828125 0.09375 C 0.648438 0.15625 0.46875 0.265625 0.28125 0.421875 Z M 1.328125 -4.515625 "/></g></g></g><g fill="#f285c1" fill-opacity="1"><g transform="translate(82.007683, 24.036948)"><g><path d="M 7.171875 -0.765625 C 7.035156 -0.117188 6.847656 0.425781 6.609375 0.875 C 6.378906 1.332031 6.0625 1.753906 5.65625 2.140625 C 5.195312 2.566406 4.679688 2.898438 4.109375 3.140625 C 3.546875 3.378906 2.957031 3.5 2.34375 3.5 C 1.625 3.5 1.050781 3.335938 0.625 3.015625 C 0.195312 2.691406 -0.015625 2.257812 -0.015625 1.71875 C -0.015625 1.34375 0.0664062 1.035156 0.234375 0.796875 C 0.398438 0.554688 0.695312 0.316406 1.125 0.078125 C 1.289062 0.773438 1.722656 1.125 2.421875 1.125 C 2.878906 1.125 3.285156 0.957031 3.640625 0.625 C 3.992188 0.289062 4.257812 -0.171875 4.4375 -0.765625 C 3.96875 -0.460938 3.566406 -0.242188 3.234375 -0.109375 C 2.898438 0.015625 2.5625 0.078125 2.21875 0.078125 C 1.738281 0.078125 1.359375 -0.0507812 1.078125 -0.3125 C 0.796875 -0.582031 0.65625 -0.9375 0.65625 -1.375 C 0.65625 -1.5625 0.679688 -1.800781 0.734375 -2.09375 L 1.28125 -4.578125 C 1.3125 -4.734375 1.328125 -4.882812 1.328125 -5.03125 C 1.328125 -5.15625 1.304688 -5.253906 1.265625 -5.328125 C 1.222656 -5.398438 1.113281 -5.507812 0.9375 -5.65625 C 1.414062 -6.019531 1.832031 -6.273438 2.1875 -6.421875 C 2.550781 -6.578125 2.921875 -6.65625 3.296875 -6.65625 C 3.566406 -6.65625 3.789062 -6.570312 3.96875 -6.40625 C 4.15625 -6.238281 4.25 -6.035156 4.25 -5.796875 C 4.25 -5.703125 4.226562 -5.570312 4.1875 -5.40625 L 3.71875 -3.1875 C 3.675781 -3.050781 3.65625 -2.914062 3.65625 -2.78125 C 3.65625 -2.644531 3.703125 -2.53125 3.796875 -2.4375 C 3.890625 -2.351562 4 -2.3125 4.125 -2.3125 C 4.25 -2.3125 4.367188 -2.34375 4.484375 -2.40625 C 4.609375 -2.476562 4.710938 -2.578125 4.796875 -2.703125 C 4.835938 -2.753906 4.867188 -2.828125 4.890625 -2.921875 C 4.921875 -3.015625 4.960938 -3.15625 5.015625 -3.34375 L 5.296875 -4.578125 C 5.328125 -4.660156 5.347656 -4.742188 5.359375 -4.828125 C 5.367188 -4.921875 5.375 -4.992188 5.375 -5.046875 C 5.375 -5.191406 5.347656 -5.304688 5.296875 -5.390625 C 5.242188 -5.484375 5.148438 -5.570312 5.015625 -5.65625 C 5.785156 -6.300781 6.515625 -6.625 7.203125 -6.625 C 7.492188 -6.625 7.734375 -6.546875 7.921875 -6.390625 C 8.109375 -6.234375 8.203125 -6.03125 8.203125 -5.78125 C 8.203125 -5.695312 8.203125 -5.628906 8.203125 -5.578125 C 8.203125 -5.535156 8.1875 -5.476562 8.15625 -5.40625 Z M 7.171875 -0.765625 "/></g></g></g><path fill="#f285c1" d="M 72.355469 28.640625 C 72.464844 29.019531 72.5 29.40625 72.457031 29.800781 C 72.417969 30.195312 72.300781 30.566406 72.113281 30.914062 C 71.925781 31.265625 71.679688 31.5625 71.375 31.816406 C 71.066406 32.066406 70.726562 32.25 70.347656 32.367188 C 62.722656 34.46875 54.957031 35.660156 47.054688 35.941406 C 46.660156 35.945312 46.277344 35.871094 45.910156 35.722656 C 45.542969 35.578125 45.21875 35.363281 44.933594 35.089844 C 44.648438 34.8125 44.429688 34.492188 44.269531 34.128906 C 44.113281 33.765625 44.03125 33.386719 44.023438 32.992188 C 44.011719 32.585938 44.082031 32.195312 44.230469 31.820312 C 44.378906 31.445312 44.59375 31.113281 44.875 30.820312 C 45.15625 30.53125 45.484375 30.308594 45.855469 30.148438 C 46.226562 29.992188 46.613281 29.910156 47.019531 29.910156 C 54.328125 29.632812 61.515625 28.53125 68.570312 26.601562 C 68.957031 26.480469 69.351562 26.441406 69.753906 26.480469 C 70.15625 26.519531 70.535156 26.636719 70.890625 26.828125 C 71.246094 27.019531 71.550781 27.273438 71.804688 27.585938 C 72.058594 27.902344 72.242188 28.253906 72.355469 28.640625 Z M 72.355469 28.640625 " fill-opacity="1" fill-rule="nonzero"/><g fill="#f2dceb" fill-opacity="1"><g transform="translate(46.150369, 33.895439)"><g><path d="M 0.359375 -2.25 L 1.421875 -2.296875 C 1.472656 -2.296875 1.519531 -2.273438 1.5625 -2.234375 C 1.601562 -2.203125 1.625 -2.160156 1.625 -2.109375 C 1.625 -2.054688 1.601562 -2.007812 1.5625 -1.96875 C 1.53125 -1.9375 1.488281 -1.921875 1.4375 -1.921875 L 0.546875 -1.875 L 0.5625 -1.953125 L 0.59375 -1.328125 L 0.5625 -1.34375 L 1.3125 -1.375 C 1.363281 -1.375 1.40625 -1.359375 1.4375 -1.328125 C 1.476562 -1.296875 1.5 -1.253906 1.5 -1.203125 C 1.5 -1.148438 1.484375 -1.101562 1.453125 -1.0625 C 1.421875 -1.019531 1.378906 -1 1.328125 -1 L 0.59375 -0.96875 L 0.609375 -1.015625 L 0.625 -0.375 L 0.59375 -0.375 L 1.484375 -0.421875 C 1.535156 -0.421875 1.582031 -0.398438 1.625 -0.359375 C 1.664062 -0.328125 1.691406 -0.289062 1.703125 -0.25 C 1.703125 -0.195312 1.679688 -0.148438 1.640625 -0.109375 C 1.597656 -0.078125 1.550781 -0.0625 1.5 -0.0625 L 0.4375 -0.015625 C 0.375 -0.015625 0.320312 -0.03125 0.28125 -0.0625 C 0.25 -0.101562 0.234375 -0.148438 0.234375 -0.203125 L 0.15625 -2.046875 C 0.15625 -2.109375 0.171875 -2.15625 0.203125 -2.1875 C 0.242188 -2.226562 0.296875 -2.25 0.359375 -2.25 Z M 0.359375 -2.25 "/></g></g></g><g fill="#f2dceb" fill-opacity="1"><g transform="translate(47.826981, 33.841165)"><g><path d="M 1 -1.796875 C 1.164062 -1.804688 1.289062 -1.769531 1.375 -1.6875 C 1.457031 -1.613281 1.519531 -1.515625 1.5625 -1.390625 L 1.5 -1.421875 L 1.53125 -1.46875 C 1.539062 -1.519531 1.570312 -1.578125 1.625 -1.640625 C 1.6875 -1.703125 1.75 -1.753906 1.8125 -1.796875 C 1.882812 -1.835938 1.96875 -1.859375 2.0625 -1.859375 C 2.21875 -1.867188 2.335938 -1.84375 2.421875 -1.78125 C 2.503906 -1.726562 2.5625 -1.644531 2.59375 -1.53125 C 2.632812 -1.425781 2.660156 -1.304688 2.671875 -1.171875 L 2.71875 -0.34375 C 2.726562 -0.289062 2.710938 -0.242188 2.671875 -0.203125 C 2.640625 -0.171875 2.597656 -0.15625 2.546875 -0.15625 C 2.484375 -0.144531 2.429688 -0.15625 2.390625 -0.1875 C 2.359375 -0.226562 2.335938 -0.273438 2.328125 -0.328125 L 2.28125 -1.15625 C 2.28125 -1.21875 2.269531 -1.273438 2.25 -1.328125 C 2.226562 -1.390625 2.195312 -1.4375 2.15625 -1.46875 C 2.113281 -1.5 2.050781 -1.515625 1.96875 -1.515625 C 1.882812 -1.503906 1.8125 -1.476562 1.75 -1.4375 C 1.695312 -1.40625 1.65625 -1.359375 1.625 -1.296875 C 1.601562 -1.234375 1.59375 -1.171875 1.59375 -1.109375 L 1.640625 -0.28125 C 1.648438 -0.226562 1.632812 -0.179688 1.59375 -0.140625 C 1.5625 -0.109375 1.519531 -0.09375 1.46875 -0.09375 C 1.414062 -0.0820312 1.367188 -0.09375 1.328125 -0.125 C 1.296875 -0.164062 1.273438 -0.210938 1.265625 -0.265625 L 1.21875 -1.09375 C 1.21875 -1.15625 1.207031 -1.210938 1.1875 -1.265625 C 1.164062 -1.328125 1.128906 -1.375 1.078125 -1.40625 C 1.035156 -1.4375 0.972656 -1.453125 0.890625 -1.453125 C 0.804688 -1.441406 0.734375 -1.414062 0.671875 -1.375 C 0.617188 -1.34375 0.582031 -1.296875 0.5625 -1.234375 C 0.539062 -1.171875 0.53125 -1.109375 0.53125 -1.046875 L 0.578125 -0.21875 C 0.585938 -0.164062 0.570312 -0.117188 0.53125 -0.078125 C 0.5 -0.046875 0.453125 -0.0234375 0.390625 -0.015625 C 0.335938 -0.015625 0.289062 -0.03125 0.25 -0.0625 C 0.21875 -0.101562 0.195312 -0.148438 0.1875 -0.203125 L 0.109375 -1.53125 C 0.109375 -1.582031 0.125 -1.625 0.15625 -1.65625 C 0.195312 -1.695312 0.242188 -1.71875 0.296875 -1.71875 C 0.359375 -1.726562 0.40625 -1.710938 0.4375 -1.671875 C 0.476562 -1.640625 0.5 -1.597656 0.5 -1.546875 L 0.515625 -1.40625 L 0.46875 -1.421875 C 0.488281 -1.453125 0.507812 -1.488281 0.53125 -1.53125 C 0.5625 -1.582031 0.597656 -1.625 0.640625 -1.65625 C 0.691406 -1.695312 0.742188 -1.726562 0.796875 -1.75 C 0.859375 -1.78125 0.925781 -1.796875 1 -1.796875 Z M 1 -1.796875 "/></g></g></g><g fill="#f2dceb" fill-opacity="1"><g transform="translate(50.612753, 33.671339)"><g><path d="M 0.953125 -1.828125 C 1.097656 -1.835938 1.234375 -1.8125 1.359375 -1.75 C 1.484375 -1.6875 1.582031 -1.585938 1.65625 -1.453125 C 1.738281 -1.328125 1.785156 -1.179688 1.796875 -1.015625 C 1.816406 -0.835938 1.796875 -0.675781 1.734375 -0.53125 C 1.679688 -0.394531 1.597656 -0.285156 1.484375 -0.203125 C 1.367188 -0.117188 1.242188 -0.0703125 1.109375 -0.0625 C 1.015625 -0.0507812 0.929688 -0.0546875 0.859375 -0.078125 C 0.785156 -0.0976562 0.71875 -0.125 0.65625 -0.15625 C 0.59375 -0.195312 0.539062 -0.238281 0.5 -0.28125 C 0.46875 -0.332031 0.453125 -0.375 0.453125 -0.40625 L 0.5625 -0.4375 L 0.578125 -0.203125 C 0.585938 -0.148438 0.570312 -0.101562 0.53125 -0.0625 C 0.5 -0.03125 0.453125 -0.0078125 0.390625 0 C 0.335938 0 0.289062 -0.015625 0.25 -0.046875 C 0.21875 -0.078125 0.195312 -0.117188 0.1875 -0.171875 L 0.015625 -2.1875 C 0.015625 -2.238281 0.03125 -2.28125 0.0625 -2.3125 C 0.09375 -2.351562 0.132812 -2.375 0.1875 -2.375 C 0.25 -2.382812 0.300781 -2.375 0.34375 -2.34375 C 0.382812 -2.3125 0.40625 -2.269531 0.40625 -2.21875 L 0.484375 -1.40625 L 0.421875 -1.4375 C 0.410156 -1.457031 0.421875 -1.488281 0.453125 -1.53125 C 0.484375 -1.570312 0.519531 -1.613281 0.5625 -1.65625 C 0.613281 -1.695312 0.671875 -1.734375 0.734375 -1.765625 C 0.804688 -1.796875 0.878906 -1.816406 0.953125 -1.828125 Z M 0.9375 -1.484375 C 0.84375 -1.472656 0.757812 -1.441406 0.6875 -1.390625 C 0.613281 -1.335938 0.5625 -1.265625 0.53125 -1.171875 C 0.507812 -1.085938 0.5 -1 0.5 -0.90625 C 0.507812 -0.800781 0.535156 -0.707031 0.578125 -0.625 C 0.628906 -0.550781 0.691406 -0.492188 0.765625 -0.453125 C 0.835938 -0.410156 0.921875 -0.394531 1.015625 -0.40625 C 1.109375 -0.40625 1.1875 -0.429688 1.25 -0.484375 C 1.320312 -0.535156 1.367188 -0.601562 1.390625 -0.6875 C 1.421875 -0.78125 1.429688 -0.878906 1.421875 -0.984375 C 1.421875 -1.078125 1.394531 -1.160156 1.34375 -1.234375 C 1.300781 -1.316406 1.242188 -1.378906 1.171875 -1.421875 C 1.109375 -1.460938 1.03125 -1.484375 0.9375 -1.484375 Z M 0.9375 -1.484375 "/></g></g></g><g fill="#f2dceb" fill-opacity="1"><g transform="translate(52.455108, 33.516947)"><g><path d="M 0.390625 -0.03125 C 0.335938 -0.03125 0.289062 -0.046875 0.25 -0.078125 C 0.207031 -0.109375 0.1875 -0.148438 0.1875 -0.203125 L 0.046875 -1.53125 C 0.046875 -1.582031 0.0625 -1.625 0.09375 -1.65625 C 0.125 -1.695312 0.164062 -1.71875 0.21875 -1.71875 C 0.28125 -1.726562 0.332031 -1.71875 0.375 -1.6875 C 0.414062 -1.664062 0.4375 -1.628906 0.4375 -1.578125 L 0.46875 -1.28125 L 0.421875 -1.484375 C 0.453125 -1.535156 0.484375 -1.582031 0.515625 -1.625 C 0.546875 -1.664062 0.582031 -1.695312 0.625 -1.71875 C 0.664062 -1.75 0.710938 -1.769531 0.765625 -1.78125 C 0.816406 -1.800781 0.867188 -1.816406 0.921875 -1.828125 C 0.984375 -1.828125 1.035156 -1.8125 1.078125 -1.78125 C 1.128906 -1.75 1.15625 -1.71875 1.15625 -1.6875 C 1.164062 -1.613281 1.15625 -1.5625 1.125 -1.53125 C 1.09375 -1.5 1.050781 -1.476562 1 -1.46875 C 0.96875 -1.46875 0.929688 -1.472656 0.890625 -1.484375 C 0.859375 -1.492188 0.820312 -1.5 0.78125 -1.5 C 0.738281 -1.488281 0.703125 -1.472656 0.671875 -1.453125 C 0.640625 -1.429688 0.609375 -1.398438 0.578125 -1.359375 C 0.546875 -1.316406 0.519531 -1.265625 0.5 -1.203125 C 0.488281 -1.148438 0.488281 -1.085938 0.5 -1.015625 L 0.578125 -0.25 C 0.578125 -0.195312 0.5625 -0.148438 0.53125 -0.109375 C 0.5 -0.0664062 0.453125 -0.0390625 0.390625 -0.03125 Z M 0.390625 -0.03125 "/></g></g></g><g fill="#f2dceb" fill-opacity="1"><g transform="translate(53.681499, 33.39929)"><g><path d="M 1.75 -1.0625 C 1.769531 -0.894531 1.75 -0.738281 1.6875 -0.59375 C 1.625 -0.445312 1.53125 -0.328125 1.40625 -0.234375 C 1.28125 -0.148438 1.144531 -0.0976562 1 -0.078125 C 0.832031 -0.0546875 0.679688 -0.078125 0.546875 -0.140625 C 0.410156 -0.203125 0.296875 -0.296875 0.203125 -0.421875 C 0.109375 -0.546875 0.0507812 -0.691406 0.03125 -0.859375 C 0.0078125 -1.035156 0.03125 -1.191406 0.09375 -1.328125 C 0.15625 -1.472656 0.242188 -1.585938 0.359375 -1.671875 C 0.484375 -1.753906 0.628906 -1.804688 0.796875 -1.828125 C 0.941406 -1.847656 1.082031 -1.828125 1.21875 -1.765625 C 1.363281 -1.710938 1.484375 -1.625 1.578125 -1.5 C 1.671875 -1.382812 1.726562 -1.238281 1.75 -1.0625 Z M 1.375 -1.015625 C 1.363281 -1.128906 1.328125 -1.21875 1.265625 -1.28125 C 1.210938 -1.351562 1.148438 -1.40625 1.078125 -1.4375 C 1.003906 -1.476562 0.925781 -1.492188 0.84375 -1.484375 C 0.75 -1.472656 0.664062 -1.441406 0.59375 -1.390625 C 0.53125 -1.335938 0.484375 -1.269531 0.453125 -1.1875 C 0.421875 -1.113281 0.410156 -1.019531 0.421875 -0.90625 C 0.429688 -0.800781 0.460938 -0.710938 0.515625 -0.640625 C 0.566406 -0.566406 0.628906 -0.507812 0.703125 -0.46875 C 0.785156 -0.425781 0.875 -0.410156 0.96875 -0.421875 C 1.050781 -0.429688 1.125 -0.460938 1.1875 -0.515625 C 1.25 -0.578125 1.296875 -0.648438 1.328125 -0.734375 C 1.367188 -0.816406 1.382812 -0.910156 1.375 -1.015625 Z M 1.375 -1.015625 "/></g></g></g><g fill="#f2dceb" fill-opacity="1"><g transform="translate(55.502323, 33.18812)"><g><path d="M 0.53125 -0.265625 C 0.539062 -0.210938 0.53125 -0.164062 0.5 -0.125 C 0.46875 -0.0820312 0.425781 -0.0546875 0.375 -0.046875 C 0.320312 -0.0351562 0.273438 -0.046875 0.234375 -0.078125 C 0.191406 -0.117188 0.164062 -0.164062 0.15625 -0.21875 L 0 -1.53125 C -0.0078125 -1.582031 0 -1.625 0.03125 -1.65625 C 0.0625 -1.695312 0.101562 -1.722656 0.15625 -1.734375 C 0.207031 -1.742188 0.253906 -1.734375 0.296875 -1.703125 C 0.335938 -1.671875 0.363281 -1.628906 0.375 -1.578125 Z M 0.140625 -1.9375 C 0.0664062 -1.925781 0.015625 -1.929688 -0.015625 -1.953125 C -0.0546875 -1.972656 -0.0820312 -2.015625 -0.09375 -2.078125 L -0.09375 -2.125 C -0.101562 -2.1875 -0.0859375 -2.234375 -0.046875 -2.265625 C -0.015625 -2.296875 0.03125 -2.316406 0.09375 -2.328125 C 0.164062 -2.335938 0.21875 -2.332031 0.25 -2.3125 C 0.28125 -2.289062 0.300781 -2.25 0.3125 -2.1875 L 0.3125 -2.140625 C 0.320312 -2.078125 0.3125 -2.03125 0.28125 -2 C 0.257812 -1.96875 0.210938 -1.945312 0.140625 -1.9375 Z M 0.140625 -1.9375 "/></g></g></g><g fill="#f2dceb" fill-opacity="1"><g transform="translate(56.097734, 33.117407)"><g><path d="M 1.265625 -2.5625 C 1.316406 -2.570312 1.363281 -2.5625 1.40625 -2.53125 C 1.445312 -2.5 1.472656 -2.457031 1.484375 -2.40625 L 1.75 -0.4375 C 1.757812 -0.382812 1.75 -0.335938 1.71875 -0.296875 C 1.6875 -0.253906 1.644531 -0.226562 1.59375 -0.21875 C 1.53125 -0.207031 1.476562 -0.21875 1.4375 -0.25 C 1.394531 -0.28125 1.367188 -0.320312 1.359375 -0.375 L 1.34375 -0.53125 L 1.421875 -0.53125 C 1.429688 -0.5 1.421875 -0.457031 1.390625 -0.40625 C 1.367188 -0.363281 1.332031 -0.320312 1.28125 -0.28125 C 1.238281 -0.238281 1.179688 -0.195312 1.109375 -0.15625 C 1.046875 -0.125 0.972656 -0.101562 0.890625 -0.09375 C 0.753906 -0.0703125 0.617188 -0.0859375 0.484375 -0.140625 C 0.359375 -0.203125 0.253906 -0.296875 0.171875 -0.421875 C 0.0859375 -0.546875 0.0351562 -0.6875 0.015625 -0.84375 C -0.015625 -1.019531 -0.00390625 -1.179688 0.046875 -1.328125 C 0.0976562 -1.472656 0.175781 -1.585938 0.28125 -1.671875 C 0.394531 -1.765625 0.519531 -1.820312 0.65625 -1.84375 C 0.738281 -1.851562 0.816406 -1.847656 0.890625 -1.828125 C 0.972656 -1.816406 1.046875 -1.796875 1.109375 -1.765625 C 1.171875 -1.734375 1.222656 -1.695312 1.265625 -1.65625 C 1.304688 -1.613281 1.328125 -1.578125 1.328125 -1.546875 L 1.203125 -1.484375 L 1.09375 -2.34375 C 1.082031 -2.394531 1.09375 -2.441406 1.125 -2.484375 C 1.15625 -2.523438 1.203125 -2.550781 1.265625 -2.5625 Z M 0.890625 -0.4375 C 0.984375 -0.457031 1.0625 -0.492188 1.125 -0.546875 C 1.195312 -0.609375 1.242188 -0.679688 1.265625 -0.765625 C 1.296875 -0.859375 1.304688 -0.945312 1.296875 -1.03125 C 1.273438 -1.132812 1.238281 -1.222656 1.1875 -1.296875 C 1.144531 -1.378906 1.082031 -1.4375 1 -1.46875 C 0.925781 -1.507812 0.84375 -1.519531 0.75 -1.5 C 0.664062 -1.488281 0.59375 -1.453125 0.53125 -1.390625 C 0.46875 -1.335938 0.421875 -1.265625 0.390625 -1.171875 C 0.367188 -1.085938 0.367188 -0.992188 0.390625 -0.890625 C 0.398438 -0.804688 0.425781 -0.722656 0.46875 -0.640625 C 0.519531 -0.566406 0.582031 -0.507812 0.65625 -0.46875 C 0.726562 -0.4375 0.804688 -0.425781 0.890625 -0.4375 Z M 0.890625 -0.4375 "/></g></g></g><g fill="#f2dceb" fill-opacity="1"><g transform="translate(57.931327, 32.862634)"><g><path d="M 1 -0.125 C 0.8125 -0.09375 0.648438 -0.101562 0.515625 -0.15625 C 0.378906 -0.207031 0.265625 -0.289062 0.171875 -0.40625 C 0.078125 -0.53125 0.0195312 -0.671875 0 -0.828125 C -0.03125 -1.015625 -0.0195312 -1.179688 0.03125 -1.328125 C 0.09375 -1.484375 0.175781 -1.601562 0.28125 -1.6875 C 0.394531 -1.78125 0.523438 -1.84375 0.671875 -1.875 C 0.773438 -1.882812 0.878906 -1.875 0.984375 -1.84375 C 1.085938 -1.820312 1.179688 -1.773438 1.265625 -1.703125 C 1.347656 -1.640625 1.414062 -1.554688 1.46875 -1.453125 C 1.53125 -1.359375 1.570312 -1.253906 1.59375 -1.140625 C 1.601562 -1.085938 1.59375 -1.039062 1.5625 -1 C 1.53125 -0.96875 1.488281 -0.953125 1.4375 -0.953125 L 0.234375 -0.75 L 0.09375 -1.0625 L 1.25 -1.25 L 1.171875 -1.15625 L 1.15625 -1.25 C 1.144531 -1.3125 1.113281 -1.363281 1.0625 -1.40625 C 1.019531 -1.445312 0.96875 -1.476562 0.90625 -1.5 C 0.84375 -1.519531 0.78125 -1.53125 0.71875 -1.53125 C 0.644531 -1.507812 0.582031 -1.484375 0.53125 -1.453125 C 0.488281 -1.429688 0.453125 -1.398438 0.421875 -1.359375 C 0.390625 -1.316406 0.367188 -1.257812 0.359375 -1.1875 C 0.347656 -1.113281 0.347656 -1.023438 0.359375 -0.921875 C 0.378906 -0.804688 0.414062 -0.710938 0.46875 -0.640625 C 0.53125 -0.566406 0.597656 -0.515625 0.671875 -0.484375 C 0.753906 -0.460938 0.835938 -0.457031 0.921875 -0.46875 C 1.003906 -0.476562 1.066406 -0.492188 1.109375 -0.515625 C 1.148438 -0.535156 1.179688 -0.554688 1.203125 -0.578125 C 1.234375 -0.597656 1.265625 -0.625 1.296875 -0.65625 C 1.316406 -0.664062 1.347656 -0.675781 1.390625 -0.6875 C 1.429688 -0.6875 1.46875 -0.671875 1.5 -0.640625 C 1.539062 -0.617188 1.566406 -0.585938 1.578125 -0.546875 C 1.585938 -0.492188 1.566406 -0.4375 1.515625 -0.375 C 1.460938 -0.332031 1.390625 -0.285156 1.296875 -0.234375 C 1.203125 -0.179688 1.101562 -0.144531 1 -0.125 Z M 1 -0.125 "/></g></g></g><g fill="#f2dceb" fill-opacity="1"><g transform="translate(59.637524, 32.592629)"><g><path d="M 0.390625 -0.0625 C 0.335938 -0.0507812 0.289062 -0.0625 0.25 -0.09375 C 0.207031 -0.125 0.179688 -0.164062 0.171875 -0.21875 L -0.0625 -1.53125 C -0.0625 -1.582031 -0.046875 -1.625 -0.015625 -1.65625 C 0.00390625 -1.695312 0.0390625 -1.722656 0.09375 -1.734375 C 0.15625 -1.742188 0.207031 -1.734375 0.25 -1.703125 C 0.289062 -1.679688 0.3125 -1.644531 0.3125 -1.59375 L 0.375 -1.296875 L 0.296875 -1.5 C 0.328125 -1.5625 0.351562 -1.613281 0.375 -1.65625 C 0.40625 -1.695312 0.441406 -1.734375 0.484375 -1.765625 C 0.523438 -1.796875 0.570312 -1.820312 0.625 -1.84375 C 0.675781 -1.863281 0.726562 -1.878906 0.78125 -1.890625 C 0.84375 -1.898438 0.894531 -1.890625 0.9375 -1.859375 C 0.988281 -1.828125 1.019531 -1.796875 1.03125 -1.765625 C 1.039062 -1.691406 1.03125 -1.632812 1 -1.59375 C 0.976562 -1.5625 0.941406 -1.539062 0.890625 -1.53125 C 0.859375 -1.53125 0.820312 -1.535156 0.78125 -1.546875 C 0.75 -1.554688 0.710938 -1.554688 0.671875 -1.546875 C 0.628906 -1.535156 0.585938 -1.515625 0.546875 -1.484375 C 0.515625 -1.460938 0.488281 -1.429688 0.46875 -1.390625 C 0.445312 -1.347656 0.425781 -1.296875 0.40625 -1.234375 C 0.394531 -1.171875 0.398438 -1.101562 0.421875 -1.03125 L 0.546875 -0.28125 C 0.554688 -0.226562 0.546875 -0.179688 0.515625 -0.140625 C 0.492188 -0.0976562 0.453125 -0.0703125 0.390625 -0.0625 Z M 0.390625 -0.0625 "/></g></g></g><g fill="#f2dceb" fill-opacity="1"><g transform="translate(60.851432, 32.385472)"><g><path d="M 1.125 -1.9375 C 1.1875 -1.957031 1.234375 -1.953125 1.265625 -1.921875 C 1.304688 -1.890625 1.332031 -1.847656 1.34375 -1.796875 L 1.59375 -0.46875 C 1.632812 -0.269531 1.628906 -0.109375 1.578125 0.015625 C 1.523438 0.140625 1.445312 0.238281 1.34375 0.3125 C 1.238281 0.382812 1.109375 0.4375 0.953125 0.46875 C 0.890625 0.476562 0.816406 0.484375 0.734375 0.484375 C 0.648438 0.492188 0.585938 0.492188 0.546875 0.484375 C 0.472656 0.460938 0.421875 0.4375 0.390625 0.40625 C 0.359375 0.375 0.347656 0.332031 0.359375 0.28125 C 0.367188 0.21875 0.390625 0.171875 0.421875 0.140625 C 0.453125 0.109375 0.488281 0.0976562 0.53125 0.109375 C 0.582031 0.109375 0.632812 0.113281 0.6875 0.125 C 0.738281 0.132812 0.800781 0.132812 0.875 0.125 C 0.96875 0.101562 1.046875 0.0703125 1.109375 0.03125 C 1.171875 0 1.210938 -0.046875 1.234375 -0.109375 C 1.253906 -0.179688 1.253906 -0.269531 1.234375 -0.375 L 1.203125 -0.59375 L 1.28125 -0.53125 C 1.257812 -0.445312 1.226562 -0.378906 1.1875 -0.328125 C 1.144531 -0.273438 1.082031 -0.226562 1 -0.1875 C 0.925781 -0.15625 0.84375 -0.128906 0.75 -0.109375 C 0.632812 -0.0859375 0.535156 -0.09375 0.453125 -0.125 C 0.367188 -0.164062 0.289062 -0.226562 0.21875 -0.3125 C 0.15625 -0.394531 0.113281 -0.488281 0.09375 -0.59375 L -0.078125 -1.515625 C -0.0859375 -1.566406 -0.078125 -1.613281 -0.046875 -1.65625 C -0.015625 -1.707031 0.0234375 -1.738281 0.078125 -1.75 C 0.128906 -1.757812 0.175781 -1.75 0.21875 -1.71875 C 0.257812 -1.6875 0.285156 -1.644531 0.296875 -1.59375 L 0.453125 -0.78125 C 0.472656 -0.644531 0.515625 -0.554688 0.578125 -0.515625 C 0.648438 -0.472656 0.742188 -0.460938 0.859375 -0.484375 C 0.929688 -0.492188 0.988281 -0.519531 1.03125 -0.5625 C 1.082031 -0.601562 1.113281 -0.648438 1.125 -0.703125 C 1.144531 -0.765625 1.148438 -0.832031 1.140625 -0.90625 L 0.984375 -1.71875 C 0.972656 -1.769531 0.976562 -1.816406 1 -1.859375 C 1.03125 -1.898438 1.070312 -1.925781 1.125 -1.9375 Z M 1.125 -1.9375 "/></g></g></g><g fill="#f2dceb" fill-opacity="1"><g transform="translate(62.536862, 32.06569)"><g/></g></g><g fill="#f2dceb" fill-opacity="1"><g transform="translate(63.262783, 31.92373)"><g><path d="M 0.9375 -0.171875 C 0.789062 -0.140625 0.65625 -0.128906 0.53125 -0.140625 C 0.40625 -0.148438 0.285156 -0.191406 0.171875 -0.265625 C 0.140625 -0.273438 0.109375 -0.296875 0.078125 -0.328125 C 0.0546875 -0.359375 0.046875 -0.382812 0.046875 -0.40625 C 0.0351562 -0.457031 0.0390625 -0.503906 0.0625 -0.546875 C 0.09375 -0.585938 0.132812 -0.613281 0.1875 -0.625 C 0.21875 -0.632812 0.253906 -0.628906 0.296875 -0.609375 C 0.390625 -0.554688 0.476562 -0.519531 0.5625 -0.5 C 0.65625 -0.488281 0.757812 -0.5 0.875 -0.53125 C 0.945312 -0.539062 1.007812 -0.5625 1.0625 -0.59375 C 1.125 -0.632812 1.171875 -0.679688 1.203125 -0.734375 C 1.234375 -0.785156 1.242188 -0.835938 1.234375 -0.890625 C 1.222656 -0.953125 1.191406 -1 1.140625 -1.03125 C 1.097656 -1.070312 1.035156 -1.097656 0.953125 -1.109375 C 0.867188 -1.128906 0.765625 -1.132812 0.640625 -1.125 C 0.523438 -1.113281 0.414062 -1.113281 0.3125 -1.125 C 0.21875 -1.144531 0.140625 -1.171875 0.078125 -1.203125 C 0.015625 -1.242188 -0.0351562 -1.296875 -0.078125 -1.359375 C -0.128906 -1.429688 -0.164062 -1.515625 -0.1875 -1.609375 C -0.207031 -1.734375 -0.191406 -1.851562 -0.140625 -1.96875 C -0.0976562 -2.082031 -0.0234375 -2.175781 0.078125 -2.25 C 0.191406 -2.332031 0.320312 -2.390625 0.46875 -2.421875 C 0.601562 -2.453125 0.726562 -2.457031 0.84375 -2.4375 C 0.96875 -2.414062 1.078125 -2.382812 1.171875 -2.34375 C 1.242188 -2.300781 1.285156 -2.25 1.296875 -2.1875 C 1.304688 -2.132812 1.296875 -2.085938 1.265625 -2.046875 C 1.234375 -2.015625 1.195312 -1.992188 1.15625 -1.984375 C 1.125 -1.972656 1.09375 -1.972656 1.0625 -1.984375 C 1.019531 -2.003906 0.96875 -2.019531 0.90625 -2.03125 C 0.84375 -2.050781 0.78125 -2.0625 0.71875 -2.0625 C 0.664062 -2.0625 0.609375 -2.054688 0.546875 -2.046875 C 0.460938 -2.023438 0.390625 -2 0.328125 -1.96875 C 0.265625 -1.9375 0.21875 -1.894531 0.1875 -1.84375 C 0.164062 -1.800781 0.160156 -1.753906 0.171875 -1.703125 C 0.179688 -1.640625 0.210938 -1.59375 0.265625 -1.5625 C 0.316406 -1.53125 0.378906 -1.507812 0.453125 -1.5 C 0.523438 -1.488281 0.613281 -1.476562 0.71875 -1.46875 C 0.84375 -1.476562 0.953125 -1.476562 1.046875 -1.46875 C 1.148438 -1.457031 1.238281 -1.4375 1.3125 -1.40625 C 1.394531 -1.375 1.457031 -1.320312 1.5 -1.25 C 1.539062 -1.1875 1.570312 -1.101562 1.59375 -1 C 1.625 -0.851562 1.613281 -0.722656 1.5625 -0.609375 C 1.507812 -0.503906 1.425781 -0.410156 1.3125 -0.328125 C 1.195312 -0.253906 1.070312 -0.203125 0.9375 -0.171875 Z M 0.9375 -0.171875 "/></g></g></g><g fill="#f2dceb" fill-opacity="1"><g transform="translate(64.976224, 31.557594)"><g><path d="M 0.6875 -1.9375 C 0.832031 -1.96875 0.953125 -1.960938 1.046875 -1.921875 C 1.140625 -1.878906 1.207031 -1.804688 1.25 -1.703125 C 1.300781 -1.609375 1.34375 -1.492188 1.375 -1.359375 L 1.5625 -0.5625 C 1.570312 -0.507812 1.5625 -0.457031 1.53125 -0.40625 C 1.507812 -0.363281 1.476562 -0.335938 1.4375 -0.328125 C 1.382812 -0.316406 1.332031 -0.328125 1.28125 -0.359375 C 1.238281 -0.390625 1.210938 -0.429688 1.203125 -0.484375 L 1.015625 -1.28125 C 1.003906 -1.34375 0.984375 -1.398438 0.953125 -1.453125 C 0.921875 -1.503906 0.878906 -1.539062 0.828125 -1.5625 C 0.773438 -1.59375 0.707031 -1.597656 0.625 -1.578125 C 0.550781 -1.554688 0.488281 -1.519531 0.4375 -1.46875 C 0.382812 -1.425781 0.351562 -1.375 0.34375 -1.3125 C 0.332031 -1.25 0.332031 -1.1875 0.34375 -1.125 L 0.53125 -0.328125 C 0.539062 -0.273438 0.53125 -0.222656 0.5 -0.171875 C 0.476562 -0.128906 0.4375 -0.101562 0.375 -0.09375 C 0.320312 -0.0820312 0.273438 -0.0859375 0.234375 -0.109375 C 0.191406 -0.140625 0.164062 -0.179688 0.15625 -0.234375 L -0.296875 -2.15625 C -0.304688 -2.207031 -0.296875 -2.253906 -0.265625 -2.296875 C -0.242188 -2.347656 -0.207031 -2.378906 -0.15625 -2.390625 C -0.09375 -2.398438 -0.0390625 -2.390625 0 -2.359375 C 0.0390625 -2.335938 0.0664062 -2.300781 0.078125 -2.25 L 0.265625 -1.484375 L 0.21875 -1.484375 C 0.226562 -1.515625 0.242188 -1.550781 0.265625 -1.59375 C 0.285156 -1.644531 0.316406 -1.691406 0.359375 -1.734375 C 0.398438 -1.785156 0.445312 -1.828125 0.5 -1.859375 C 0.550781 -1.898438 0.613281 -1.925781 0.6875 -1.9375 Z M 0.6875 -1.9375 "/></g></g></g><g fill="#f2dceb" fill-opacity="1"><g transform="translate(66.649518, 31.170103)"><g><path d="M 1.59375 -1.265625 C 1.632812 -1.109375 1.632812 -0.953125 1.59375 -0.796875 C 1.550781 -0.648438 1.472656 -0.523438 1.359375 -0.421875 C 1.253906 -0.316406 1.125 -0.25 0.96875 -0.21875 C 0.8125 -0.175781 0.660156 -0.175781 0.515625 -0.21875 C 0.367188 -0.257812 0.242188 -0.332031 0.140625 -0.4375 C 0.0351562 -0.550781 -0.0351562 -0.6875 -0.078125 -0.84375 C -0.117188 -1.019531 -0.117188 -1.179688 -0.078125 -1.328125 C -0.046875 -1.484375 0.0234375 -1.613281 0.140625 -1.71875 C 0.253906 -1.820312 0.390625 -1.894531 0.546875 -1.9375 C 0.703125 -1.96875 0.847656 -1.960938 0.984375 -1.921875 C 1.128906 -1.878906 1.253906 -1.800781 1.359375 -1.6875 C 1.472656 -1.582031 1.550781 -1.441406 1.59375 -1.265625 Z M 1.234375 -1.171875 C 1.203125 -1.285156 1.148438 -1.375 1.078125 -1.4375 C 1.015625 -1.507812 0.941406 -1.554688 0.859375 -1.578125 C 0.785156 -1.609375 0.707031 -1.613281 0.625 -1.59375 C 0.53125 -1.5625 0.453125 -1.515625 0.390625 -1.453125 C 0.335938 -1.398438 0.300781 -1.328125 0.28125 -1.234375 C 0.257812 -1.148438 0.265625 -1.050781 0.296875 -0.9375 C 0.316406 -0.84375 0.359375 -0.757812 0.421875 -0.6875 C 0.484375 -0.625 0.550781 -0.578125 0.625 -0.546875 C 0.707031 -0.515625 0.796875 -0.515625 0.890625 -0.546875 C 0.972656 -0.566406 1.039062 -0.609375 1.09375 -0.671875 C 1.15625 -0.734375 1.195312 -0.804688 1.21875 -0.890625 C 1.25 -0.984375 1.253906 -1.078125 1.234375 -1.171875 Z M 1.234375 -1.171875 "/></g></g></g><g fill="#f2dceb" fill-opacity="1"><g transform="translate(68.43326, 30.722613)"><g><path d="M 0.609375 -1.953125 C 0.742188 -1.992188 0.878906 -1.992188 1.015625 -1.953125 C 1.148438 -1.921875 1.265625 -1.847656 1.359375 -1.734375 C 1.460938 -1.617188 1.539062 -1.476562 1.59375 -1.3125 C 1.632812 -1.144531 1.640625 -0.988281 1.609375 -0.84375 C 1.578125 -0.695312 1.515625 -0.570312 1.421875 -0.46875 C 1.328125 -0.363281 1.21875 -0.296875 1.09375 -0.265625 C 1 -0.234375 0.910156 -0.222656 0.828125 -0.234375 C 0.742188 -0.242188 0.671875 -0.257812 0.609375 -0.28125 C 0.546875 -0.3125 0.492188 -0.34375 0.453125 -0.375 C 0.410156 -0.40625 0.382812 -0.4375 0.375 -0.46875 L 0.46875 -0.53125 L 0.6875 0.265625 C 0.707031 0.328125 0.703125 0.378906 0.671875 0.421875 C 0.648438 0.472656 0.609375 0.503906 0.546875 0.515625 C 0.492188 0.535156 0.445312 0.53125 0.40625 0.5 C 0.363281 0.476562 0.332031 0.4375 0.3125 0.375 L -0.1875 -1.515625 C -0.207031 -1.554688 -0.207031 -1.597656 -0.1875 -1.640625 C -0.164062 -1.691406 -0.128906 -1.726562 -0.078125 -1.75 C -0.015625 -1.757812 0.0351562 -1.75 0.078125 -1.71875 C 0.128906 -1.695312 0.164062 -1.664062 0.1875 -1.625 L 0.21875 -1.46875 L 0.15625 -1.484375 C 0.144531 -1.503906 0.148438 -1.535156 0.171875 -1.578125 C 0.191406 -1.628906 0.21875 -1.675781 0.25 -1.71875 C 0.289062 -1.769531 0.34375 -1.816406 0.40625 -1.859375 C 0.46875 -1.910156 0.535156 -1.941406 0.609375 -1.953125 Z M 0.65625 -1.625 C 0.5625 -1.59375 0.484375 -1.546875 0.421875 -1.484375 C 0.359375 -1.421875 0.320312 -1.34375 0.3125 -1.25 C 0.300781 -1.164062 0.3125 -1.078125 0.34375 -0.984375 C 0.363281 -0.878906 0.398438 -0.789062 0.453125 -0.71875 C 0.503906 -0.65625 0.570312 -0.609375 0.65625 -0.578125 C 0.75 -0.546875 0.84375 -0.546875 0.9375 -0.578125 C 1.019531 -0.597656 1.085938 -0.640625 1.140625 -0.703125 C 1.191406 -0.765625 1.222656 -0.835938 1.234375 -0.921875 C 1.253906 -1.015625 1.253906 -1.113281 1.234375 -1.21875 C 1.203125 -1.3125 1.15625 -1.390625 1.09375 -1.453125 C 1.039062 -1.523438 0.972656 -1.578125 0.890625 -1.609375 C 0.816406 -1.640625 0.738281 -1.644531 0.65625 -1.625 Z M 0.65625 -1.625 "/></g></g></g><g clip-path="url(#d601a35e4e)"><path fill="#f285c1" d="M 11.890625 5.765625 L 12.503906 7.003906 C 12.601562 7.199219 12.785156 7.332031 12.996094 7.363281 L 14.367188 7.5625 C 14.90625 7.640625 15.121094 8.300781 14.730469 8.679688 L 13.738281 9.648438 C 13.585938 9.800781 13.515625 10.015625 13.550781 10.230469 L 13.785156 11.59375 C 13.875 12.128906 13.3125 12.539062 12.832031 12.285156 L 11.605469 11.640625 C 11.414062 11.539062 11.1875 11.539062 10.996094 11.640625 L 9.773438 12.285156 C 9.292969 12.535156 8.730469 12.128906 8.820312 11.59375 L 9.054688 10.226562 C 9.089844 10.015625 9.023438 9.796875 8.867188 9.648438 L 7.875 8.679688 C 7.484375 8.300781 7.699219 7.640625 8.238281 7.5625 L 9.609375 7.363281 C 9.820312 7.332031 10.003906 7.199219 10.101562 7.003906 L 10.714844 5.765625 C 10.957031 5.277344 11.648438 5.277344 11.890625 5.765625 Z M 11.890625 5.765625 " fill-opacity="1" fill-rule="nonzero"/></g><g clip-path="url(#6240f5bb9d)"><path fill="#f285c1" d="M 7.777344 12.4375 L 8.085938 13.058594 C 8.132812 13.15625 8.222656 13.222656 8.332031 13.238281 L 9.015625 13.335938 C 9.285156 13.375 9.390625 13.707031 9.195312 13.894531 L 8.699219 14.378906 C 8.625 14.457031 8.589844 14.5625 8.605469 14.667969 L 8.722656 15.351562 C 8.769531 15.621094 8.488281 15.824219 8.25 15.699219 L 7.636719 15.375 C 7.539062 15.324219 7.425781 15.324219 7.332031 15.375 L 6.71875 15.695312 C 6.480469 15.824219 6.195312 15.617188 6.242188 15.351562 L 6.359375 14.667969 C 6.378906 14.5625 6.34375 14.453125 6.265625 14.378906 L 5.769531 13.894531 C 5.574219 13.707031 5.683594 13.375 5.953125 13.335938 L 6.636719 13.238281 C 6.742188 13.222656 6.835938 13.15625 6.882812 13.058594 L 7.191406 12.4375 C 7.308594 12.195312 7.65625 12.195312 7.777344 12.4375 Z M 7.777344 12.4375 " fill-opacity="1" fill-rule="nonzero"/></g><g clip-path="url(#5d4d163fe5)"><path fill="#f285c1" d="M 74.230469 0.40625 L 74.734375 1.429688 C 74.816406 1.589844 74.964844 1.699219 75.140625 1.722656 L 76.273438 1.886719 C 76.714844 1.953125 76.890625 2.496094 76.570312 2.808594 L 75.753906 3.609375 C 75.625 3.730469 75.566406 3.910156 75.597656 4.085938 L 75.789062 5.210938 C 75.867188 5.652344 75.402344 5.988281 75.007812 5.78125 L 73.996094 5.25 C 73.839844 5.167969 73.652344 5.167969 73.496094 5.25 L 72.484375 5.78125 C 72.089844 5.988281 71.625 5.652344 71.699219 5.210938 L 71.894531 4.085938 C 71.921875 3.910156 71.867188 3.730469 71.738281 3.605469 L 70.917969 2.808594 C 70.597656 2.496094 70.777344 1.953125 71.21875 1.886719 L 72.347656 1.722656 C 72.523438 1.699219 72.675781 1.589844 72.753906 1.429688 L 73.261719 0.40625 C 73.460938 0.00390625 74.03125 0.00390625 74.230469 0.40625 Z M 74.230469 0.40625 " fill-opacity="1" fill-rule="nonzero"/></g><g clip-path="url(#3bcef457e6)"><path fill="#f285c1" d="M 81.976562 28.054688 L 82.285156 28.675781 C 82.332031 28.769531 82.421875 28.839844 82.53125 28.851562 L 83.214844 28.953125 C 83.480469 28.992188 83.589844 29.320312 83.394531 29.511719 L 82.898438 29.992188 C 82.824219 30.070312 82.789062 30.175781 82.804688 30.285156 L 82.921875 30.964844 C 82.96875 31.230469 82.6875 31.433594 82.449219 31.308594 L 81.835938 30.988281 C 81.742188 30.9375 81.628906 30.9375 81.53125 30.988281 L 80.921875 31.308594 C 80.679688 31.433594 80.398438 31.230469 80.445312 30.964844 L 80.5625 30.28125 C 80.582031 30.175781 80.546875 30.066406 80.46875 29.992188 L 79.972656 29.511719 C 79.777344 29.320312 79.886719 28.992188 80.15625 28.953125 L 80.839844 28.851562 C 80.945312 28.839844 81.035156 28.769531 81.085938 28.675781 L 81.390625 28.054688 C 81.511719 27.8125 81.859375 27.8125 81.976562 28.054688 Z M 81.976562 28.054688 " fill-opacity="1" fill-rule="nonzero"/></g></svg>